%TF.GenerationSoftware,KiCad,Pcbnew,7.0.1*%
%TF.CreationDate,2023-04-16T18:59:37-05:00*%
%TF.ProjectId,HW4,4857342e-6b69-4636-9164-5f7063625858,rev?*%
%TF.SameCoordinates,Original*%
%TF.FileFunction,Soldermask,Bot*%
%TF.FilePolarity,Negative*%
%FSLAX46Y46*%
G04 Gerber Fmt 4.6, Leading zero omitted, Abs format (unit mm)*
G04 Created by KiCad (PCBNEW 7.0.1) date 2023-04-16 18:59:37*
%MOMM*%
%LPD*%
G01*
G04 APERTURE LIST*
%ADD10C,1.600000*%
%ADD11R,1.500000X1.050000*%
%ADD12O,1.500000X1.050000*%
%ADD13R,1.600000X1.600000*%
%ADD14O,1.600000X1.600000*%
%ADD15C,1.700000*%
%ADD16R,1.700000X1.700000*%
%ADD17O,1.700000X1.700000*%
%ADD18R,1.800000X1.800000*%
%ADD19C,1.800000*%
%TA.AperFunction,Profile*%
%ADD20C,0.100000*%
%TD*%
G04 APERTURE END LIST*
D10*
%TO.C,C1*%
X111840593Y-148305838D03*
X109340593Y-148305838D03*
%TD*%
D11*
%TO.C,U2*%
X139764813Y-113923902D03*
D12*
X139764813Y-112653902D03*
X139764813Y-111383902D03*
%TD*%
D13*
%TO.C,U1*%
X121274094Y-112039603D03*
D14*
X121274094Y-114579603D03*
X121274094Y-117119603D03*
X121274094Y-119659603D03*
X121274094Y-122199603D03*
X121274094Y-124739603D03*
X121274094Y-127279603D03*
X121274094Y-129819603D03*
X121274094Y-132359603D03*
X121274094Y-134899603D03*
X121274094Y-137439603D03*
X121274094Y-139979603D03*
X121274094Y-142519603D03*
X121274094Y-145059603D03*
X128894094Y-145059603D03*
X128894094Y-142519603D03*
X128894094Y-139979603D03*
X128894094Y-137439603D03*
X128894094Y-134899603D03*
X128894094Y-132359603D03*
X128894094Y-129819603D03*
X128894094Y-127279603D03*
X128894094Y-124739603D03*
X128894094Y-122199603D03*
X128894094Y-119659603D03*
X128894094Y-117119603D03*
X128894094Y-114579603D03*
X128894094Y-112039603D03*
%TD*%
D15*
%TO.C,SW3*%
X139178524Y-102524073D03*
X141678524Y-102524073D03*
X144178524Y-102524073D03*
%TD*%
D16*
%TO.C,SW2*%
X104140000Y-101600000D03*
D17*
X104140000Y-106680000D03*
%TD*%
D16*
%TO.C,SW1*%
X112907148Y-101596996D03*
D17*
X112907148Y-106676996D03*
%TD*%
D10*
%TO.C,R5*%
X142240000Y-140970000D03*
D14*
X142240000Y-148590000D03*
%TD*%
%TO.C,R4*%
X107038775Y-140730304D03*
D10*
X107038775Y-133110304D03*
%TD*%
%TO.C,R3*%
X113062406Y-132965592D03*
D14*
X113062406Y-140585592D03*
%TD*%
%TO.C,R2*%
X106937784Y-112874741D03*
D10*
X106937784Y-120494741D03*
%TD*%
D14*
%TO.C,R1*%
X112834792Y-112874741D03*
D10*
X112834792Y-120494741D03*
%TD*%
D16*
%TO.C,J4*%
X147320000Y-114300000D03*
D17*
X147320000Y-116840000D03*
X147320000Y-119380000D03*
X147320000Y-121920000D03*
X147320000Y-124460000D03*
X147320000Y-127000000D03*
X147320000Y-129540000D03*
X147320000Y-132080000D03*
X147320000Y-134620000D03*
X147320000Y-137160000D03*
X147320000Y-139700000D03*
X147320000Y-142240000D03*
%TD*%
D16*
%TO.C,J3*%
X101595494Y-114723589D03*
D17*
X101595494Y-117263589D03*
X101595494Y-119803589D03*
X101595494Y-122343589D03*
X101595494Y-124883589D03*
X101595494Y-127423589D03*
X101595494Y-129963589D03*
X101595494Y-132503589D03*
X101595494Y-135043589D03*
X101595494Y-137583589D03*
X101595494Y-140123589D03*
X101595494Y-142663589D03*
%TD*%
D16*
%TO.C,J2*%
X147320000Y-106680000D03*
D17*
X147320000Y-109220000D03*
%TD*%
D16*
%TO.C,J1*%
X119168939Y-101937683D03*
D17*
X121708939Y-101937683D03*
X124248939Y-101937683D03*
X126788939Y-101937683D03*
X129328939Y-101937683D03*
X131868939Y-101937683D03*
%TD*%
D18*
%TO.C,D3*%
X134172314Y-146524084D03*
D19*
X134172314Y-143984084D03*
%TD*%
D18*
%TO.C,D2*%
X106973962Y-129075693D03*
D19*
X106973962Y-126535693D03*
%TD*%
D18*
%TO.C,D1*%
X113088038Y-129003337D03*
D19*
X113088038Y-126463337D03*
%TD*%
D10*
%TO.C,C6*%
X139819080Y-125563427D03*
X134819080Y-125563427D03*
%TD*%
%TO.C,C5*%
X134837169Y-119955843D03*
X139837169Y-119955843D03*
%TD*%
%TO.C,C4*%
X141682245Y-107064407D03*
X136682245Y-107064407D03*
%TD*%
%TO.C,C3*%
X132352153Y-113591526D03*
X134852153Y-113591526D03*
%TD*%
%TO.C,C2*%
X132630313Y-134300405D03*
X137630313Y-134300405D03*
%TD*%
D20*
X150000000Y-100000000D02*
X100000000Y-100000000D01*
X150000000Y-150000000D02*
X150000000Y-100000000D01*
X100000000Y-150000000D02*
X150000000Y-150000000D01*
X100000000Y-100000000D02*
X100000000Y-150000000D01*
M02*
