%TF.GenerationSoftware,KiCad,Pcbnew,7.0.1*%
%TF.CreationDate,2023-04-16T18:59:37-05:00*%
%TF.ProjectId,HW4,4857342e-6b69-4636-9164-5f7063625858,rev?*%
%TF.SameCoordinates,Original*%
%TF.FileFunction,Legend,Top*%
%TF.FilePolarity,Positive*%
%FSLAX46Y46*%
G04 Gerber Fmt 4.6, Leading zero omitted, Abs format (unit mm)*
G04 Created by KiCad (PCBNEW 7.0.1) date 2023-04-16 18:59:37*
%MOMM*%
%LPD*%
G01*
G04 APERTURE LIST*
%ADD10C,0.150000*%
%ADD11C,0.100000*%
%ADD12C,0.120000*%
%ADD13C,0.400000*%
%TA.AperFunction,Profile*%
%ADD14C,0.100000*%
%TD*%
G04 APERTURE END LIST*
D10*
%TO.C,C1*%
X110423926Y-150973218D02*
X110376307Y-151020838D01*
X110376307Y-151020838D02*
X110233450Y-151068457D01*
X110233450Y-151068457D02*
X110138212Y-151068457D01*
X110138212Y-151068457D02*
X109995355Y-151020838D01*
X109995355Y-151020838D02*
X109900117Y-150925599D01*
X109900117Y-150925599D02*
X109852498Y-150830361D01*
X109852498Y-150830361D02*
X109804879Y-150639885D01*
X109804879Y-150639885D02*
X109804879Y-150497028D01*
X109804879Y-150497028D02*
X109852498Y-150306552D01*
X109852498Y-150306552D02*
X109900117Y-150211314D01*
X109900117Y-150211314D02*
X109995355Y-150116076D01*
X109995355Y-150116076D02*
X110138212Y-150068457D01*
X110138212Y-150068457D02*
X110233450Y-150068457D01*
X110233450Y-150068457D02*
X110376307Y-150116076D01*
X110376307Y-150116076D02*
X110423926Y-150163695D01*
X111376307Y-151068457D02*
X110804879Y-151068457D01*
X111090593Y-151068457D02*
X111090593Y-150068457D01*
X111090593Y-150068457D02*
X110995355Y-150211314D01*
X110995355Y-150211314D02*
X110900117Y-150306552D01*
X110900117Y-150306552D02*
X110804879Y-150354171D01*
%TO.C,U2*%
X135667432Y-113495806D02*
X136476955Y-113495806D01*
X136476955Y-113495806D02*
X136572193Y-113448187D01*
X136572193Y-113448187D02*
X136619813Y-113400568D01*
X136619813Y-113400568D02*
X136667432Y-113305330D01*
X136667432Y-113305330D02*
X136667432Y-113114854D01*
X136667432Y-113114854D02*
X136619813Y-113019616D01*
X136619813Y-113019616D02*
X136572193Y-112971997D01*
X136572193Y-112971997D02*
X136476955Y-112924378D01*
X136476955Y-112924378D02*
X135667432Y-112924378D01*
X135762670Y-112495806D02*
X135715051Y-112448187D01*
X135715051Y-112448187D02*
X135667432Y-112352949D01*
X135667432Y-112352949D02*
X135667432Y-112114854D01*
X135667432Y-112114854D02*
X135715051Y-112019616D01*
X135715051Y-112019616D02*
X135762670Y-111971997D01*
X135762670Y-111971997D02*
X135857908Y-111924378D01*
X135857908Y-111924378D02*
X135953146Y-111924378D01*
X135953146Y-111924378D02*
X136096003Y-111971997D01*
X136096003Y-111971997D02*
X136667432Y-112543425D01*
X136667432Y-112543425D02*
X136667432Y-111924378D01*
%TO.C,U1*%
X124322189Y-109172222D02*
X124322189Y-109981745D01*
X124322189Y-109981745D02*
X124369808Y-110076983D01*
X124369808Y-110076983D02*
X124417427Y-110124603D01*
X124417427Y-110124603D02*
X124512665Y-110172222D01*
X124512665Y-110172222D02*
X124703141Y-110172222D01*
X124703141Y-110172222D02*
X124798379Y-110124603D01*
X124798379Y-110124603D02*
X124845998Y-110076983D01*
X124845998Y-110076983D02*
X124893617Y-109981745D01*
X124893617Y-109981745D02*
X124893617Y-109172222D01*
X125893617Y-110172222D02*
X125322189Y-110172222D01*
X125607903Y-110172222D02*
X125607903Y-109172222D01*
X125607903Y-109172222D02*
X125512665Y-109315079D01*
X125512665Y-109315079D02*
X125417427Y-109410317D01*
X125417427Y-109410317D02*
X125322189Y-109457936D01*
D11*
%TO.C,SW3*%
X140345191Y-99475000D02*
X140488048Y-99522619D01*
X140488048Y-99522619D02*
X140726143Y-99522619D01*
X140726143Y-99522619D02*
X140821381Y-99475000D01*
X140821381Y-99475000D02*
X140869000Y-99427380D01*
X140869000Y-99427380D02*
X140916619Y-99332142D01*
X140916619Y-99332142D02*
X140916619Y-99236904D01*
X140916619Y-99236904D02*
X140869000Y-99141666D01*
X140869000Y-99141666D02*
X140821381Y-99094047D01*
X140821381Y-99094047D02*
X140726143Y-99046428D01*
X140726143Y-99046428D02*
X140535667Y-98998809D01*
X140535667Y-98998809D02*
X140440429Y-98951190D01*
X140440429Y-98951190D02*
X140392810Y-98903571D01*
X140392810Y-98903571D02*
X140345191Y-98808333D01*
X140345191Y-98808333D02*
X140345191Y-98713095D01*
X140345191Y-98713095D02*
X140392810Y-98617857D01*
X140392810Y-98617857D02*
X140440429Y-98570238D01*
X140440429Y-98570238D02*
X140535667Y-98522619D01*
X140535667Y-98522619D02*
X140773762Y-98522619D01*
X140773762Y-98522619D02*
X140916619Y-98570238D01*
X141249953Y-98522619D02*
X141488048Y-99522619D01*
X141488048Y-99522619D02*
X141678524Y-98808333D01*
X141678524Y-98808333D02*
X141869000Y-99522619D01*
X141869000Y-99522619D02*
X142107096Y-98522619D01*
X142392810Y-98522619D02*
X143011857Y-98522619D01*
X143011857Y-98522619D02*
X142678524Y-98903571D01*
X142678524Y-98903571D02*
X142821381Y-98903571D01*
X142821381Y-98903571D02*
X142916619Y-98951190D01*
X142916619Y-98951190D02*
X142964238Y-98998809D01*
X142964238Y-98998809D02*
X143011857Y-99094047D01*
X143011857Y-99094047D02*
X143011857Y-99332142D01*
X143011857Y-99332142D02*
X142964238Y-99427380D01*
X142964238Y-99427380D02*
X142916619Y-99475000D01*
X142916619Y-99475000D02*
X142821381Y-99522619D01*
X142821381Y-99522619D02*
X142535667Y-99522619D01*
X142535667Y-99522619D02*
X142440429Y-99475000D01*
X142440429Y-99475000D02*
X142392810Y-99427380D01*
D10*
%TO.C,SW2*%
X102806667Y-99245000D02*
X102949524Y-99292619D01*
X102949524Y-99292619D02*
X103187619Y-99292619D01*
X103187619Y-99292619D02*
X103282857Y-99245000D01*
X103282857Y-99245000D02*
X103330476Y-99197380D01*
X103330476Y-99197380D02*
X103378095Y-99102142D01*
X103378095Y-99102142D02*
X103378095Y-99006904D01*
X103378095Y-99006904D02*
X103330476Y-98911666D01*
X103330476Y-98911666D02*
X103282857Y-98864047D01*
X103282857Y-98864047D02*
X103187619Y-98816428D01*
X103187619Y-98816428D02*
X102997143Y-98768809D01*
X102997143Y-98768809D02*
X102901905Y-98721190D01*
X102901905Y-98721190D02*
X102854286Y-98673571D01*
X102854286Y-98673571D02*
X102806667Y-98578333D01*
X102806667Y-98578333D02*
X102806667Y-98483095D01*
X102806667Y-98483095D02*
X102854286Y-98387857D01*
X102854286Y-98387857D02*
X102901905Y-98340238D01*
X102901905Y-98340238D02*
X102997143Y-98292619D01*
X102997143Y-98292619D02*
X103235238Y-98292619D01*
X103235238Y-98292619D02*
X103378095Y-98340238D01*
X103711429Y-98292619D02*
X103949524Y-99292619D01*
X103949524Y-99292619D02*
X104140000Y-98578333D01*
X104140000Y-98578333D02*
X104330476Y-99292619D01*
X104330476Y-99292619D02*
X104568572Y-98292619D01*
X104901905Y-98387857D02*
X104949524Y-98340238D01*
X104949524Y-98340238D02*
X105044762Y-98292619D01*
X105044762Y-98292619D02*
X105282857Y-98292619D01*
X105282857Y-98292619D02*
X105378095Y-98340238D01*
X105378095Y-98340238D02*
X105425714Y-98387857D01*
X105425714Y-98387857D02*
X105473333Y-98483095D01*
X105473333Y-98483095D02*
X105473333Y-98578333D01*
X105473333Y-98578333D02*
X105425714Y-98721190D01*
X105425714Y-98721190D02*
X104854286Y-99292619D01*
X104854286Y-99292619D02*
X105473333Y-99292619D01*
%TO.C,SW1*%
X111573815Y-99241996D02*
X111716672Y-99289615D01*
X111716672Y-99289615D02*
X111954767Y-99289615D01*
X111954767Y-99289615D02*
X112050005Y-99241996D01*
X112050005Y-99241996D02*
X112097624Y-99194376D01*
X112097624Y-99194376D02*
X112145243Y-99099138D01*
X112145243Y-99099138D02*
X112145243Y-99003900D01*
X112145243Y-99003900D02*
X112097624Y-98908662D01*
X112097624Y-98908662D02*
X112050005Y-98861043D01*
X112050005Y-98861043D02*
X111954767Y-98813424D01*
X111954767Y-98813424D02*
X111764291Y-98765805D01*
X111764291Y-98765805D02*
X111669053Y-98718186D01*
X111669053Y-98718186D02*
X111621434Y-98670567D01*
X111621434Y-98670567D02*
X111573815Y-98575329D01*
X111573815Y-98575329D02*
X111573815Y-98480091D01*
X111573815Y-98480091D02*
X111621434Y-98384853D01*
X111621434Y-98384853D02*
X111669053Y-98337234D01*
X111669053Y-98337234D02*
X111764291Y-98289615D01*
X111764291Y-98289615D02*
X112002386Y-98289615D01*
X112002386Y-98289615D02*
X112145243Y-98337234D01*
X112478577Y-98289615D02*
X112716672Y-99289615D01*
X112716672Y-99289615D02*
X112907148Y-98575329D01*
X112907148Y-98575329D02*
X113097624Y-99289615D01*
X113097624Y-99289615D02*
X113335720Y-98289615D01*
X114240481Y-99289615D02*
X113669053Y-99289615D01*
X113954767Y-99289615D02*
X113954767Y-98289615D01*
X113954767Y-98289615D02*
X113859529Y-98432472D01*
X113859529Y-98432472D02*
X113764291Y-98527710D01*
X113764291Y-98527710D02*
X113669053Y-98575329D01*
%TO.C,R5*%
X145072619Y-144946666D02*
X144596428Y-145279999D01*
X145072619Y-145518094D02*
X144072619Y-145518094D01*
X144072619Y-145518094D02*
X144072619Y-145137142D01*
X144072619Y-145137142D02*
X144120238Y-145041904D01*
X144120238Y-145041904D02*
X144167857Y-144994285D01*
X144167857Y-144994285D02*
X144263095Y-144946666D01*
X144263095Y-144946666D02*
X144405952Y-144946666D01*
X144405952Y-144946666D02*
X144501190Y-144994285D01*
X144501190Y-144994285D02*
X144548809Y-145041904D01*
X144548809Y-145041904D02*
X144596428Y-145137142D01*
X144596428Y-145137142D02*
X144596428Y-145518094D01*
X144072619Y-144041904D02*
X144072619Y-144518094D01*
X144072619Y-144518094D02*
X144548809Y-144565713D01*
X144548809Y-144565713D02*
X144501190Y-144518094D01*
X144501190Y-144518094D02*
X144453571Y-144422856D01*
X144453571Y-144422856D02*
X144453571Y-144184761D01*
X144453571Y-144184761D02*
X144501190Y-144089523D01*
X144501190Y-144089523D02*
X144548809Y-144041904D01*
X144548809Y-144041904D02*
X144644047Y-143994285D01*
X144644047Y-143994285D02*
X144882142Y-143994285D01*
X144882142Y-143994285D02*
X144977380Y-144041904D01*
X144977380Y-144041904D02*
X145025000Y-144089523D01*
X145025000Y-144089523D02*
X145072619Y-144184761D01*
X145072619Y-144184761D02*
X145072619Y-144422856D01*
X145072619Y-144422856D02*
X145025000Y-144518094D01*
X145025000Y-144518094D02*
X144977380Y-144565713D01*
%TO.C,R4*%
X109871394Y-137086970D02*
X109395203Y-137420303D01*
X109871394Y-137658398D02*
X108871394Y-137658398D01*
X108871394Y-137658398D02*
X108871394Y-137277446D01*
X108871394Y-137277446D02*
X108919013Y-137182208D01*
X108919013Y-137182208D02*
X108966632Y-137134589D01*
X108966632Y-137134589D02*
X109061870Y-137086970D01*
X109061870Y-137086970D02*
X109204727Y-137086970D01*
X109204727Y-137086970D02*
X109299965Y-137134589D01*
X109299965Y-137134589D02*
X109347584Y-137182208D01*
X109347584Y-137182208D02*
X109395203Y-137277446D01*
X109395203Y-137277446D02*
X109395203Y-137658398D01*
X109204727Y-136229827D02*
X109871394Y-136229827D01*
X108823775Y-136467922D02*
X109538060Y-136706017D01*
X109538060Y-136706017D02*
X109538060Y-136086970D01*
%TO.C,R3*%
X115895025Y-136942258D02*
X115418834Y-137275591D01*
X115895025Y-137513686D02*
X114895025Y-137513686D01*
X114895025Y-137513686D02*
X114895025Y-137132734D01*
X114895025Y-137132734D02*
X114942644Y-137037496D01*
X114942644Y-137037496D02*
X114990263Y-136989877D01*
X114990263Y-136989877D02*
X115085501Y-136942258D01*
X115085501Y-136942258D02*
X115228358Y-136942258D01*
X115228358Y-136942258D02*
X115323596Y-136989877D01*
X115323596Y-136989877D02*
X115371215Y-137037496D01*
X115371215Y-137037496D02*
X115418834Y-137132734D01*
X115418834Y-137132734D02*
X115418834Y-137513686D01*
X114895025Y-136608924D02*
X114895025Y-135989877D01*
X114895025Y-135989877D02*
X115275977Y-136323210D01*
X115275977Y-136323210D02*
X115275977Y-136180353D01*
X115275977Y-136180353D02*
X115323596Y-136085115D01*
X115323596Y-136085115D02*
X115371215Y-136037496D01*
X115371215Y-136037496D02*
X115466453Y-135989877D01*
X115466453Y-135989877D02*
X115704548Y-135989877D01*
X115704548Y-135989877D02*
X115799786Y-136037496D01*
X115799786Y-136037496D02*
X115847406Y-136085115D01*
X115847406Y-136085115D02*
X115895025Y-136180353D01*
X115895025Y-136180353D02*
X115895025Y-136466067D01*
X115895025Y-136466067D02*
X115847406Y-136561305D01*
X115847406Y-136561305D02*
X115799786Y-136608924D01*
%TO.C,R2*%
X105030403Y-116851407D02*
X104554212Y-117184740D01*
X105030403Y-117422835D02*
X104030403Y-117422835D01*
X104030403Y-117422835D02*
X104030403Y-117041883D01*
X104030403Y-117041883D02*
X104078022Y-116946645D01*
X104078022Y-116946645D02*
X104125641Y-116899026D01*
X104125641Y-116899026D02*
X104220879Y-116851407D01*
X104220879Y-116851407D02*
X104363736Y-116851407D01*
X104363736Y-116851407D02*
X104458974Y-116899026D01*
X104458974Y-116899026D02*
X104506593Y-116946645D01*
X104506593Y-116946645D02*
X104554212Y-117041883D01*
X104554212Y-117041883D02*
X104554212Y-117422835D01*
X104125641Y-116470454D02*
X104078022Y-116422835D01*
X104078022Y-116422835D02*
X104030403Y-116327597D01*
X104030403Y-116327597D02*
X104030403Y-116089502D01*
X104030403Y-116089502D02*
X104078022Y-115994264D01*
X104078022Y-115994264D02*
X104125641Y-115946645D01*
X104125641Y-115946645D02*
X104220879Y-115899026D01*
X104220879Y-115899026D02*
X104316117Y-115899026D01*
X104316117Y-115899026D02*
X104458974Y-115946645D01*
X104458974Y-115946645D02*
X105030403Y-116518073D01*
X105030403Y-116518073D02*
X105030403Y-115899026D01*
%TO.C,R1*%
X110927411Y-116851407D02*
X110451220Y-117184740D01*
X110927411Y-117422835D02*
X109927411Y-117422835D01*
X109927411Y-117422835D02*
X109927411Y-117041883D01*
X109927411Y-117041883D02*
X109975030Y-116946645D01*
X109975030Y-116946645D02*
X110022649Y-116899026D01*
X110022649Y-116899026D02*
X110117887Y-116851407D01*
X110117887Y-116851407D02*
X110260744Y-116851407D01*
X110260744Y-116851407D02*
X110355982Y-116899026D01*
X110355982Y-116899026D02*
X110403601Y-116946645D01*
X110403601Y-116946645D02*
X110451220Y-117041883D01*
X110451220Y-117041883D02*
X110451220Y-117422835D01*
X110927411Y-115899026D02*
X110927411Y-116470454D01*
X110927411Y-116184740D02*
X109927411Y-116184740D01*
X109927411Y-116184740D02*
X110070268Y-116279978D01*
X110070268Y-116279978D02*
X110165506Y-116375216D01*
X110165506Y-116375216D02*
X110213125Y-116470454D01*
%TO.C,J4*%
X146986666Y-110992619D02*
X146986666Y-111706904D01*
X146986666Y-111706904D02*
X146939047Y-111849761D01*
X146939047Y-111849761D02*
X146843809Y-111945000D01*
X146843809Y-111945000D02*
X146700952Y-111992619D01*
X146700952Y-111992619D02*
X146605714Y-111992619D01*
X147891428Y-111325952D02*
X147891428Y-111992619D01*
X147653333Y-110945000D02*
X147415238Y-111659285D01*
X147415238Y-111659285D02*
X148034285Y-111659285D01*
%TO.C,J3*%
X101262160Y-111416208D02*
X101262160Y-112130493D01*
X101262160Y-112130493D02*
X101214541Y-112273350D01*
X101214541Y-112273350D02*
X101119303Y-112368589D01*
X101119303Y-112368589D02*
X100976446Y-112416208D01*
X100976446Y-112416208D02*
X100881208Y-112416208D01*
X101643113Y-111416208D02*
X102262160Y-111416208D01*
X102262160Y-111416208D02*
X101928827Y-111797160D01*
X101928827Y-111797160D02*
X102071684Y-111797160D01*
X102071684Y-111797160D02*
X102166922Y-111844779D01*
X102166922Y-111844779D02*
X102214541Y-111892398D01*
X102214541Y-111892398D02*
X102262160Y-111987636D01*
X102262160Y-111987636D02*
X102262160Y-112225731D01*
X102262160Y-112225731D02*
X102214541Y-112320969D01*
X102214541Y-112320969D02*
X102166922Y-112368589D01*
X102166922Y-112368589D02*
X102071684Y-112416208D01*
X102071684Y-112416208D02*
X101785970Y-112416208D01*
X101785970Y-112416208D02*
X101690732Y-112368589D01*
X101690732Y-112368589D02*
X101643113Y-112320969D01*
%TO.C,J2*%
X146986666Y-103372619D02*
X146986666Y-104086904D01*
X146986666Y-104086904D02*
X146939047Y-104229761D01*
X146939047Y-104229761D02*
X146843809Y-104325000D01*
X146843809Y-104325000D02*
X146700952Y-104372619D01*
X146700952Y-104372619D02*
X146605714Y-104372619D01*
X147415238Y-103467857D02*
X147462857Y-103420238D01*
X147462857Y-103420238D02*
X147558095Y-103372619D01*
X147558095Y-103372619D02*
X147796190Y-103372619D01*
X147796190Y-103372619D02*
X147891428Y-103420238D01*
X147891428Y-103420238D02*
X147939047Y-103467857D01*
X147939047Y-103467857D02*
X147986666Y-103563095D01*
X147986666Y-103563095D02*
X147986666Y-103658333D01*
X147986666Y-103658333D02*
X147939047Y-103801190D01*
X147939047Y-103801190D02*
X147367619Y-104372619D01*
X147367619Y-104372619D02*
X147986666Y-104372619D01*
%TO.C,J1*%
X115861558Y-102271016D02*
X116575843Y-102271016D01*
X116575843Y-102271016D02*
X116718700Y-102318635D01*
X116718700Y-102318635D02*
X116813939Y-102413873D01*
X116813939Y-102413873D02*
X116861558Y-102556730D01*
X116861558Y-102556730D02*
X116861558Y-102651968D01*
X116861558Y-101271016D02*
X116861558Y-101842444D01*
X116861558Y-101556730D02*
X115861558Y-101556730D01*
X115861558Y-101556730D02*
X116004415Y-101651968D01*
X116004415Y-101651968D02*
X116099653Y-101747206D01*
X116099653Y-101747206D02*
X116147272Y-101842444D01*
%TO.C,D3*%
X131674933Y-145992178D02*
X130674933Y-145992178D01*
X130674933Y-145992178D02*
X130674933Y-145754083D01*
X130674933Y-145754083D02*
X130722552Y-145611226D01*
X130722552Y-145611226D02*
X130817790Y-145515988D01*
X130817790Y-145515988D02*
X130913028Y-145468369D01*
X130913028Y-145468369D02*
X131103504Y-145420750D01*
X131103504Y-145420750D02*
X131246361Y-145420750D01*
X131246361Y-145420750D02*
X131436837Y-145468369D01*
X131436837Y-145468369D02*
X131532075Y-145515988D01*
X131532075Y-145515988D02*
X131627314Y-145611226D01*
X131627314Y-145611226D02*
X131674933Y-145754083D01*
X131674933Y-145754083D02*
X131674933Y-145992178D01*
X130674933Y-145087416D02*
X130674933Y-144468369D01*
X130674933Y-144468369D02*
X131055885Y-144801702D01*
X131055885Y-144801702D02*
X131055885Y-144658845D01*
X131055885Y-144658845D02*
X131103504Y-144563607D01*
X131103504Y-144563607D02*
X131151123Y-144515988D01*
X131151123Y-144515988D02*
X131246361Y-144468369D01*
X131246361Y-144468369D02*
X131484456Y-144468369D01*
X131484456Y-144468369D02*
X131579694Y-144515988D01*
X131579694Y-144515988D02*
X131627314Y-144563607D01*
X131627314Y-144563607D02*
X131674933Y-144658845D01*
X131674933Y-144658845D02*
X131674933Y-144944559D01*
X131674933Y-144944559D02*
X131627314Y-145039797D01*
X131627314Y-145039797D02*
X131579694Y-145087416D01*
%TO.C,D2*%
X104476581Y-128543787D02*
X103476581Y-128543787D01*
X103476581Y-128543787D02*
X103476581Y-128305692D01*
X103476581Y-128305692D02*
X103524200Y-128162835D01*
X103524200Y-128162835D02*
X103619438Y-128067597D01*
X103619438Y-128067597D02*
X103714676Y-128019978D01*
X103714676Y-128019978D02*
X103905152Y-127972359D01*
X103905152Y-127972359D02*
X104048009Y-127972359D01*
X104048009Y-127972359D02*
X104238485Y-128019978D01*
X104238485Y-128019978D02*
X104333723Y-128067597D01*
X104333723Y-128067597D02*
X104428962Y-128162835D01*
X104428962Y-128162835D02*
X104476581Y-128305692D01*
X104476581Y-128305692D02*
X104476581Y-128543787D01*
X103571819Y-127591406D02*
X103524200Y-127543787D01*
X103524200Y-127543787D02*
X103476581Y-127448549D01*
X103476581Y-127448549D02*
X103476581Y-127210454D01*
X103476581Y-127210454D02*
X103524200Y-127115216D01*
X103524200Y-127115216D02*
X103571819Y-127067597D01*
X103571819Y-127067597D02*
X103667057Y-127019978D01*
X103667057Y-127019978D02*
X103762295Y-127019978D01*
X103762295Y-127019978D02*
X103905152Y-127067597D01*
X103905152Y-127067597D02*
X104476581Y-127639025D01*
X104476581Y-127639025D02*
X104476581Y-127019978D01*
%TO.C,D1*%
X110590657Y-128471431D02*
X109590657Y-128471431D01*
X109590657Y-128471431D02*
X109590657Y-128233336D01*
X109590657Y-128233336D02*
X109638276Y-128090479D01*
X109638276Y-128090479D02*
X109733514Y-127995241D01*
X109733514Y-127995241D02*
X109828752Y-127947622D01*
X109828752Y-127947622D02*
X110019228Y-127900003D01*
X110019228Y-127900003D02*
X110162085Y-127900003D01*
X110162085Y-127900003D02*
X110352561Y-127947622D01*
X110352561Y-127947622D02*
X110447799Y-127995241D01*
X110447799Y-127995241D02*
X110543038Y-128090479D01*
X110543038Y-128090479D02*
X110590657Y-128233336D01*
X110590657Y-128233336D02*
X110590657Y-128471431D01*
X110590657Y-126947622D02*
X110590657Y-127519050D01*
X110590657Y-127233336D02*
X109590657Y-127233336D01*
X109590657Y-127233336D02*
X109733514Y-127328574D01*
X109733514Y-127328574D02*
X109828752Y-127423812D01*
X109828752Y-127423812D02*
X109876371Y-127519050D01*
%TO.C,C6*%
X137152413Y-128780807D02*
X137104794Y-128828427D01*
X137104794Y-128828427D02*
X136961937Y-128876046D01*
X136961937Y-128876046D02*
X136866699Y-128876046D01*
X136866699Y-128876046D02*
X136723842Y-128828427D01*
X136723842Y-128828427D02*
X136628604Y-128733188D01*
X136628604Y-128733188D02*
X136580985Y-128637950D01*
X136580985Y-128637950D02*
X136533366Y-128447474D01*
X136533366Y-128447474D02*
X136533366Y-128304617D01*
X136533366Y-128304617D02*
X136580985Y-128114141D01*
X136580985Y-128114141D02*
X136628604Y-128018903D01*
X136628604Y-128018903D02*
X136723842Y-127923665D01*
X136723842Y-127923665D02*
X136866699Y-127876046D01*
X136866699Y-127876046D02*
X136961937Y-127876046D01*
X136961937Y-127876046D02*
X137104794Y-127923665D01*
X137104794Y-127923665D02*
X137152413Y-127971284D01*
X138009556Y-127876046D02*
X137819080Y-127876046D01*
X137819080Y-127876046D02*
X137723842Y-127923665D01*
X137723842Y-127923665D02*
X137676223Y-127971284D01*
X137676223Y-127971284D02*
X137580985Y-128114141D01*
X137580985Y-128114141D02*
X137533366Y-128304617D01*
X137533366Y-128304617D02*
X137533366Y-128685569D01*
X137533366Y-128685569D02*
X137580985Y-128780807D01*
X137580985Y-128780807D02*
X137628604Y-128828427D01*
X137628604Y-128828427D02*
X137723842Y-128876046D01*
X137723842Y-128876046D02*
X137914318Y-128876046D01*
X137914318Y-128876046D02*
X138009556Y-128828427D01*
X138009556Y-128828427D02*
X138057175Y-128780807D01*
X138057175Y-128780807D02*
X138104794Y-128685569D01*
X138104794Y-128685569D02*
X138104794Y-128447474D01*
X138104794Y-128447474D02*
X138057175Y-128352236D01*
X138057175Y-128352236D02*
X138009556Y-128304617D01*
X138009556Y-128304617D02*
X137914318Y-128256998D01*
X137914318Y-128256998D02*
X137723842Y-128256998D01*
X137723842Y-128256998D02*
X137628604Y-128304617D01*
X137628604Y-128304617D02*
X137580985Y-128352236D01*
X137580985Y-128352236D02*
X137533366Y-128447474D01*
%TO.C,C5*%
X137170502Y-123173223D02*
X137122883Y-123220843D01*
X137122883Y-123220843D02*
X136980026Y-123268462D01*
X136980026Y-123268462D02*
X136884788Y-123268462D01*
X136884788Y-123268462D02*
X136741931Y-123220843D01*
X136741931Y-123220843D02*
X136646693Y-123125604D01*
X136646693Y-123125604D02*
X136599074Y-123030366D01*
X136599074Y-123030366D02*
X136551455Y-122839890D01*
X136551455Y-122839890D02*
X136551455Y-122697033D01*
X136551455Y-122697033D02*
X136599074Y-122506557D01*
X136599074Y-122506557D02*
X136646693Y-122411319D01*
X136646693Y-122411319D02*
X136741931Y-122316081D01*
X136741931Y-122316081D02*
X136884788Y-122268462D01*
X136884788Y-122268462D02*
X136980026Y-122268462D01*
X136980026Y-122268462D02*
X137122883Y-122316081D01*
X137122883Y-122316081D02*
X137170502Y-122363700D01*
X138075264Y-122268462D02*
X137599074Y-122268462D01*
X137599074Y-122268462D02*
X137551455Y-122744652D01*
X137551455Y-122744652D02*
X137599074Y-122697033D01*
X137599074Y-122697033D02*
X137694312Y-122649414D01*
X137694312Y-122649414D02*
X137932407Y-122649414D01*
X137932407Y-122649414D02*
X138027645Y-122697033D01*
X138027645Y-122697033D02*
X138075264Y-122744652D01*
X138075264Y-122744652D02*
X138122883Y-122839890D01*
X138122883Y-122839890D02*
X138122883Y-123077985D01*
X138122883Y-123077985D02*
X138075264Y-123173223D01*
X138075264Y-123173223D02*
X138027645Y-123220843D01*
X138027645Y-123220843D02*
X137932407Y-123268462D01*
X137932407Y-123268462D02*
X137694312Y-123268462D01*
X137694312Y-123268462D02*
X137599074Y-123220843D01*
X137599074Y-123220843D02*
X137551455Y-123173223D01*
%TO.C,C4*%
X139015578Y-110281787D02*
X138967959Y-110329407D01*
X138967959Y-110329407D02*
X138825102Y-110377026D01*
X138825102Y-110377026D02*
X138729864Y-110377026D01*
X138729864Y-110377026D02*
X138587007Y-110329407D01*
X138587007Y-110329407D02*
X138491769Y-110234168D01*
X138491769Y-110234168D02*
X138444150Y-110138930D01*
X138444150Y-110138930D02*
X138396531Y-109948454D01*
X138396531Y-109948454D02*
X138396531Y-109805597D01*
X138396531Y-109805597D02*
X138444150Y-109615121D01*
X138444150Y-109615121D02*
X138491769Y-109519883D01*
X138491769Y-109519883D02*
X138587007Y-109424645D01*
X138587007Y-109424645D02*
X138729864Y-109377026D01*
X138729864Y-109377026D02*
X138825102Y-109377026D01*
X138825102Y-109377026D02*
X138967959Y-109424645D01*
X138967959Y-109424645D02*
X139015578Y-109472264D01*
X139872721Y-109710359D02*
X139872721Y-110377026D01*
X139634626Y-109329407D02*
X139396531Y-110043692D01*
X139396531Y-110043692D02*
X140015578Y-110043692D01*
%TO.C,C3*%
X133435486Y-116258906D02*
X133387867Y-116306526D01*
X133387867Y-116306526D02*
X133245010Y-116354145D01*
X133245010Y-116354145D02*
X133149772Y-116354145D01*
X133149772Y-116354145D02*
X133006915Y-116306526D01*
X133006915Y-116306526D02*
X132911677Y-116211287D01*
X132911677Y-116211287D02*
X132864058Y-116116049D01*
X132864058Y-116116049D02*
X132816439Y-115925573D01*
X132816439Y-115925573D02*
X132816439Y-115782716D01*
X132816439Y-115782716D02*
X132864058Y-115592240D01*
X132864058Y-115592240D02*
X132911677Y-115497002D01*
X132911677Y-115497002D02*
X133006915Y-115401764D01*
X133006915Y-115401764D02*
X133149772Y-115354145D01*
X133149772Y-115354145D02*
X133245010Y-115354145D01*
X133245010Y-115354145D02*
X133387867Y-115401764D01*
X133387867Y-115401764D02*
X133435486Y-115449383D01*
X133768820Y-115354145D02*
X134387867Y-115354145D01*
X134387867Y-115354145D02*
X134054534Y-115735097D01*
X134054534Y-115735097D02*
X134197391Y-115735097D01*
X134197391Y-115735097D02*
X134292629Y-115782716D01*
X134292629Y-115782716D02*
X134340248Y-115830335D01*
X134340248Y-115830335D02*
X134387867Y-115925573D01*
X134387867Y-115925573D02*
X134387867Y-116163668D01*
X134387867Y-116163668D02*
X134340248Y-116258906D01*
X134340248Y-116258906D02*
X134292629Y-116306526D01*
X134292629Y-116306526D02*
X134197391Y-116354145D01*
X134197391Y-116354145D02*
X133911677Y-116354145D01*
X133911677Y-116354145D02*
X133816439Y-116306526D01*
X133816439Y-116306526D02*
X133768820Y-116258906D01*
%TO.C,C2*%
X134963646Y-137517785D02*
X134916027Y-137565405D01*
X134916027Y-137565405D02*
X134773170Y-137613024D01*
X134773170Y-137613024D02*
X134677932Y-137613024D01*
X134677932Y-137613024D02*
X134535075Y-137565405D01*
X134535075Y-137565405D02*
X134439837Y-137470166D01*
X134439837Y-137470166D02*
X134392218Y-137374928D01*
X134392218Y-137374928D02*
X134344599Y-137184452D01*
X134344599Y-137184452D02*
X134344599Y-137041595D01*
X134344599Y-137041595D02*
X134392218Y-136851119D01*
X134392218Y-136851119D02*
X134439837Y-136755881D01*
X134439837Y-136755881D02*
X134535075Y-136660643D01*
X134535075Y-136660643D02*
X134677932Y-136613024D01*
X134677932Y-136613024D02*
X134773170Y-136613024D01*
X134773170Y-136613024D02*
X134916027Y-136660643D01*
X134916027Y-136660643D02*
X134963646Y-136708262D01*
X135344599Y-136708262D02*
X135392218Y-136660643D01*
X135392218Y-136660643D02*
X135487456Y-136613024D01*
X135487456Y-136613024D02*
X135725551Y-136613024D01*
X135725551Y-136613024D02*
X135820789Y-136660643D01*
X135820789Y-136660643D02*
X135868408Y-136708262D01*
X135868408Y-136708262D02*
X135916027Y-136803500D01*
X135916027Y-136803500D02*
X135916027Y-136898738D01*
X135916027Y-136898738D02*
X135868408Y-137041595D01*
X135868408Y-137041595D02*
X135296980Y-137613024D01*
X135296980Y-137613024D02*
X135916027Y-137613024D01*
D12*
%TO.C,C1*%
X112410593Y-149475838D02*
X108770593Y-149475838D01*
X112410593Y-147135838D02*
X108770593Y-147135838D01*
X112410593Y-147380838D02*
X112410593Y-147135838D01*
X108770593Y-147380838D02*
X108770593Y-147135838D01*
X108770593Y-149475838D02*
X108770593Y-149230838D01*
X112410593Y-149475838D02*
X112410593Y-149230838D01*
%TO.C,U2*%
X141464813Y-114673902D02*
X141464813Y-110823902D01*
X141454935Y-110785291D02*
G75*
G03*
X141464813Y-114673902I-1690122J-1948611D01*
G01*
%TO.C,U1*%
X122434094Y-146389603D02*
X127734094Y-146389603D01*
X130224094Y-110649603D02*
X119944094Y-110649603D01*
X130224094Y-146449603D02*
X130224094Y-110649603D01*
X127734094Y-110709603D02*
X126084094Y-110709603D01*
X119944094Y-146449603D02*
X130224094Y-146449603D01*
X127734094Y-146389603D02*
X127734094Y-110709603D01*
X122434094Y-110709603D02*
X122434094Y-146389603D01*
X124084094Y-110709603D02*
X122434094Y-110709603D01*
X119944094Y-110649603D02*
X119944094Y-146449603D01*
X124084094Y-110709603D02*
G75*
G03*
X126084094Y-110709603I1000000J0D01*
G01*
D13*
%TO.C,SW3*%
X135678524Y-100524073D02*
X135678524Y-104524073D01*
X135678524Y-104524073D02*
X147678524Y-104524073D01*
X147678524Y-100524073D02*
X135678524Y-100524073D01*
X147678524Y-104524073D02*
X147678524Y-100524073D01*
D12*
%TO.C,SW2*%
X100315000Y-100300000D02*
X100315000Y-108010000D01*
X100315000Y-100300000D02*
X107965000Y-100300000D01*
X100315000Y-108010000D02*
X107965000Y-108010000D01*
X107965000Y-100300000D02*
X107965000Y-108010000D01*
%TO.C,SW1*%
X109082148Y-100296996D02*
X109082148Y-108006996D01*
X109082148Y-100296996D02*
X116732148Y-100296996D01*
X109082148Y-108006996D02*
X116732148Y-108006996D01*
X116732148Y-100296996D02*
X116732148Y-108006996D01*
%TO.C,R5*%
X140870000Y-148050000D02*
X141200000Y-148050000D01*
X143610000Y-141510000D02*
X143610000Y-148050000D01*
X140870000Y-141510000D02*
X140870000Y-148050000D01*
X141200000Y-141510000D02*
X140870000Y-141510000D01*
X143280000Y-141510000D02*
X143610000Y-141510000D01*
X143610000Y-148050000D02*
X143280000Y-148050000D01*
%TO.C,R4*%
X108408775Y-140190304D02*
X108078775Y-140190304D01*
X108078775Y-133650304D02*
X108408775Y-133650304D01*
X105998775Y-133650304D02*
X105668775Y-133650304D01*
X105668775Y-133650304D02*
X105668775Y-140190304D01*
X108408775Y-133650304D02*
X108408775Y-140190304D01*
X105668775Y-140190304D02*
X105998775Y-140190304D01*
%TO.C,R3*%
X111692406Y-140045592D02*
X112022406Y-140045592D01*
X114432406Y-133505592D02*
X114432406Y-140045592D01*
X111692406Y-133505592D02*
X111692406Y-140045592D01*
X112022406Y-133505592D02*
X111692406Y-133505592D01*
X114102406Y-133505592D02*
X114432406Y-133505592D01*
X114432406Y-140045592D02*
X114102406Y-140045592D01*
%TO.C,R2*%
X105567784Y-113414741D02*
X105897784Y-113414741D01*
X105897784Y-119954741D02*
X105567784Y-119954741D01*
X107977784Y-119954741D02*
X108307784Y-119954741D01*
X108307784Y-119954741D02*
X108307784Y-113414741D01*
X105567784Y-119954741D02*
X105567784Y-113414741D01*
X108307784Y-113414741D02*
X107977784Y-113414741D01*
%TO.C,R1*%
X111464792Y-113414741D02*
X111794792Y-113414741D01*
X111794792Y-119954741D02*
X111464792Y-119954741D01*
X113874792Y-119954741D02*
X114204792Y-119954741D01*
X114204792Y-119954741D02*
X114204792Y-113414741D01*
X111464792Y-119954741D02*
X111464792Y-113414741D01*
X114204792Y-113414741D02*
X113874792Y-113414741D01*
%TO.C,J4*%
X147320000Y-112970000D02*
X148650000Y-112970000D01*
X145990000Y-115570000D02*
X145990000Y-143570000D01*
X145990000Y-143570000D02*
X148650000Y-143570000D01*
X145990000Y-115570000D02*
X148650000Y-115570000D01*
X148650000Y-115570000D02*
X148650000Y-143570000D01*
X148650000Y-112970000D02*
X148650000Y-114300000D01*
%TO.C,J3*%
X101595494Y-113393589D02*
X102925494Y-113393589D01*
X100265494Y-115993589D02*
X100265494Y-143993589D01*
X100265494Y-143993589D02*
X102925494Y-143993589D01*
X100265494Y-115993589D02*
X102925494Y-115993589D01*
X102925494Y-115993589D02*
X102925494Y-143993589D01*
X102925494Y-113393589D02*
X102925494Y-114723589D01*
%TO.C,J2*%
X145990000Y-107950000D02*
X145990000Y-110550000D01*
X148650000Y-107950000D02*
X148650000Y-110550000D01*
X145990000Y-107950000D02*
X148650000Y-107950000D01*
X147320000Y-105350000D02*
X148650000Y-105350000D01*
X148650000Y-105350000D02*
X148650000Y-106680000D01*
X145990000Y-110550000D02*
X148650000Y-110550000D01*
%TO.C,J1*%
X133198939Y-103267683D02*
X133198939Y-100607683D01*
X120438939Y-103267683D02*
X133198939Y-103267683D01*
X117838939Y-100607683D02*
X119168939Y-100607683D01*
X120438939Y-100607683D02*
X133198939Y-100607683D01*
X120438939Y-103267683D02*
X120438939Y-100607683D01*
X117838939Y-101937683D02*
X117838939Y-100607683D01*
%TO.C,D3*%
X132936314Y-146814084D02*
X133092314Y-146814084D01*
X135252314Y-146814084D02*
X135408314Y-146814084D01*
X133092478Y-144212955D02*
G75*
G03*
X133092315Y-146295044I1079836J-1041129D01*
G01*
X135407829Y-146814083D02*
G75*
G03*
X135250922Y-143581750I-1235515J1559999D01*
G01*
X135252313Y-146295044D02*
G75*
G03*
X135252150Y-144212955I-1079999J1040960D01*
G01*
X133093706Y-143581750D02*
G75*
G03*
X132936799Y-146814083I1078608J-1672334D01*
G01*
%TO.C,D2*%
X105737962Y-129365693D02*
X105893962Y-129365693D01*
X108053962Y-129365693D02*
X108209962Y-129365693D01*
X105894126Y-126764564D02*
G75*
G03*
X105893963Y-128846653I1079836J-1041129D01*
G01*
X108209477Y-129365692D02*
G75*
G03*
X108052570Y-126133359I-1235515J1559999D01*
G01*
X108053961Y-128846653D02*
G75*
G03*
X108053798Y-126764564I-1079999J1040960D01*
G01*
X105895354Y-126133359D02*
G75*
G03*
X105738447Y-129365692I1078608J-1672334D01*
G01*
%TO.C,D1*%
X111852038Y-129293337D02*
X112008038Y-129293337D01*
X114168038Y-129293337D02*
X114324038Y-129293337D01*
X112008202Y-126692208D02*
G75*
G03*
X112008039Y-128774297I1079836J-1041129D01*
G01*
X114323553Y-129293336D02*
G75*
G03*
X114166646Y-126061003I-1235515J1559999D01*
G01*
X114168037Y-128774297D02*
G75*
G03*
X114167874Y-126692208I-1079999J1040960D01*
G01*
X112009430Y-126061003D02*
G75*
G03*
X111852523Y-129293336I1078608J-1672334D01*
G01*
%TO.C,C6*%
X139989080Y-127284427D02*
X139989080Y-126618427D01*
X134649080Y-127284427D02*
X134649080Y-126618427D01*
X134649080Y-124508427D02*
X134649080Y-123842427D01*
X139989080Y-127284427D02*
X134649080Y-127284427D01*
X139989080Y-124508427D02*
X139989080Y-123842427D01*
X139989080Y-123842427D02*
X134649080Y-123842427D01*
%TO.C,C5*%
X140007169Y-118234843D02*
X134667169Y-118234843D01*
X140007169Y-118900843D02*
X140007169Y-118234843D01*
X140007169Y-121676843D02*
X134667169Y-121676843D01*
X134667169Y-118900843D02*
X134667169Y-118234843D01*
X134667169Y-121676843D02*
X134667169Y-121010843D01*
X140007169Y-121676843D02*
X140007169Y-121010843D01*
%TO.C,C4*%
X141852245Y-108785407D02*
X141852245Y-108119407D01*
X136512245Y-108785407D02*
X136512245Y-108119407D01*
X136512245Y-106009407D02*
X136512245Y-105343407D01*
X141852245Y-108785407D02*
X136512245Y-108785407D01*
X141852245Y-106009407D02*
X141852245Y-105343407D01*
X141852245Y-105343407D02*
X136512245Y-105343407D01*
%TO.C,C3*%
X135422153Y-114761526D02*
X135422153Y-114516526D01*
X131782153Y-114761526D02*
X131782153Y-114516526D01*
X131782153Y-112666526D02*
X131782153Y-112421526D01*
X135422153Y-112666526D02*
X135422153Y-112421526D01*
X135422153Y-112421526D02*
X131782153Y-112421526D01*
X135422153Y-114761526D02*
X131782153Y-114761526D01*
%TO.C,C2*%
X137800313Y-132579405D02*
X132460313Y-132579405D01*
X137800313Y-133245405D02*
X137800313Y-132579405D01*
X137800313Y-136021405D02*
X132460313Y-136021405D01*
X132460313Y-133245405D02*
X132460313Y-132579405D01*
X132460313Y-136021405D02*
X132460313Y-135355405D01*
X137800313Y-136021405D02*
X137800313Y-135355405D01*
%TD*%
D14*
X150000000Y-100000000D02*
X100000000Y-100000000D01*
X150000000Y-150000000D02*
X150000000Y-100000000D01*
X100000000Y-150000000D02*
X150000000Y-150000000D01*
X100000000Y-100000000D02*
X100000000Y-150000000D01*
M02*
