%TF.GenerationSoftware,KiCad,Pcbnew,7.0.1*%
%TF.CreationDate,2023-04-16T18:59:37-05:00*%
%TF.ProjectId,HW4,4857342e-6b69-4636-9164-5f7063625858,rev?*%
%TF.SameCoordinates,Original*%
%TF.FileFunction,Copper,L2,Bot*%
%TF.FilePolarity,Positive*%
%FSLAX46Y46*%
G04 Gerber Fmt 4.6, Leading zero omitted, Abs format (unit mm)*
G04 Created by KiCad (PCBNEW 7.0.1) date 2023-04-16 18:59:37*
%MOMM*%
%LPD*%
G01*
G04 APERTURE LIST*
%TA.AperFunction,ComponentPad*%
%ADD10C,1.600000*%
%TD*%
%TA.AperFunction,ComponentPad*%
%ADD11R,1.500000X1.050000*%
%TD*%
%TA.AperFunction,ComponentPad*%
%ADD12O,1.500000X1.050000*%
%TD*%
%TA.AperFunction,ComponentPad*%
%ADD13R,1.600000X1.600000*%
%TD*%
%TA.AperFunction,ComponentPad*%
%ADD14O,1.600000X1.600000*%
%TD*%
%TA.AperFunction,ComponentPad*%
%ADD15C,1.700000*%
%TD*%
%TA.AperFunction,ComponentPad*%
%ADD16R,1.700000X1.700000*%
%TD*%
%TA.AperFunction,ComponentPad*%
%ADD17O,1.700000X1.700000*%
%TD*%
%TA.AperFunction,ComponentPad*%
%ADD18R,1.800000X1.800000*%
%TD*%
%TA.AperFunction,ComponentPad*%
%ADD19C,1.800000*%
%TD*%
%TA.AperFunction,ViaPad*%
%ADD20C,0.800000*%
%TD*%
%TA.AperFunction,Conductor*%
%ADD21C,0.250000*%
%TD*%
%TA.AperFunction,Profile*%
%ADD22C,0.100000*%
%TD*%
G04 APERTURE END LIST*
D10*
%TO.P,C1,1*%
%TO.N,+3.3V*%
X111840593Y-148305838D03*
%TO.P,C1,2*%
%TO.N,GND*%
X109340593Y-148305838D03*
%TD*%
D11*
%TO.P,U2,1,VO*%
%TO.N,+3.3V*%
X139764813Y-113923902D03*
D12*
%TO.P,U2,2,GND*%
%TO.N,GND*%
X139764813Y-112653902D03*
%TO.P,U2,3,VI*%
%TO.N,/Vin*%
X139764813Y-111383902D03*
%TD*%
D13*
%TO.P,U1,1,~{MCLR}*%
%TO.N,/MCLR*%
X121274094Y-112039603D03*
D14*
%TO.P,U1,2,A0*%
%TO.N,/A0*%
X121274094Y-114579603D03*
%TO.P,U1,3,A1*%
%TO.N,/A1*%
X121274094Y-117119603D03*
%TO.P,U1,4,B0*%
%TO.N,/B0*%
X121274094Y-119659603D03*
%TO.P,U1,5,B1*%
%TO.N,/B1*%
X121274094Y-122199603D03*
%TO.P,U1,6,B2*%
%TO.N,/B2*%
X121274094Y-124739603D03*
%TO.P,U1,7,B3*%
%TO.N,/U1RX*%
X121274094Y-127279603D03*
%TO.P,U1,8,Vss*%
%TO.N,GND*%
X121274094Y-129819603D03*
%TO.P,U1,9,A2*%
%TO.N,/U1TX*%
X121274094Y-132359603D03*
%TO.P,U1,10,A3*%
%TO.N,/A3*%
X121274094Y-134899603D03*
%TO.P,U1,11,B4*%
%TO.N,/GREEN*%
X121274094Y-137439603D03*
%TO.P,U1,12,A4*%
%TO.N,/USER*%
X121274094Y-139979603D03*
%TO.P,U1,13,Vdd*%
%TO.N,+3.3V*%
X121274094Y-142519603D03*
%TO.P,U1,14,B5*%
%TO.N,/YELLOW*%
X121274094Y-145059603D03*
%TO.P,U1,15,B6*%
%TO.N,/B6*%
X128894094Y-145059603D03*
%TO.P,U1,16,B7*%
%TO.N,/B7*%
X128894094Y-142519603D03*
%TO.P,U1,17,B8*%
%TO.N,/B8*%
X128894094Y-139979603D03*
%TO.P,U1,18,B9*%
%TO.N,/B9*%
X128894094Y-137439603D03*
%TO.P,U1,19,Vss*%
%TO.N,GND*%
X128894094Y-134899603D03*
%TO.P,U1,20,Vcap*%
%TO.N,Net-(U1-Vcap)*%
X128894094Y-132359603D03*
%TO.P,U1,21,B10*%
%TO.N,/B10*%
X128894094Y-129819603D03*
%TO.P,U1,22,B11*%
%TO.N,/B11*%
X128894094Y-127279603D03*
%TO.P,U1,23,B12*%
%TO.N,/B12*%
X128894094Y-124739603D03*
%TO.P,U1,24,B13*%
%TO.N,/B13*%
X128894094Y-122199603D03*
%TO.P,U1,25,B14*%
%TO.N,/B14*%
X128894094Y-119659603D03*
%TO.P,U1,26,B15*%
%TO.N,/B15*%
X128894094Y-117119603D03*
%TO.P,U1,27,AVss*%
%TO.N,GND*%
X128894094Y-114579603D03*
%TO.P,U1,28,AVdd*%
%TO.N,+3.3V*%
X128894094Y-112039603D03*
%TD*%
D15*
%TO.P,SW3,1,A*%
%TO.N,+5V*%
X139178524Y-102524073D03*
%TO.P,SW3,2,B*%
%TO.N,/Vin*%
X141678524Y-102524073D03*
%TO.P,SW3,3,C*%
%TO.N,Net-(J2-Pin_1)*%
X144178524Y-102524073D03*
%TD*%
D16*
%TO.P,SW2,1,1*%
%TO.N,GND*%
X104140000Y-101600000D03*
D17*
%TO.P,SW2,2,2*%
%TO.N,/USER*%
X104140000Y-106680000D03*
%TD*%
D16*
%TO.P,SW1,1,1*%
%TO.N,GND*%
X112907148Y-101596996D03*
D17*
%TO.P,SW1,2,2*%
%TO.N,/MCLR*%
X112907148Y-106676996D03*
%TD*%
D10*
%TO.P,R5,1*%
%TO.N,Net-(D3-K)*%
X142240000Y-140970000D03*
D14*
%TO.P,R5,2*%
%TO.N,GND*%
X142240000Y-148590000D03*
%TD*%
%TO.P,R4,2*%
%TO.N,/YELLOW*%
X107038775Y-140730304D03*
D10*
%TO.P,R4,1*%
%TO.N,Net-(D2-K)*%
X107038775Y-133110304D03*
%TD*%
%TO.P,R3,1*%
%TO.N,Net-(D1-K)*%
X113062406Y-132965592D03*
D14*
%TO.P,R3,2*%
%TO.N,/GREEN*%
X113062406Y-140585592D03*
%TD*%
%TO.P,R2,2*%
%TO.N,/USER*%
X106937784Y-112874741D03*
D10*
%TO.P,R2,1*%
%TO.N,+3.3V*%
X106937784Y-120494741D03*
%TD*%
D14*
%TO.P,R1,2*%
%TO.N,/MCLR*%
X112834792Y-112874741D03*
D10*
%TO.P,R1,1*%
%TO.N,+3.3V*%
X112834792Y-120494741D03*
%TD*%
D16*
%TO.P,J4,1,Pin_1*%
%TO.N,/B15*%
X147320000Y-114300000D03*
D17*
%TO.P,J4,2,Pin_2*%
%TO.N,/B14*%
X147320000Y-116840000D03*
%TO.P,J4,3,Pin_3*%
%TO.N,/B13*%
X147320000Y-119380000D03*
%TO.P,J4,4,Pin_4*%
%TO.N,/B12*%
X147320000Y-121920000D03*
%TO.P,J4,5,Pin_5*%
%TO.N,/B11*%
X147320000Y-124460000D03*
%TO.P,J4,6,Pin_6*%
%TO.N,/B10*%
X147320000Y-127000000D03*
%TO.P,J4,7,Pin_7*%
%TO.N,/B9*%
X147320000Y-129540000D03*
%TO.P,J4,8,Pin_8*%
%TO.N,/B8*%
X147320000Y-132080000D03*
%TO.P,J4,9,Pin_9*%
%TO.N,/B7*%
X147320000Y-134620000D03*
%TO.P,J4,10,Pin_10*%
%TO.N,/Vin*%
X147320000Y-137160000D03*
%TO.P,J4,11,Pin_11*%
%TO.N,+3.3V*%
X147320000Y-139700000D03*
%TO.P,J4,12,Pin_12*%
%TO.N,GND*%
X147320000Y-142240000D03*
%TD*%
D16*
%TO.P,J3,1,Pin_1*%
%TO.N,/A0*%
X101595494Y-114723589D03*
D17*
%TO.P,J3,2,Pin_2*%
%TO.N,/A1*%
X101595494Y-117263589D03*
%TO.P,J3,3,Pin_3*%
%TO.N,/B0*%
X101595494Y-119803589D03*
%TO.P,J3,4,Pin_4*%
%TO.N,/B1*%
X101595494Y-122343589D03*
%TO.P,J3,5,Pin_5*%
%TO.N,/B2*%
X101595494Y-124883589D03*
%TO.P,J3,6,Pin_6*%
%TO.N,/A3*%
X101595494Y-127423589D03*
%TO.P,J3,7,Pin_7*%
%TO.N,/GREEN*%
X101595494Y-129963589D03*
%TO.P,J3,8,Pin_8*%
%TO.N,/YELLOW*%
X101595494Y-132503589D03*
%TO.P,J3,9,Pin_9*%
%TO.N,/B6*%
X101595494Y-135043589D03*
%TO.P,J3,10,Pin_10*%
%TO.N,/Vin*%
X101595494Y-137583589D03*
%TO.P,J3,11,Pin_11*%
%TO.N,+3.3V*%
X101595494Y-140123589D03*
%TO.P,J3,12,Pin_12*%
%TO.N,GND*%
X101595494Y-142663589D03*
%TD*%
D16*
%TO.P,J2,1,Pin_1*%
%TO.N,Net-(J2-Pin_1)*%
X147320000Y-106680000D03*
D17*
%TO.P,J2,2,Pin_2*%
%TO.N,GND*%
X147320000Y-109220000D03*
%TD*%
D16*
%TO.P,J1,1,Pin_1*%
%TO.N,unconnected-(J1-Pin_1-Pad1)*%
X119168939Y-101937683D03*
D17*
%TO.P,J1,2,Pin_2*%
%TO.N,/U1RX*%
X121708939Y-101937683D03*
%TO.P,J1,3,Pin_3*%
%TO.N,/U1TX*%
X124248939Y-101937683D03*
%TO.P,J1,4,Pin_4*%
%TO.N,+5V*%
X126788939Y-101937683D03*
%TO.P,J1,5,Pin_5*%
%TO.N,unconnected-(J1-Pin_5-Pad5)*%
X129328939Y-101937683D03*
%TO.P,J1,6,Pin_6*%
%TO.N,GND*%
X131868939Y-101937683D03*
%TD*%
D18*
%TO.P,D3,1,K*%
%TO.N,Net-(D3-K)*%
X134172314Y-146524084D03*
D19*
%TO.P,D3,2,A*%
%TO.N,+3.3V*%
X134172314Y-143984084D03*
%TD*%
D18*
%TO.P,D2,1,K*%
%TO.N,Net-(D2-K)*%
X106973962Y-129075693D03*
D19*
%TO.P,D2,2,A*%
%TO.N,+3.3V*%
X106973962Y-126535693D03*
%TD*%
D18*
%TO.P,D1,1,K*%
%TO.N,Net-(D1-K)*%
X113088038Y-129003337D03*
D19*
%TO.P,D1,2,A*%
%TO.N,+3.3V*%
X113088038Y-126463337D03*
%TD*%
D10*
%TO.P,C6,1*%
%TO.N,+3.3V*%
X139819080Y-125563427D03*
%TO.P,C6,2*%
%TO.N,GND*%
X134819080Y-125563427D03*
%TD*%
%TO.P,C5,2*%
%TO.N,GND*%
X134837169Y-119955843D03*
%TO.P,C5,1*%
%TO.N,+3.3V*%
X139837169Y-119955843D03*
%TD*%
%TO.P,C4,1*%
%TO.N,/Vin*%
X141682245Y-107064407D03*
%TO.P,C4,2*%
%TO.N,GND*%
X136682245Y-107064407D03*
%TD*%
%TO.P,C3,2*%
%TO.N,GND*%
X132352153Y-113591526D03*
%TO.P,C3,1*%
%TO.N,+3.3V*%
X134852153Y-113591526D03*
%TD*%
%TO.P,C2,2*%
%TO.N,GND*%
X132630313Y-134300405D03*
%TO.P,C2,1*%
%TO.N,Net-(U1-Vcap)*%
X137630313Y-134300405D03*
%TD*%
D20*
%TO.N,/Vin*%
X142707287Y-111399732D03*
%TO.N,/B6*%
X110131990Y-138959467D03*
%TO.N,/YELLOW*%
X106279037Y-136228030D03*
%TO.N,Net-(D3-K)*%
X142072660Y-143955449D03*
%TO.N,+3.3V*%
X136885661Y-141180292D03*
%TO.N,/Vin*%
X139387948Y-145348301D03*
X142752498Y-137769017D03*
X104488229Y-146199208D03*
X104506318Y-140682069D03*
%TO.N,/B9*%
X135452093Y-135260656D03*
X137839838Y-131389615D03*
%TO.N,/B8*%
X135723427Y-136997199D03*
X134493377Y-139041254D03*
%TO.N,/B7*%
X144662388Y-142454064D03*
%TO.N,+3.3V*%
X104171661Y-120641712D03*
X111934881Y-143883093D03*
X104140000Y-126513132D03*
%TO.N,/B6*%
X110107895Y-141097390D03*
X114883386Y-142852021D03*
X128974702Y-147428533D03*
X117506288Y-146433639D03*
%TO.N,/YELLOW*%
X107034236Y-145043792D03*
%TO.N,/USER*%
X109922466Y-129760071D03*
X115700394Y-139764813D03*
X115692851Y-131080567D03*
X109726491Y-112868254D03*
X104253072Y-112953872D03*
%TO.N,/U1TX*%
X118582582Y-132345293D03*
%TO.N,/U1RX*%
X116733759Y-127370047D03*
%TD*%
D21*
%TO.N,/Vin*%
X142707287Y-137723806D02*
X142752498Y-137769017D01*
X142707287Y-111399732D02*
X142707287Y-137723806D01*
%TO.N,/B6*%
X110107895Y-138983562D02*
X110131990Y-138959467D01*
X110107895Y-141097390D02*
X110107895Y-138983562D01*
%TO.N,/YELLOW*%
X107038775Y-136987768D02*
X106279037Y-136228030D01*
X107038775Y-140730304D02*
X107038775Y-136987768D01*
%TO.N,Net-(D3-K)*%
X142240000Y-143788109D02*
X142240000Y-140970000D01*
X142072660Y-143955449D02*
X142240000Y-143788109D01*
%TO.N,+3.3V*%
X131454406Y-146701992D02*
X134172314Y-143984084D01*
X131454406Y-148978882D02*
X131454406Y-146701992D01*
X127076873Y-148978882D02*
X131454406Y-148978882D01*
X111840593Y-148305838D02*
X126403829Y-148305838D01*
X126403829Y-148305838D02*
X127076873Y-148978882D01*
X134172314Y-141451627D02*
X134172314Y-143984084D01*
X136921839Y-138702102D02*
X134172314Y-141451627D01*
X139101528Y-138702102D02*
X136921839Y-138702102D01*
X139819080Y-125563427D02*
X139819080Y-137984550D01*
X139819080Y-137984550D02*
X139101528Y-138702102D01*
X136885661Y-141270737D02*
X134172314Y-143984084D01*
X136885661Y-141180292D02*
X136885661Y-141270737D01*
%TO.N,/Vin*%
X139921895Y-111383902D02*
X139764813Y-111383902D01*
X139387948Y-141133567D02*
X142752498Y-137769017D01*
X139387948Y-145348301D02*
X139387948Y-141133567D01*
X104506318Y-140682069D02*
X104506318Y-146181119D01*
X104506318Y-146181119D02*
X104488229Y-146199208D01*
X141682245Y-109466470D02*
X139764813Y-111383902D01*
X141682245Y-107064407D02*
X141682245Y-109466470D01*
X141678524Y-107060686D02*
X141682245Y-107064407D01*
X141678524Y-102524073D02*
X141678524Y-107060686D01*
%TO.N,Net-(J2-Pin_1)*%
X147320000Y-105665549D02*
X144178524Y-102524073D01*
X147320000Y-106680000D02*
X147320000Y-105665549D01*
%TO.N,+3.3V*%
X139837169Y-113996258D02*
X139764813Y-113923902D01*
X139837169Y-119955843D02*
X139837169Y-113996258D01*
X139819080Y-119973932D02*
X139837169Y-119955843D01*
X139819080Y-125563427D02*
X139819080Y-119973932D01*
%TO.N,/B9*%
X137839838Y-131400162D02*
X137839838Y-131389615D01*
X135452093Y-133787907D02*
X137839838Y-131400162D01*
X135452093Y-135260656D02*
X135452093Y-133787907D01*
%TO.N,/B8*%
X134493377Y-138227249D02*
X135723427Y-136997199D01*
X134493377Y-139041254D02*
X134493377Y-138227249D01*
%TO.N,/B7*%
X144662388Y-137277612D02*
X147320000Y-134620000D01*
X144662388Y-142454064D02*
X144662388Y-137277612D01*
%TO.N,+3.3V*%
X104140000Y-120673373D02*
X104171661Y-120641712D01*
X104140000Y-126513132D02*
X104140000Y-120673373D01*
X111840593Y-143977381D02*
X111840593Y-148305838D01*
X111934881Y-143883093D02*
X111840593Y-143977381D01*
X104140000Y-137579083D02*
X104140000Y-126513132D01*
X101595494Y-140123589D02*
X104140000Y-137579083D01*
%TO.N,/B6*%
X117506288Y-146433639D02*
X117506288Y-145474923D01*
X117506288Y-145474923D02*
X114883386Y-142852021D01*
X128894094Y-147347925D02*
X128974702Y-147428533D01*
X128894094Y-145059603D02*
X128894094Y-147347925D01*
%TO.N,/YELLOW*%
X107038775Y-145039253D02*
X107038775Y-140730304D01*
X107034236Y-145043792D02*
X107038775Y-145039253D01*
%TO.N,/USER*%
X109922466Y-129760071D02*
X109922466Y-113064229D01*
X115700394Y-139764813D02*
X115700394Y-131088110D01*
X109922466Y-113064229D02*
X109726491Y-112868254D01*
X115700394Y-131088110D02*
X115692851Y-131080567D01*
X104140000Y-112840800D02*
X104140000Y-106680000D01*
X104253072Y-112953872D02*
X104140000Y-112840800D01*
%TO.N,/MCLR*%
X112834792Y-112874741D02*
X112834792Y-106749352D01*
X112834792Y-106749352D02*
X112907148Y-106676996D01*
%TO.N,/U1TX*%
X118582582Y-132345293D02*
X118582582Y-109963150D01*
X118582582Y-109963150D02*
X124248939Y-104296793D01*
X124248939Y-104296793D02*
X124248939Y-101937683D01*
%TO.N,/U1RX*%
X116733759Y-109256921D02*
X121708939Y-104281741D01*
X121708939Y-104281741D02*
X121708939Y-101937683D01*
X116733759Y-127370047D02*
X116733759Y-109256921D01*
%TO.N,Net-(D2-K)*%
X106973962Y-133045491D02*
X107038775Y-133110304D01*
X106973962Y-129075693D02*
X106973962Y-133045491D01*
%TO.N,Net-(D1-K)*%
X113088038Y-132939960D02*
X113062406Y-132965592D01*
X113088038Y-129003337D02*
X113088038Y-132939960D01*
%TO.N,+3.3V*%
X106937784Y-126499515D02*
X106973962Y-126535693D01*
X113088038Y-120747987D02*
X112834792Y-120494741D01*
%TD*%
%TA.AperFunction,Conductor*%
%TO.N,GND*%
G36*
X112048757Y-100016023D02*
G01*
X112093790Y-100058707D01*
X112112506Y-100117863D01*
X112100220Y-100178681D01*
X112060008Y-100225934D01*
X112001938Y-100247790D01*
X111949772Y-100253398D01*
X111815058Y-100303643D01*
X111699959Y-100389807D01*
X111613795Y-100504906D01*
X111563550Y-100639620D01*
X111557148Y-100699172D01*
X111557148Y-101346996D01*
X114257148Y-101346996D01*
X114257148Y-100699172D01*
X114250745Y-100639620D01*
X114200500Y-100504906D01*
X114114336Y-100389807D01*
X113999237Y-100303643D01*
X113864523Y-100253398D01*
X113812358Y-100247790D01*
X113754288Y-100225934D01*
X113714076Y-100178681D01*
X113701790Y-100117863D01*
X113720506Y-100058707D01*
X113765539Y-100016023D01*
X113825612Y-100000500D01*
X149875500Y-100000500D01*
X149937500Y-100017113D01*
X149982887Y-100062500D01*
X149999500Y-100124500D01*
X149999500Y-149875500D01*
X149982887Y-149937500D01*
X149937500Y-149982887D01*
X149875500Y-149999500D01*
X142852708Y-149999500D01*
X142788843Y-149981789D01*
X142743223Y-149933714D01*
X142728878Y-149869010D01*
X142749907Y-149806160D01*
X142800303Y-149763118D01*
X142892480Y-149720134D01*
X143078819Y-149589658D01*
X143239658Y-149428819D01*
X143370134Y-149242480D01*
X143466266Y-149036326D01*
X143518872Y-148840000D01*
X140961128Y-148840000D01*
X141013733Y-149036326D01*
X141109865Y-149242480D01*
X141240341Y-149428819D01*
X141401180Y-149589658D01*
X141587519Y-149720134D01*
X141679697Y-149763118D01*
X141730093Y-149806160D01*
X141751122Y-149869010D01*
X141736777Y-149933714D01*
X141691157Y-149981789D01*
X141627292Y-149999500D01*
X100124500Y-149999500D01*
X100062500Y-149982887D01*
X100017113Y-149937500D01*
X100000500Y-149875500D01*
X100000500Y-149384864D01*
X108615119Y-149384864D01*
X108688108Y-149435971D01*
X108894266Y-149532104D01*
X109113990Y-149590979D01*
X109340593Y-149610804D01*
X109567195Y-149590979D01*
X109786919Y-149532104D01*
X109993073Y-149435972D01*
X110066065Y-149384863D01*
X109340594Y-148659391D01*
X109340593Y-148659391D01*
X108615119Y-149384863D01*
X108615119Y-149384864D01*
X100000500Y-149384864D01*
X100000500Y-148305838D01*
X108035626Y-148305838D01*
X108055451Y-148532440D01*
X108114326Y-148752164D01*
X108210459Y-148958322D01*
X108261565Y-149031309D01*
X108261567Y-149031310D01*
X108987039Y-148305839D01*
X109694146Y-148305839D01*
X110419618Y-149031310D01*
X110470724Y-148958322D01*
X110477933Y-148942864D01*
X110523690Y-148890687D01*
X110590315Y-148871266D01*
X110656941Y-148890685D01*
X110702699Y-148942861D01*
X110710025Y-148958573D01*
X110840546Y-149144978D01*
X111001452Y-149305884D01*
X111187857Y-149436405D01*
X111187858Y-149436405D01*
X111187859Y-149436406D01*
X111394097Y-149532577D01*
X111613901Y-149591473D01*
X111840593Y-149611306D01*
X112067285Y-149591473D01*
X112287089Y-149532577D01*
X112493327Y-149436406D01*
X112679732Y-149305885D01*
X112840640Y-149144977D01*
X112920230Y-149031310D01*
X112953206Y-148984215D01*
X112997524Y-148945349D01*
X113054781Y-148931338D01*
X126093377Y-148931338D01*
X126140830Y-148940777D01*
X126181058Y-148967657D01*
X126576069Y-149362669D01*
X126588969Y-149378770D01*
X126640096Y-149426782D01*
X126642892Y-149429492D01*
X126662402Y-149449002D01*
X126665584Y-149451470D01*
X126674444Y-149459037D01*
X126706291Y-149488944D01*
X126719981Y-149496470D01*
X126723845Y-149498594D01*
X126740109Y-149509278D01*
X126751845Y-149518381D01*
X126755937Y-149521555D01*
X126780314Y-149532104D01*
X126796025Y-149538903D01*
X126806504Y-149544036D01*
X126844781Y-149565079D01*
X126864179Y-149570059D01*
X126882581Y-149576359D01*
X126900977Y-149584320D01*
X126944134Y-149591155D01*
X126955537Y-149593516D01*
X126997854Y-149604382D01*
X127017889Y-149604382D01*
X127037286Y-149605908D01*
X127057069Y-149609042D01*
X127100547Y-149604932D01*
X127112217Y-149604382D01*
X131383557Y-149604382D01*
X131406791Y-149606578D01*
X131414818Y-149608109D01*
X131470165Y-149604627D01*
X131477951Y-149604382D01*
X131493757Y-149604382D01*
X131497988Y-149603847D01*
X131509442Y-149602399D01*
X131517144Y-149601670D01*
X131572544Y-149598186D01*
X131580308Y-149595663D01*
X131603082Y-149590571D01*
X131611198Y-149589546D01*
X131662802Y-149569113D01*
X131670077Y-149566494D01*
X131722847Y-149549349D01*
X131729743Y-149544972D01*
X131750538Y-149534376D01*
X131758138Y-149531368D01*
X131803030Y-149498751D01*
X131809432Y-149494399D01*
X131856283Y-149464668D01*
X131861867Y-149458720D01*
X131879385Y-149443276D01*
X131885993Y-149438476D01*
X131885994Y-149438473D01*
X131885996Y-149438473D01*
X131921344Y-149395743D01*
X131926486Y-149389909D01*
X131964468Y-149349464D01*
X131968405Y-149342300D01*
X131981525Y-149322996D01*
X131986730Y-149316705D01*
X132010348Y-149266512D01*
X132013873Y-149259593D01*
X132040603Y-149210974D01*
X132042634Y-149203059D01*
X132050538Y-149181105D01*
X132054020Y-149173708D01*
X132064416Y-149119207D01*
X132066104Y-149111650D01*
X132079906Y-149057901D01*
X132079906Y-149049731D01*
X132082102Y-149026497D01*
X132083633Y-149018469D01*
X132080151Y-148963123D01*
X132079906Y-148955337D01*
X132079906Y-148340000D01*
X140961128Y-148340000D01*
X141990000Y-148340000D01*
X141990000Y-147311128D01*
X142490000Y-147311128D01*
X142490000Y-148340000D01*
X143518872Y-148340000D01*
X143518871Y-148339999D01*
X143466266Y-148143673D01*
X143370134Y-147937519D01*
X143239658Y-147751180D01*
X143078819Y-147590341D01*
X142892480Y-147459865D01*
X142686326Y-147363733D01*
X142490000Y-147311128D01*
X141990000Y-147311128D01*
X141989999Y-147311128D01*
X141793673Y-147363733D01*
X141587519Y-147459865D01*
X141401180Y-147590341D01*
X141240341Y-147751180D01*
X141109865Y-147937519D01*
X141013733Y-148143673D01*
X140961128Y-148339999D01*
X140961128Y-148340000D01*
X132079906Y-148340000D01*
X132079906Y-147012444D01*
X132089345Y-146964991D01*
X132116225Y-146924763D01*
X132336533Y-146704455D01*
X132560133Y-146480853D01*
X132609496Y-146450604D01*
X132667212Y-146446062D01*
X132720699Y-146468217D01*
X132758299Y-146512240D01*
X132771814Y-146568535D01*
X132771814Y-147471953D01*
X132778223Y-147531567D01*
X132828518Y-147666415D01*
X132914768Y-147781630D01*
X133029983Y-147867880D01*
X133164831Y-147918175D01*
X133224441Y-147924584D01*
X135120186Y-147924583D01*
X135179797Y-147918175D01*
X135314645Y-147867880D01*
X135429860Y-147781630D01*
X135516110Y-147666415D01*
X135566405Y-147531567D01*
X135572814Y-147471957D01*
X135572813Y-145576212D01*
X135566405Y-145516601D01*
X135516110Y-145381753D01*
X135491067Y-145348300D01*
X138482488Y-145348300D01*
X138502274Y-145536558D01*
X138560768Y-145716585D01*
X138655414Y-145880517D01*
X138782077Y-146021190D01*
X138935217Y-146132452D01*
X139108145Y-146209445D01*
X139293300Y-146248801D01*
X139293302Y-146248801D01*
X139482594Y-146248801D01*
X139482596Y-146248801D01*
X139606032Y-146222563D01*
X139667751Y-146209445D01*
X139840678Y-146132452D01*
X139840678Y-146132451D01*
X139993818Y-146021190D01*
X140120481Y-145880517D01*
X140215127Y-145716585D01*
X140251843Y-145603584D01*
X140273622Y-145536557D01*
X140293408Y-145348301D01*
X140273622Y-145160045D01*
X140215127Y-144980017D01*
X140215127Y-144980016D01*
X140120483Y-144816087D01*
X140051613Y-144739600D01*
X140045295Y-144732583D01*
X140021684Y-144694052D01*
X140013448Y-144649614D01*
X140013448Y-141444019D01*
X140022887Y-141396566D01*
X140049767Y-141356338D01*
X140393864Y-141012241D01*
X140741417Y-140664686D01*
X140792844Y-140633786D01*
X140852758Y-140630646D01*
X140907134Y-140656002D01*
X140943241Y-140703917D01*
X140952626Y-140763175D01*
X140934531Y-140969999D01*
X140954364Y-141196689D01*
X141013261Y-141416497D01*
X141109432Y-141622735D01*
X141239953Y-141809140D01*
X141400859Y-141970046D01*
X141561623Y-142082613D01*
X141600489Y-142126931D01*
X141614500Y-142184188D01*
X141614500Y-143112062D01*
X141600985Y-143168357D01*
X141563385Y-143212380D01*
X141466789Y-143282560D01*
X141340126Y-143423232D01*
X141245480Y-143587164D01*
X141186986Y-143767191D01*
X141180084Y-143832864D01*
X141167200Y-143955449D01*
X141170210Y-143984084D01*
X141186986Y-144143706D01*
X141245480Y-144323733D01*
X141340126Y-144487665D01*
X141466789Y-144628338D01*
X141619929Y-144739600D01*
X141792857Y-144816593D01*
X141978012Y-144855949D01*
X141978014Y-144855949D01*
X142167306Y-144855949D01*
X142167308Y-144855949D01*
X142290743Y-144829711D01*
X142352463Y-144816593D01*
X142525390Y-144739600D01*
X142588082Y-144694052D01*
X142678530Y-144628338D01*
X142743684Y-144555978D01*
X142805193Y-144487665D01*
X142899839Y-144323733D01*
X142958334Y-144143705D01*
X142978120Y-143955449D01*
X142958334Y-143767193D01*
X142920310Y-143650169D01*
X142899839Y-143587164D01*
X142882113Y-143556462D01*
X142865500Y-143494462D01*
X142865500Y-142454063D01*
X143756928Y-142454063D01*
X143776714Y-142642321D01*
X143835208Y-142822348D01*
X143929854Y-142986280D01*
X144056517Y-143126953D01*
X144209657Y-143238215D01*
X144382585Y-143315208D01*
X144567740Y-143354564D01*
X144567742Y-143354564D01*
X144757034Y-143354564D01*
X144757036Y-143354564D01*
X144880472Y-143328326D01*
X144942191Y-143315208D01*
X145115118Y-143238215D01*
X145201792Y-143175243D01*
X145268258Y-143126953D01*
X145394921Y-142986280D01*
X145489567Y-142822348D01*
X145514279Y-142746292D01*
X145548062Y-142642320D01*
X145564071Y-142490000D01*
X145989364Y-142490000D01*
X146046569Y-142703492D01*
X146146399Y-142917576D01*
X146281893Y-143111081D01*
X146448918Y-143278106D01*
X146642423Y-143413600D01*
X146856507Y-143513430D01*
X147069999Y-143570635D01*
X147070000Y-143570636D01*
X147070000Y-142490000D01*
X147570000Y-142490000D01*
X147570000Y-143570635D01*
X147783492Y-143513430D01*
X147997576Y-143413600D01*
X148191081Y-143278106D01*
X148358106Y-143111081D01*
X148493600Y-142917576D01*
X148593430Y-142703492D01*
X148650636Y-142490000D01*
X147570000Y-142490000D01*
X147070000Y-142490000D01*
X145989364Y-142490000D01*
X145564071Y-142490000D01*
X145567848Y-142454064D01*
X145548062Y-142265808D01*
X145502938Y-142126931D01*
X145489567Y-142085779D01*
X145394923Y-141921850D01*
X145351453Y-141873572D01*
X145319735Y-141838346D01*
X145296124Y-141799815D01*
X145287888Y-141755377D01*
X145287888Y-137588064D01*
X145297327Y-137540611D01*
X145324207Y-137500383D01*
X145526370Y-137298220D01*
X145752194Y-137072395D01*
X145813034Y-137039017D01*
X145882283Y-137043556D01*
X145938249Y-137084591D01*
X145963401Y-137149270D01*
X145984936Y-137395407D01*
X146024682Y-137543739D01*
X146046097Y-137623663D01*
X146145965Y-137837830D01*
X146281505Y-138031401D01*
X146448599Y-138198495D01*
X146634160Y-138328426D01*
X146673024Y-138372743D01*
X146687035Y-138430000D01*
X146673024Y-138487257D01*
X146634160Y-138531574D01*
X146475059Y-138642978D01*
X146448595Y-138661508D01*
X146281505Y-138828598D01*
X146145965Y-139022170D01*
X146046097Y-139236336D01*
X145984936Y-139464592D01*
X145964340Y-139699999D01*
X145984936Y-139935407D01*
X146010266Y-140029939D01*
X146046097Y-140163663D01*
X146145965Y-140377830D01*
X146281505Y-140571401D01*
X146448599Y-140738495D01*
X146634597Y-140868732D01*
X146673460Y-140913048D01*
X146687471Y-140970305D01*
X146673461Y-141027561D01*
X146634595Y-141071880D01*
X146448919Y-141201892D01*
X146281890Y-141368921D01*
X146146400Y-141562421D01*
X146046569Y-141776507D01*
X145989364Y-141989999D01*
X145989364Y-141990000D01*
X148650636Y-141990000D01*
X148650635Y-141989999D01*
X148593430Y-141776507D01*
X148493599Y-141562421D01*
X148358109Y-141368921D01*
X148191081Y-141201893D01*
X148005404Y-141071880D01*
X147966539Y-141027562D01*
X147952528Y-140970305D01*
X147966539Y-140913048D01*
X148005402Y-140868732D01*
X148191401Y-140738495D01*
X148358495Y-140571401D01*
X148494035Y-140377830D01*
X148593903Y-140163663D01*
X148655063Y-139935408D01*
X148675659Y-139700000D01*
X148655063Y-139464592D01*
X148593903Y-139236337D01*
X148494035Y-139022171D01*
X148358495Y-138828599D01*
X148191401Y-138661505D01*
X148005839Y-138531573D01*
X147966974Y-138487255D01*
X147952964Y-138429999D01*
X147966975Y-138372742D01*
X148005837Y-138328428D01*
X148191401Y-138198495D01*
X148358495Y-138031401D01*
X148494035Y-137837830D01*
X148593903Y-137623663D01*
X148655063Y-137395408D01*
X148675659Y-137160000D01*
X148673731Y-137137969D01*
X148655063Y-136924592D01*
X148624075Y-136808943D01*
X148593903Y-136696337D01*
X148494035Y-136482171D01*
X148358495Y-136288599D01*
X148191401Y-136121505D01*
X148005839Y-135991573D01*
X147966975Y-135947257D01*
X147952964Y-135890000D01*
X147966975Y-135832743D01*
X148005839Y-135788426D01*
X148191401Y-135658495D01*
X148358495Y-135491401D01*
X148494035Y-135297830D01*
X148593903Y-135083663D01*
X148655063Y-134855408D01*
X148675659Y-134620000D01*
X148655063Y-134384592D01*
X148593903Y-134156337D01*
X148494035Y-133942171D01*
X148358495Y-133748599D01*
X148191401Y-133581505D01*
X148005839Y-133451573D01*
X147966975Y-133407257D01*
X147952964Y-133350000D01*
X147966975Y-133292743D01*
X148005839Y-133248426D01*
X148191401Y-133118495D01*
X148358495Y-132951401D01*
X148494035Y-132757830D01*
X148593903Y-132543663D01*
X148655063Y-132315408D01*
X148675659Y-132080000D01*
X148663131Y-131936813D01*
X148655063Y-131844592D01*
X148645894Y-131810372D01*
X148593903Y-131616337D01*
X148494035Y-131402171D01*
X148358495Y-131208599D01*
X148191401Y-131041505D01*
X148005839Y-130911573D01*
X147966976Y-130867257D01*
X147952965Y-130810000D01*
X147966976Y-130752743D01*
X148005839Y-130708426D01*
X148191401Y-130578495D01*
X148358495Y-130411401D01*
X148494035Y-130217830D01*
X148593903Y-130003663D01*
X148655063Y-129775408D01*
X148675659Y-129540000D01*
X148655063Y-129304592D01*
X148593903Y-129076337D01*
X148494035Y-128862171D01*
X148358495Y-128668599D01*
X148191401Y-128501505D01*
X148005839Y-128371573D01*
X147966976Y-128327257D01*
X147952965Y-128270000D01*
X147966976Y-128212743D01*
X148005839Y-128168426D01*
X148191401Y-128038495D01*
X148358495Y-127871401D01*
X148494035Y-127677830D01*
X148593903Y-127463663D01*
X148655063Y-127235408D01*
X148675659Y-127000000D01*
X148655063Y-126764592D01*
X148593903Y-126536337D01*
X148494035Y-126322171D01*
X148358495Y-126128599D01*
X148191401Y-125961505D01*
X148005839Y-125831573D01*
X147966975Y-125787257D01*
X147952964Y-125730000D01*
X147966975Y-125672743D01*
X148005839Y-125628426D01*
X148191401Y-125498495D01*
X148358495Y-125331401D01*
X148494035Y-125137830D01*
X148593903Y-124923663D01*
X148655063Y-124695408D01*
X148675659Y-124460000D01*
X148655063Y-124224592D01*
X148593903Y-123996337D01*
X148494035Y-123782171D01*
X148358495Y-123588599D01*
X148191401Y-123421505D01*
X148005839Y-123291573D01*
X147966975Y-123247257D01*
X147952964Y-123190000D01*
X147966975Y-123132743D01*
X148005839Y-123088426D01*
X148191401Y-122958495D01*
X148358495Y-122791401D01*
X148494035Y-122597830D01*
X148593903Y-122383663D01*
X148655063Y-122155408D01*
X148675659Y-121920000D01*
X148655063Y-121684592D01*
X148593903Y-121456337D01*
X148494035Y-121242171D01*
X148358495Y-121048599D01*
X148191401Y-120881505D01*
X148005839Y-120751573D01*
X147966974Y-120707255D01*
X147952964Y-120649999D01*
X147966975Y-120592742D01*
X148005837Y-120548428D01*
X148191401Y-120418495D01*
X148358495Y-120251401D01*
X148494035Y-120057830D01*
X148593903Y-119843663D01*
X148655063Y-119615408D01*
X148675659Y-119380000D01*
X148655063Y-119144592D01*
X148593903Y-118916337D01*
X148494035Y-118702171D01*
X148358495Y-118508599D01*
X148191401Y-118341505D01*
X148005839Y-118211573D01*
X147966974Y-118167255D01*
X147952964Y-118109999D01*
X147966975Y-118052742D01*
X148005837Y-118008428D01*
X148191401Y-117878495D01*
X148358495Y-117711401D01*
X148494035Y-117517830D01*
X148593903Y-117303663D01*
X148655063Y-117075408D01*
X148675659Y-116840000D01*
X148655063Y-116604592D01*
X148593903Y-116376337D01*
X148494035Y-116162171D01*
X148358495Y-115968599D01*
X148236569Y-115846672D01*
X148205273Y-115793927D01*
X148203084Y-115732634D01*
X148230537Y-115677789D01*
X148280916Y-115642810D01*
X148412331Y-115593796D01*
X148527546Y-115507546D01*
X148613796Y-115392331D01*
X148664091Y-115257483D01*
X148670500Y-115197873D01*
X148670499Y-113402128D01*
X148664091Y-113342517D01*
X148613796Y-113207669D01*
X148527546Y-113092454D01*
X148412331Y-113006204D01*
X148277483Y-112955909D01*
X148217873Y-112949500D01*
X148217869Y-112949500D01*
X146422130Y-112949500D01*
X146362515Y-112955909D01*
X146227669Y-113006204D01*
X146112454Y-113092454D01*
X146026204Y-113207668D01*
X145975909Y-113342516D01*
X145974797Y-113352864D01*
X145969522Y-113401930D01*
X145969500Y-113402130D01*
X145969500Y-115197869D01*
X145973206Y-115232337D01*
X145975909Y-115257483D01*
X146026204Y-115392331D01*
X146112454Y-115507546D01*
X146227669Y-115593796D01*
X146339907Y-115635658D01*
X146359082Y-115642810D01*
X146409462Y-115677789D01*
X146436915Y-115732634D01*
X146434726Y-115793926D01*
X146403431Y-115846673D01*
X146281503Y-115968601D01*
X146145965Y-116162170D01*
X146046097Y-116376336D01*
X145984936Y-116604592D01*
X145964340Y-116840000D01*
X145984936Y-117075407D01*
X146010266Y-117169939D01*
X146046097Y-117303663D01*
X146145965Y-117517830D01*
X146281505Y-117711401D01*
X146448599Y-117878495D01*
X146634160Y-118008426D01*
X146673024Y-118052743D01*
X146687035Y-118110000D01*
X146673024Y-118167257D01*
X146634160Y-118211574D01*
X146475059Y-118322978D01*
X146448595Y-118341508D01*
X146281505Y-118508598D01*
X146145965Y-118702170D01*
X146046097Y-118916336D01*
X145984936Y-119144592D01*
X145964340Y-119379999D01*
X145984936Y-119615407D01*
X146023563Y-119759564D01*
X146046097Y-119843663D01*
X146145965Y-120057830D01*
X146281505Y-120251401D01*
X146448599Y-120418495D01*
X146634160Y-120548426D01*
X146673024Y-120592743D01*
X146687035Y-120650000D01*
X146673024Y-120707257D01*
X146634160Y-120751574D01*
X146475059Y-120862978D01*
X146448595Y-120881508D01*
X146281505Y-121048598D01*
X146145965Y-121242170D01*
X146046097Y-121456336D01*
X145984936Y-121684592D01*
X145964340Y-121920000D01*
X145984936Y-122155407D01*
X146010266Y-122249939D01*
X146046097Y-122383663D01*
X146145965Y-122597830D01*
X146281505Y-122791401D01*
X146448599Y-122958495D01*
X146634160Y-123088426D01*
X146673024Y-123132743D01*
X146687035Y-123190000D01*
X146673024Y-123247257D01*
X146634158Y-123291575D01*
X146475059Y-123402978D01*
X146448595Y-123421508D01*
X146281505Y-123588598D01*
X146145965Y-123782170D01*
X146046097Y-123996336D01*
X145984936Y-124224592D01*
X145964340Y-124459999D01*
X145984936Y-124695407D01*
X146010266Y-124789939D01*
X146046097Y-124923663D01*
X146145965Y-125137830D01*
X146281505Y-125331401D01*
X146448599Y-125498495D01*
X146634160Y-125628426D01*
X146673024Y-125672743D01*
X146687035Y-125730000D01*
X146673024Y-125787257D01*
X146634158Y-125831575D01*
X146475059Y-125942978D01*
X146448595Y-125961508D01*
X146281505Y-126128598D01*
X146145965Y-126322170D01*
X146046097Y-126536336D01*
X145984936Y-126764592D01*
X145964340Y-127000000D01*
X145984936Y-127235407D01*
X146009342Y-127326490D01*
X146046097Y-127463663D01*
X146145965Y-127677830D01*
X146281505Y-127871401D01*
X146448599Y-128038495D01*
X146634160Y-128168426D01*
X146673024Y-128212743D01*
X146687035Y-128270000D01*
X146673024Y-128327257D01*
X146634158Y-128371575D01*
X146475059Y-128482978D01*
X146448595Y-128501508D01*
X146281505Y-128668598D01*
X146145965Y-128862170D01*
X146046097Y-129076336D01*
X145984936Y-129304592D01*
X145964340Y-129540000D01*
X145984936Y-129775407D01*
X146010266Y-129869939D01*
X146046097Y-130003663D01*
X146145965Y-130217830D01*
X146281505Y-130411401D01*
X146448599Y-130578495D01*
X146634160Y-130708426D01*
X146673024Y-130752743D01*
X146687035Y-130810000D01*
X146673024Y-130867257D01*
X146634158Y-130911575D01*
X146475059Y-131022978D01*
X146448595Y-131041508D01*
X146281505Y-131208598D01*
X146145965Y-131402170D01*
X146046097Y-131616336D01*
X145984936Y-131844592D01*
X145964340Y-132079999D01*
X145984936Y-132315407D01*
X146010266Y-132409939D01*
X146046097Y-132543663D01*
X146145965Y-132757830D01*
X146281505Y-132951401D01*
X146448599Y-133118495D01*
X146634160Y-133248426D01*
X146673024Y-133292743D01*
X146687035Y-133350000D01*
X146673024Y-133407257D01*
X146634158Y-133451575D01*
X146457987Y-133574932D01*
X146448595Y-133581508D01*
X146281505Y-133748598D01*
X146145965Y-133942170D01*
X146046097Y-134156336D01*
X145984936Y-134384592D01*
X145964340Y-134620000D01*
X145984936Y-134855405D01*
X145984937Y-134855407D01*
X145984937Y-134855408D01*
X146010266Y-134949939D01*
X146011856Y-134955871D01*
X146011856Y-135020058D01*
X145979762Y-135075646D01*
X144278596Y-136776811D01*
X144262498Y-136789708D01*
X144214484Y-136840837D01*
X144211779Y-136843629D01*
X144192262Y-136863146D01*
X144189803Y-136866317D01*
X144182230Y-136875184D01*
X144152323Y-136907032D01*
X144142673Y-136924586D01*
X144131997Y-136940840D01*
X144119714Y-136956675D01*
X144102363Y-136996770D01*
X144097226Y-137007256D01*
X144076190Y-137045519D01*
X144071209Y-137064921D01*
X144064908Y-137083323D01*
X144056949Y-137101714D01*
X144050116Y-137144854D01*
X144047748Y-137156286D01*
X144036888Y-137198590D01*
X144036888Y-137218628D01*
X144035361Y-137238027D01*
X144032228Y-137257806D01*
X144036338Y-137301287D01*
X144036888Y-137312956D01*
X144036888Y-141755377D01*
X144028652Y-141799815D01*
X144005040Y-141838346D01*
X143973323Y-141873572D01*
X143929852Y-141921850D01*
X143835208Y-142085779D01*
X143776714Y-142265806D01*
X143756928Y-142454063D01*
X142865500Y-142454063D01*
X142865500Y-142184188D01*
X142879511Y-142126931D01*
X142918377Y-142082613D01*
X142992847Y-142030468D01*
X143079139Y-141970047D01*
X143240047Y-141809139D01*
X143370568Y-141622734D01*
X143466739Y-141416496D01*
X143525635Y-141196692D01*
X143545468Y-140970000D01*
X143525635Y-140743308D01*
X143466739Y-140523504D01*
X143370568Y-140317266D01*
X143363754Y-140307535D01*
X143240046Y-140130859D01*
X143079140Y-139969953D01*
X142892735Y-139839432D01*
X142686497Y-139743261D01*
X142466689Y-139684364D01*
X142239999Y-139664531D01*
X142033176Y-139682626D01*
X141973918Y-139673241D01*
X141926003Y-139637134D01*
X141900647Y-139582758D01*
X141903787Y-139522844D01*
X141934688Y-139471417D01*
X142135579Y-139270527D01*
X142700269Y-138705836D01*
X142740498Y-138678956D01*
X142787951Y-138669517D01*
X142847146Y-138669517D01*
X142972001Y-138642978D01*
X143032301Y-138630161D01*
X143205228Y-138553168D01*
X143242670Y-138525965D01*
X143358368Y-138441906D01*
X143371564Y-138427251D01*
X143485031Y-138301233D01*
X143579677Y-138137301D01*
X143638172Y-137957273D01*
X143657958Y-137769017D01*
X143638172Y-137580761D01*
X143592307Y-137439603D01*
X143579677Y-137400732D01*
X143485031Y-137236800D01*
X143364637Y-137103090D01*
X143341023Y-137064556D01*
X143332787Y-137020118D01*
X143332787Y-112098419D01*
X143341023Y-112053981D01*
X143364634Y-112015449D01*
X143439820Y-111931948D01*
X143534466Y-111768016D01*
X143592961Y-111587988D01*
X143612747Y-111399732D01*
X143592961Y-111211476D01*
X143546261Y-111067750D01*
X143534466Y-111031447D01*
X143439820Y-110867515D01*
X143313157Y-110726842D01*
X143160017Y-110615580D01*
X142987089Y-110538587D01*
X142801935Y-110499232D01*
X142801933Y-110499232D01*
X142612641Y-110499232D01*
X142612639Y-110499232D01*
X142427484Y-110538587D01*
X142254556Y-110615580D01*
X142101416Y-110726842D01*
X141974753Y-110867515D01*
X141880107Y-111031447D01*
X141821613Y-111211474D01*
X141801827Y-111399732D01*
X141821613Y-111587989D01*
X141880107Y-111768016D01*
X141974751Y-111931945D01*
X141974754Y-111931948D01*
X142049939Y-112015449D01*
X142073551Y-112053981D01*
X142081787Y-112098419D01*
X142081787Y-137120542D01*
X142073551Y-137164980D01*
X142049936Y-137203515D01*
X142019964Y-137236801D01*
X141925318Y-137400732D01*
X141866824Y-137580759D01*
X141849177Y-137748666D01*
X141837777Y-137789087D01*
X141813537Y-137823385D01*
X139004156Y-140632766D01*
X138988058Y-140645663D01*
X138940044Y-140696792D01*
X138937339Y-140699584D01*
X138917822Y-140719101D01*
X138915363Y-140722272D01*
X138907790Y-140731139D01*
X138877883Y-140762987D01*
X138868233Y-140780541D01*
X138857557Y-140796795D01*
X138845274Y-140812630D01*
X138827923Y-140852725D01*
X138822786Y-140863211D01*
X138801750Y-140901474D01*
X138796769Y-140920876D01*
X138790468Y-140939278D01*
X138782509Y-140957669D01*
X138775676Y-141000809D01*
X138773308Y-141012241D01*
X138762448Y-141054545D01*
X138762448Y-141074583D01*
X138760921Y-141093980D01*
X138757788Y-141113763D01*
X138761338Y-141151318D01*
X138761898Y-141157242D01*
X138762448Y-141168911D01*
X138762448Y-144649614D01*
X138754212Y-144694052D01*
X138730600Y-144732583D01*
X138724283Y-144739600D01*
X138655412Y-144816087D01*
X138560768Y-144980016D01*
X138502274Y-145160043D01*
X138482488Y-145348300D01*
X135491067Y-145348300D01*
X135429860Y-145266538D01*
X135314645Y-145180288D01*
X135260365Y-145160043D01*
X135234407Y-145150361D01*
X135184872Y-145116345D01*
X135157145Y-145063035D01*
X135157738Y-145002948D01*
X135186510Y-144950198D01*
X135281293Y-144847237D01*
X135408238Y-144652933D01*
X135501471Y-144440384D01*
X135558448Y-144215389D01*
X135577614Y-143984084D01*
X135558448Y-143752779D01*
X135521137Y-143605444D01*
X135521791Y-143542089D01*
X135553659Y-143487327D01*
X136928798Y-142112190D01*
X136957309Y-142090901D01*
X136990696Y-142078584D01*
X137081771Y-142059225D01*
X137165464Y-142041436D01*
X137338391Y-141964443D01*
X137365851Y-141944492D01*
X137491531Y-141853181D01*
X137566178Y-141770278D01*
X137618194Y-141712508D01*
X137712840Y-141548576D01*
X137771335Y-141368548D01*
X137791121Y-141180292D01*
X137771335Y-140992036D01*
X137731789Y-140870326D01*
X137712840Y-140812007D01*
X137618194Y-140648075D01*
X137491531Y-140507402D01*
X137338391Y-140396140D01*
X137165463Y-140319147D01*
X136980309Y-140279792D01*
X136980307Y-140279792D01*
X136791015Y-140279792D01*
X136791013Y-140279792D01*
X136605860Y-140319146D01*
X136466343Y-140381264D01*
X136399079Y-140390837D01*
X136336867Y-140363528D01*
X136298385Y-140307535D01*
X136295184Y-140239668D01*
X136328225Y-140180305D01*
X137144609Y-139363921D01*
X137184838Y-139337041D01*
X137232291Y-139327602D01*
X139018784Y-139327602D01*
X139039290Y-139329866D01*
X139042193Y-139329774D01*
X139042195Y-139329775D01*
X139109400Y-139327663D01*
X139113296Y-139327602D01*
X139140877Y-139327602D01*
X139140878Y-139327602D01*
X139144847Y-139327100D01*
X139156493Y-139326182D01*
X139200155Y-139324811D01*
X139219387Y-139319222D01*
X139238446Y-139315276D01*
X139244724Y-139314483D01*
X139258320Y-139312766D01*
X139298935Y-139296684D01*
X139309972Y-139292905D01*
X139351918Y-139280720D01*
X139369157Y-139270524D01*
X139386630Y-139261964D01*
X139405260Y-139254588D01*
X139440592Y-139228916D01*
X139450358Y-139222502D01*
X139487946Y-139200273D01*
X139487945Y-139200273D01*
X139487948Y-139200272D01*
X139502113Y-139186106D01*
X139516901Y-139173475D01*
X139533115Y-139161696D01*
X139560966Y-139128028D01*
X139568807Y-139119411D01*
X140202866Y-138485352D01*
X140218967Y-138472454D01*
X140220954Y-138470337D01*
X140220957Y-138470336D01*
X140267012Y-138421291D01*
X140269693Y-138418526D01*
X140289200Y-138399020D01*
X140291661Y-138395845D01*
X140299232Y-138386981D01*
X140329142Y-138355132D01*
X140338793Y-138337576D01*
X140349473Y-138321317D01*
X140361754Y-138305486D01*
X140379098Y-138265401D01*
X140384240Y-138254906D01*
X140391057Y-138242506D01*
X140405277Y-138216642D01*
X140410258Y-138197238D01*
X140416560Y-138178833D01*
X140424518Y-138160445D01*
X140431350Y-138117298D01*
X140433719Y-138105866D01*
X140444580Y-138063570D01*
X140444580Y-138043534D01*
X140446107Y-138024135D01*
X140447415Y-138015876D01*
X140449240Y-138004354D01*
X140445130Y-137960875D01*
X140444580Y-137949206D01*
X140444580Y-126777615D01*
X140458591Y-126720358D01*
X140497457Y-126676040D01*
X140658220Y-126563473D01*
X140819126Y-126402567D01*
X140873525Y-126324876D01*
X140949648Y-126216161D01*
X141045819Y-126009923D01*
X141104715Y-125790119D01*
X141124548Y-125563427D01*
X141104715Y-125336735D01*
X141045819Y-125116931D01*
X140949648Y-124910693D01*
X140906290Y-124848771D01*
X140819126Y-124724286D01*
X140658220Y-124563380D01*
X140497457Y-124450814D01*
X140458591Y-124406496D01*
X140444580Y-124349239D01*
X140444580Y-121182697D01*
X140458591Y-121125440D01*
X140497457Y-121081122D01*
X140676309Y-120955889D01*
X140837215Y-120794983D01*
X140840584Y-120790171D01*
X140967737Y-120608577D01*
X141063908Y-120402339D01*
X141122804Y-120182535D01*
X141142637Y-119955843D01*
X141122804Y-119729151D01*
X141063908Y-119509347D01*
X140967737Y-119303109D01*
X140916804Y-119230369D01*
X140837215Y-119116702D01*
X140676309Y-118955796D01*
X140515546Y-118843230D01*
X140476680Y-118798912D01*
X140462669Y-118741655D01*
X140462669Y-115071537D01*
X140477138Y-115013409D01*
X140517167Y-114968846D01*
X140573414Y-114948247D01*
X140622296Y-114942993D01*
X140757144Y-114892698D01*
X140872359Y-114806448D01*
X140958609Y-114691233D01*
X141008904Y-114556385D01*
X141015313Y-114496775D01*
X141015312Y-113351030D01*
X141008904Y-113291419D01*
X140958609Y-113156571D01*
X140958608Y-113156569D01*
X140953542Y-113142987D01*
X140937668Y-113106298D01*
X140941135Y-113048829D01*
X140985099Y-112903902D01*
X140620485Y-112903902D01*
X140607229Y-112903191D01*
X140562689Y-112898402D01*
X138966942Y-112898402D01*
X138922391Y-112903192D01*
X138909138Y-112903902D01*
X138544527Y-112903902D01*
X138588490Y-113048829D01*
X138591957Y-113106292D01*
X138576080Y-113142993D01*
X138520722Y-113291416D01*
X138520722Y-113291419D01*
X138515229Y-113342516D01*
X138514313Y-113351032D01*
X138514313Y-114496771D01*
X138520722Y-114556385D01*
X138571017Y-114691233D01*
X138657267Y-114806448D01*
X138772482Y-114892698D01*
X138907330Y-114942993D01*
X138966940Y-114949402D01*
X139087669Y-114949402D01*
X139149669Y-114966015D01*
X139195056Y-115011402D01*
X139211669Y-115073402D01*
X139211669Y-118741655D01*
X139197658Y-118798912D01*
X139158792Y-118843230D01*
X138998028Y-118955796D01*
X138837122Y-119116702D01*
X138706601Y-119303107D01*
X138610430Y-119509345D01*
X138551533Y-119729153D01*
X138531700Y-119955842D01*
X138551533Y-120182532D01*
X138610430Y-120402340D01*
X138706601Y-120608578D01*
X138837122Y-120794983D01*
X138998028Y-120955889D01*
X139140703Y-121055790D01*
X139179569Y-121100108D01*
X139193580Y-121157365D01*
X139193580Y-124349239D01*
X139179569Y-124406496D01*
X139140703Y-124450814D01*
X138979939Y-124563380D01*
X138819033Y-124724286D01*
X138688512Y-124910691D01*
X138592341Y-125116929D01*
X138533444Y-125336737D01*
X138513611Y-125563426D01*
X138533444Y-125790116D01*
X138592341Y-126009924D01*
X138688512Y-126216162D01*
X138819033Y-126402567D01*
X138979939Y-126563473D01*
X139140703Y-126676040D01*
X139179569Y-126720358D01*
X139193580Y-126777615D01*
X139193580Y-137674098D01*
X139184141Y-137721551D01*
X139157261Y-137761779D01*
X138878756Y-138040283D01*
X138838528Y-138067163D01*
X138791075Y-138076602D01*
X137004583Y-138076602D01*
X136984075Y-138074337D01*
X136913952Y-138076541D01*
X136910058Y-138076602D01*
X136882489Y-138076602D01*
X136878510Y-138077104D01*
X136866880Y-138078019D01*
X136823211Y-138079391D01*
X136803967Y-138084982D01*
X136784923Y-138088926D01*
X136765047Y-138091437D01*
X136724439Y-138107515D01*
X136713393Y-138111296D01*
X136692692Y-138117312D01*
X136671446Y-138123485D01*
X136654204Y-138133681D01*
X136636743Y-138142235D01*
X136618106Y-138149614D01*
X136582770Y-138175287D01*
X136573013Y-138181697D01*
X136535419Y-138203931D01*
X136521252Y-138218098D01*
X136506463Y-138230728D01*
X136490252Y-138242506D01*
X136462411Y-138276160D01*
X136454550Y-138284799D01*
X135611126Y-139128223D01*
X135550811Y-139161484D01*
X135482053Y-139157430D01*
X135426066Y-139117310D01*
X135400124Y-139053503D01*
X135392352Y-138979556D01*
X135379051Y-138852998D01*
X135320556Y-138672970D01*
X135320556Y-138672969D01*
X135225999Y-138509191D01*
X135209858Y-138457998D01*
X135216864Y-138404780D01*
X135245705Y-138359510D01*
X135303983Y-138301233D01*
X135561682Y-138043534D01*
X135671199Y-137934018D01*
X135711427Y-137907138D01*
X135758880Y-137897699D01*
X135818075Y-137897699D01*
X135941510Y-137871461D01*
X136003230Y-137858343D01*
X136176157Y-137781350D01*
X136233972Y-137739345D01*
X136329297Y-137670088D01*
X136409730Y-137580759D01*
X136455960Y-137529415D01*
X136550606Y-137365483D01*
X136609101Y-137185455D01*
X136628887Y-136997199D01*
X136609101Y-136808943D01*
X136550606Y-136628915D01*
X136550606Y-136628914D01*
X136455960Y-136464982D01*
X136329297Y-136324309D01*
X136176157Y-136213047D01*
X136060548Y-136161574D01*
X136010665Y-136121180D01*
X135987663Y-136061256D01*
X135997705Y-135997859D01*
X136038100Y-135947976D01*
X136039090Y-135947257D01*
X136057964Y-135933544D01*
X136184626Y-135792872D01*
X136279272Y-135628940D01*
X136337767Y-135448912D01*
X136357553Y-135260656D01*
X136344528Y-135136733D01*
X136354746Y-135072945D01*
X136395666Y-135022950D01*
X136456180Y-135000325D01*
X136519862Y-135011211D01*
X136569424Y-135052652D01*
X136630266Y-135139545D01*
X136791172Y-135300451D01*
X136977577Y-135430972D01*
X136977578Y-135430972D01*
X136977579Y-135430973D01*
X137183817Y-135527144D01*
X137403621Y-135586040D01*
X137630313Y-135605873D01*
X137857005Y-135586040D01*
X138076809Y-135527144D01*
X138283047Y-135430973D01*
X138469452Y-135300452D01*
X138630360Y-135139544D01*
X138760881Y-134953139D01*
X138857052Y-134746901D01*
X138915948Y-134527097D01*
X138935781Y-134300405D01*
X138915948Y-134073713D01*
X138857052Y-133853909D01*
X138760881Y-133647671D01*
X138759177Y-133645238D01*
X138630359Y-133461264D01*
X138469453Y-133300358D01*
X138283048Y-133169837D01*
X138076810Y-133073666D01*
X137857002Y-133014769D01*
X137630312Y-132994936D01*
X137421041Y-133013245D01*
X137361783Y-133003860D01*
X137313868Y-132967753D01*
X137288512Y-132913377D01*
X137291652Y-132853463D01*
X137322551Y-132802038D01*
X137798156Y-132326434D01*
X137838385Y-132299554D01*
X137885838Y-132290115D01*
X137934486Y-132290115D01*
X138057922Y-132263877D01*
X138119641Y-132250759D01*
X138292568Y-132173766D01*
X138379981Y-132110257D01*
X138445708Y-132062504D01*
X138496541Y-132006049D01*
X138572371Y-131921831D01*
X138667017Y-131757899D01*
X138725512Y-131577871D01*
X138745298Y-131389615D01*
X138725512Y-131201359D01*
X138667552Y-131022978D01*
X138667017Y-131021330D01*
X138572371Y-130857398D01*
X138445708Y-130716725D01*
X138292568Y-130605463D01*
X138119640Y-130528470D01*
X137934486Y-130489115D01*
X137934484Y-130489115D01*
X137745192Y-130489115D01*
X137745190Y-130489115D01*
X137560035Y-130528470D01*
X137387107Y-130605463D01*
X137233967Y-130716725D01*
X137107304Y-130857398D01*
X137012658Y-131021330D01*
X136954164Y-131201357D01*
X136935278Y-131381050D01*
X136923878Y-131421472D01*
X136899638Y-131455769D01*
X135068301Y-133287106D01*
X135052203Y-133300003D01*
X135004189Y-133351132D01*
X135001484Y-133353924D01*
X134981967Y-133373441D01*
X134979508Y-133376612D01*
X134971935Y-133385479D01*
X134942028Y-133417327D01*
X134932378Y-133434881D01*
X134921702Y-133451135D01*
X134909419Y-133466970D01*
X134892068Y-133507065D01*
X134886931Y-133517551D01*
X134865895Y-133555814D01*
X134860914Y-133575216D01*
X134854613Y-133593618D01*
X134846654Y-133612009D01*
X134839821Y-133655149D01*
X134837453Y-133666581D01*
X134826593Y-133708885D01*
X134826593Y-133728923D01*
X134825066Y-133748320D01*
X134821933Y-133768103D01*
X134822452Y-133773589D01*
X134826043Y-133811582D01*
X134826593Y-133823251D01*
X134826593Y-134561969D01*
X134818357Y-134606407D01*
X134794745Y-134644938D01*
X134769559Y-134672911D01*
X134719557Y-134728442D01*
X134624913Y-134892371D01*
X134566419Y-135072398D01*
X134546633Y-135260656D01*
X134566419Y-135448913D01*
X134624913Y-135628940D01*
X134719559Y-135792872D01*
X134846222Y-135933545D01*
X134999360Y-136044806D01*
X135074550Y-136078282D01*
X135083087Y-136082084D01*
X135114970Y-136096279D01*
X135164853Y-136136673D01*
X135187856Y-136196596D01*
X135177816Y-136259992D01*
X135137423Y-136309875D01*
X135117557Y-136324309D01*
X134990893Y-136464982D01*
X134896247Y-136628914D01*
X134837753Y-136808941D01*
X134820106Y-136976848D01*
X134808706Y-137017269D01*
X134784466Y-137051567D01*
X134109585Y-137726448D01*
X134093487Y-137739345D01*
X134045473Y-137790474D01*
X134042768Y-137793266D01*
X134023251Y-137812783D01*
X134020792Y-137815954D01*
X134013219Y-137824821D01*
X133983312Y-137856669D01*
X133973662Y-137874223D01*
X133962986Y-137890477D01*
X133950703Y-137906312D01*
X133933352Y-137946407D01*
X133928215Y-137956891D01*
X133926740Y-137959575D01*
X133907179Y-137995156D01*
X133902198Y-138014558D01*
X133895897Y-138032960D01*
X133887938Y-138051351D01*
X133881105Y-138094491D01*
X133878737Y-138105923D01*
X133867877Y-138148227D01*
X133867877Y-138168265D01*
X133866350Y-138187664D01*
X133863774Y-138203931D01*
X133863217Y-138207445D01*
X133864224Y-138218098D01*
X133867327Y-138250924D01*
X133867877Y-138262593D01*
X133867877Y-138342567D01*
X133859641Y-138387005D01*
X133836029Y-138425536D01*
X133806801Y-138457998D01*
X133760841Y-138509040D01*
X133666197Y-138672969D01*
X133607703Y-138852996D01*
X133587917Y-139041254D01*
X133607703Y-139229511D01*
X133666197Y-139409538D01*
X133760843Y-139573470D01*
X133887506Y-139714143D01*
X134040646Y-139825405D01*
X134213574Y-139902398D01*
X134398729Y-139941754D01*
X134498233Y-139941754D01*
X134554528Y-139955269D01*
X134598551Y-139992869D01*
X134620706Y-140046356D01*
X134616164Y-140104072D01*
X134585914Y-140153435D01*
X133788522Y-140950826D01*
X133772424Y-140963723D01*
X133724410Y-141014852D01*
X133721705Y-141017644D01*
X133702188Y-141037161D01*
X133699729Y-141040332D01*
X133692156Y-141049199D01*
X133662249Y-141081047D01*
X133652599Y-141098601D01*
X133641923Y-141114855D01*
X133629640Y-141130690D01*
X133612289Y-141170785D01*
X133607152Y-141181269D01*
X133605677Y-141183953D01*
X133586116Y-141219534D01*
X133581135Y-141238936D01*
X133574834Y-141257338D01*
X133566875Y-141275729D01*
X133560042Y-141318869D01*
X133557674Y-141330301D01*
X133546814Y-141372605D01*
X133546814Y-141392643D01*
X133545287Y-141412042D01*
X133542154Y-141431821D01*
X133546264Y-141475302D01*
X133546814Y-141486971D01*
X133546814Y-142656270D01*
X133529337Y-142719743D01*
X133481832Y-142765324D01*
X133403691Y-142807612D01*
X133220529Y-142950171D01*
X133063334Y-143120932D01*
X132936390Y-143315234D01*
X132843158Y-143527780D01*
X132843156Y-143527784D01*
X132843157Y-143527784D01*
X132786246Y-143752521D01*
X132786179Y-143752784D01*
X132767013Y-143984083D01*
X132786179Y-144215384D01*
X132786179Y-144215387D01*
X132786180Y-144215389D01*
X132813616Y-144323733D01*
X132823489Y-144362720D01*
X132822834Y-144426078D01*
X132790964Y-144480841D01*
X131070614Y-146201191D01*
X131054516Y-146214088D01*
X131006502Y-146265217D01*
X131003797Y-146268009D01*
X130984280Y-146287526D01*
X130981821Y-146290697D01*
X130974248Y-146299564D01*
X130944341Y-146331412D01*
X130934691Y-146348966D01*
X130924015Y-146365220D01*
X130911732Y-146381055D01*
X130894381Y-146421150D01*
X130889244Y-146431636D01*
X130868208Y-146469899D01*
X130863227Y-146489301D01*
X130856926Y-146507703D01*
X130848967Y-146526094D01*
X130842134Y-146569234D01*
X130839766Y-146580666D01*
X130828906Y-146622970D01*
X130828906Y-146643008D01*
X130827379Y-146662407D01*
X130824246Y-146682186D01*
X130828356Y-146725667D01*
X130828906Y-146737336D01*
X130828906Y-148229382D01*
X130812293Y-148291382D01*
X130766906Y-148336769D01*
X130704906Y-148353382D01*
X129615412Y-148353382D01*
X129555675Y-148338044D01*
X129510715Y-148295825D01*
X129491657Y-148237168D01*
X129503213Y-148176586D01*
X129542526Y-148129064D01*
X129580574Y-148101420D01*
X129707235Y-147960749D01*
X129801881Y-147796817D01*
X129816709Y-147751180D01*
X129860376Y-147616789D01*
X129880162Y-147428533D01*
X129860376Y-147240277D01*
X129808159Y-147079571D01*
X129801881Y-147060248D01*
X129707235Y-146896316D01*
X129580573Y-146755645D01*
X129570710Y-146748479D01*
X129533109Y-146704455D01*
X129519594Y-146648160D01*
X129519594Y-146273791D01*
X129533605Y-146216534D01*
X129572471Y-146172216D01*
X129725085Y-146065355D01*
X129733233Y-146059650D01*
X129894141Y-145898742D01*
X130024662Y-145712337D01*
X130120833Y-145506099D01*
X130179729Y-145286295D01*
X130199562Y-145059603D01*
X130199556Y-145059540D01*
X130189990Y-144950196D01*
X130179729Y-144832911D01*
X130120833Y-144613107D01*
X130024662Y-144406869D01*
X130018273Y-144397745D01*
X129894140Y-144220462D01*
X129733234Y-144059556D01*
X129546827Y-143929034D01*
X129488819Y-143901985D01*
X129436643Y-143856228D01*
X129417223Y-143789603D01*
X129436643Y-143722978D01*
X129488819Y-143677221D01*
X129546828Y-143650171D01*
X129733233Y-143519650D01*
X129894141Y-143358742D01*
X130024662Y-143172337D01*
X130120833Y-142966099D01*
X130179729Y-142746295D01*
X130199562Y-142519603D01*
X130179729Y-142292911D01*
X130120833Y-142073107D01*
X130024662Y-141866869D01*
X129986474Y-141812331D01*
X129894140Y-141680462D01*
X129733234Y-141519556D01*
X129546827Y-141389034D01*
X129488819Y-141361985D01*
X129436643Y-141316228D01*
X129417223Y-141249603D01*
X129436643Y-141182978D01*
X129488819Y-141137221D01*
X129546828Y-141110171D01*
X129733233Y-140979650D01*
X129894141Y-140818742D01*
X130024662Y-140632337D01*
X130120833Y-140426099D01*
X130179729Y-140206295D01*
X130199562Y-139979603D01*
X130179729Y-139752911D01*
X130120833Y-139533107D01*
X130024662Y-139326869D01*
X130023220Y-139324810D01*
X129894140Y-139140462D01*
X129733234Y-138979556D01*
X129546827Y-138849034D01*
X129488819Y-138821985D01*
X129436643Y-138776228D01*
X129417223Y-138709603D01*
X129436643Y-138642978D01*
X129488819Y-138597221D01*
X129546828Y-138570171D01*
X129733233Y-138439650D01*
X129894141Y-138278742D01*
X130024662Y-138092337D01*
X130120833Y-137886099D01*
X130179729Y-137666295D01*
X130199562Y-137439603D01*
X130179729Y-137212911D01*
X130120833Y-136993107D01*
X130024662Y-136786869D01*
X130023304Y-136784930D01*
X129894140Y-136600462D01*
X129733234Y-136439556D01*
X129546830Y-136309036D01*
X129488819Y-136281985D01*
X129488226Y-136281708D01*
X129436052Y-136235951D01*
X129416633Y-136169326D01*
X129436053Y-136102701D01*
X129488229Y-136056945D01*
X129546573Y-136029738D01*
X129732913Y-135899261D01*
X129893752Y-135738422D01*
X130024228Y-135552083D01*
X130104738Y-135379431D01*
X131904839Y-135379431D01*
X131977828Y-135430538D01*
X132183986Y-135526671D01*
X132403710Y-135585546D01*
X132630312Y-135605371D01*
X132856915Y-135585546D01*
X133076639Y-135526671D01*
X133282793Y-135430539D01*
X133355785Y-135379430D01*
X132630314Y-134653958D01*
X132630313Y-134653958D01*
X131904839Y-135379430D01*
X131904839Y-135379431D01*
X130104738Y-135379431D01*
X130120360Y-135345929D01*
X130172966Y-135149603D01*
X127615222Y-135149603D01*
X127667827Y-135345929D01*
X127763959Y-135552083D01*
X127894435Y-135738422D01*
X128055274Y-135899261D01*
X128241613Y-136029737D01*
X128299959Y-136056945D01*
X128352134Y-136102702D01*
X128371554Y-136169326D01*
X128352135Y-136235951D01*
X128299960Y-136281708D01*
X128241361Y-136309033D01*
X128054953Y-136439556D01*
X127894047Y-136600462D01*
X127763526Y-136786867D01*
X127667355Y-136993105D01*
X127608458Y-137212913D01*
X127588625Y-137439602D01*
X127608458Y-137666292D01*
X127667355Y-137886100D01*
X127763526Y-138092338D01*
X127894047Y-138278743D01*
X128054953Y-138439649D01*
X128217077Y-138553168D01*
X128241360Y-138570171D01*
X128299369Y-138597221D01*
X128351544Y-138642978D01*
X128370963Y-138709603D01*
X128351544Y-138776228D01*
X128299369Y-138821985D01*
X128241357Y-138849036D01*
X128054953Y-138979556D01*
X127894047Y-139140462D01*
X127763526Y-139326867D01*
X127667355Y-139533105D01*
X127608458Y-139752913D01*
X127588625Y-139979602D01*
X127608458Y-140206292D01*
X127667355Y-140426100D01*
X127763526Y-140632338D01*
X127894047Y-140818743D01*
X128054953Y-140979649D01*
X128223105Y-141097389D01*
X128241360Y-141110171D01*
X128299367Y-141137220D01*
X128351543Y-141182976D01*
X128370963Y-141249600D01*
X128351545Y-141316225D01*
X128299370Y-141361983D01*
X128241360Y-141389034D01*
X128054953Y-141519556D01*
X127894047Y-141680462D01*
X127763526Y-141866867D01*
X127667355Y-142073105D01*
X127608458Y-142292913D01*
X127588625Y-142519602D01*
X127608458Y-142746292D01*
X127667355Y-142966100D01*
X127763526Y-143172338D01*
X127894047Y-143358743D01*
X128054953Y-143519649D01*
X128127771Y-143570636D01*
X128241360Y-143650171D01*
X128299369Y-143677221D01*
X128351544Y-143722978D01*
X128370963Y-143789603D01*
X128351544Y-143856228D01*
X128299369Y-143901985D01*
X128241357Y-143929036D01*
X128054953Y-144059556D01*
X127894047Y-144220462D01*
X127763526Y-144406867D01*
X127667355Y-144613105D01*
X127608458Y-144832913D01*
X127588625Y-145059602D01*
X127608458Y-145286292D01*
X127667355Y-145506100D01*
X127763526Y-145712338D01*
X127894047Y-145898743D01*
X128054953Y-146059649D01*
X128215717Y-146172216D01*
X128254583Y-146216534D01*
X128268594Y-146273791D01*
X128268594Y-146819369D01*
X128260359Y-146863803D01*
X128247700Y-146884461D01*
X128248685Y-146885030D01*
X128147522Y-147060248D01*
X128089028Y-147240275D01*
X128069242Y-147428533D01*
X128089028Y-147616790D01*
X128147522Y-147796817D01*
X128242168Y-147960749D01*
X128368829Y-148101420D01*
X128406878Y-148129064D01*
X128446191Y-148176586D01*
X128457747Y-148237168D01*
X128438689Y-148295825D01*
X128393729Y-148338044D01*
X128333992Y-148353382D01*
X127387325Y-148353382D01*
X127339872Y-148343943D01*
X127299644Y-148317063D01*
X127111645Y-148129064D01*
X126904631Y-147922049D01*
X126891735Y-147905951D01*
X126840604Y-147857936D01*
X126837807Y-147855225D01*
X126818299Y-147835717D01*
X126815119Y-147833250D01*
X126806253Y-147825677D01*
X126774411Y-147795776D01*
X126756853Y-147786123D01*
X126740593Y-147775442D01*
X126724765Y-147763165D01*
X126684680Y-147745818D01*
X126674190Y-147740679D01*
X126635920Y-147719640D01*
X126616520Y-147714659D01*
X126598113Y-147708357D01*
X126579726Y-147700400D01*
X126536587Y-147693567D01*
X126525153Y-147691199D01*
X126482848Y-147680338D01*
X126462813Y-147680338D01*
X126443415Y-147678811D01*
X126435991Y-147677635D01*
X126423634Y-147675678D01*
X126423633Y-147675678D01*
X126390580Y-147678802D01*
X126380154Y-147679788D01*
X126368485Y-147680338D01*
X113054781Y-147680338D01*
X112997524Y-147666327D01*
X112953206Y-147627461D01*
X112840639Y-147466697D01*
X112679733Y-147305791D01*
X112518970Y-147193225D01*
X112480104Y-147148907D01*
X112466093Y-147091650D01*
X112466093Y-144673405D01*
X112479608Y-144617110D01*
X112517206Y-144573087D01*
X112540752Y-144555981D01*
X112667414Y-144415309D01*
X112762060Y-144251377D01*
X112820555Y-144071349D01*
X112840341Y-143883093D01*
X112820555Y-143694837D01*
X112785570Y-143587164D01*
X112762060Y-143514808D01*
X112667414Y-143350876D01*
X112540751Y-143210203D01*
X112387611Y-143098941D01*
X112214683Y-143021948D01*
X112029529Y-142982593D01*
X112029527Y-142982593D01*
X111840235Y-142982593D01*
X111840233Y-142982593D01*
X111655078Y-143021948D01*
X111482150Y-143098941D01*
X111329010Y-143210203D01*
X111202347Y-143350876D01*
X111107701Y-143514808D01*
X111049207Y-143694835D01*
X111029421Y-143883093D01*
X111049207Y-144071350D01*
X111107701Y-144251377D01*
X111158905Y-144340064D01*
X111192207Y-144397745D01*
X111198480Y-144408609D01*
X111215093Y-144470609D01*
X111215093Y-147091650D01*
X111201082Y-147148907D01*
X111162216Y-147193225D01*
X111001452Y-147305791D01*
X110840546Y-147466697D01*
X110710022Y-147653106D01*
X110702697Y-147668816D01*
X110656940Y-147720990D01*
X110590315Y-147740408D01*
X110523691Y-147720988D01*
X110477935Y-147668813D01*
X110470726Y-147653353D01*
X110419618Y-147580364D01*
X109694146Y-148305838D01*
X109694146Y-148305839D01*
X108987039Y-148305839D01*
X108987039Y-148305838D01*
X108261566Y-147580364D01*
X108261566Y-147580365D01*
X108210458Y-147653354D01*
X108114326Y-147859510D01*
X108055451Y-148079235D01*
X108035626Y-148305838D01*
X100000500Y-148305838D01*
X100000500Y-147226811D01*
X108615119Y-147226811D01*
X109340593Y-147952284D01*
X109340594Y-147952284D01*
X110066065Y-147226812D01*
X110066064Y-147226810D01*
X109993077Y-147175704D01*
X109786919Y-147079571D01*
X109567195Y-147020696D01*
X109340593Y-147000871D01*
X109113990Y-147020696D01*
X108894265Y-147079571D01*
X108688109Y-147175703D01*
X108615120Y-147226811D01*
X108615119Y-147226811D01*
X100000500Y-147226811D01*
X100000500Y-146199208D01*
X103582769Y-146199208D01*
X103583154Y-146202871D01*
X103602555Y-146387465D01*
X103661049Y-146567492D01*
X103755695Y-146731424D01*
X103882358Y-146872097D01*
X104035498Y-146983359D01*
X104208426Y-147060352D01*
X104393581Y-147099708D01*
X104393583Y-147099708D01*
X104582875Y-147099708D01*
X104582877Y-147099708D01*
X104706312Y-147073470D01*
X104768032Y-147060352D01*
X104940959Y-146983359D01*
X104965051Y-146965855D01*
X105094099Y-146872097D01*
X105220762Y-146731424D01*
X105315408Y-146567492D01*
X105328859Y-146526094D01*
X105373903Y-146387464D01*
X105393689Y-146199208D01*
X105373903Y-146010952D01*
X105315408Y-145830924D01*
X105315408Y-145830923D01*
X105220762Y-145666991D01*
X105163669Y-145603584D01*
X105140054Y-145565049D01*
X105131818Y-145520611D01*
X105131818Y-141380756D01*
X105140054Y-141336318D01*
X105163665Y-141297786D01*
X105238851Y-141214285D01*
X105249009Y-141196692D01*
X105333497Y-141050353D01*
X105349595Y-141000809D01*
X105391992Y-140870325D01*
X105411778Y-140682069D01*
X105391992Y-140493813D01*
X105349660Y-140363528D01*
X105333497Y-140313784D01*
X105238851Y-140149852D01*
X105112188Y-140009179D01*
X104959048Y-139897917D01*
X104786120Y-139820924D01*
X104600966Y-139781569D01*
X104600964Y-139781569D01*
X104411672Y-139781569D01*
X104411670Y-139781569D01*
X104226515Y-139820924D01*
X104053587Y-139897917D01*
X103900447Y-140009179D01*
X103773784Y-140149852D01*
X103679138Y-140313784D01*
X103620644Y-140493811D01*
X103600858Y-140682069D01*
X103620644Y-140870326D01*
X103679138Y-141050353D01*
X103773782Y-141214282D01*
X103773785Y-141214285D01*
X103848970Y-141297786D01*
X103872582Y-141336318D01*
X103880818Y-141380756D01*
X103880818Y-145480431D01*
X103872582Y-145524869D01*
X103848968Y-145563403D01*
X103755695Y-145666992D01*
X103661049Y-145830923D01*
X103602555Y-146010950D01*
X103602554Y-146010952D01*
X103602555Y-146010952D01*
X103582769Y-146199208D01*
X100000500Y-146199208D01*
X100000500Y-142913589D01*
X100264858Y-142913589D01*
X100322063Y-143127081D01*
X100421893Y-143341165D01*
X100557387Y-143534670D01*
X100724412Y-143701695D01*
X100917917Y-143837189D01*
X101132001Y-143937019D01*
X101345493Y-143994224D01*
X101345494Y-143994225D01*
X101345494Y-142913589D01*
X101845494Y-142913589D01*
X101845494Y-143994224D01*
X102058986Y-143937019D01*
X102273070Y-143837189D01*
X102466575Y-143701695D01*
X102633600Y-143534670D01*
X102769094Y-143341165D01*
X102868924Y-143127081D01*
X102926130Y-142913589D01*
X101845494Y-142913589D01*
X101345494Y-142913589D01*
X100264858Y-142913589D01*
X100000500Y-142913589D01*
X100000500Y-140228046D01*
X100016222Y-140167614D01*
X100058368Y-140123589D01*
X100016222Y-140079564D01*
X100000500Y-140019132D01*
X100000500Y-137688046D01*
X100016222Y-137627614D01*
X100058368Y-137583589D01*
X100016222Y-137539564D01*
X100000500Y-137479132D01*
X100000500Y-135148046D01*
X100016222Y-135087614D01*
X100058368Y-135043589D01*
X100016222Y-134999564D01*
X100000500Y-134939132D01*
X100000500Y-132608046D01*
X100016222Y-132547614D01*
X100058368Y-132503588D01*
X100016222Y-132459564D01*
X100000500Y-132399132D01*
X100000500Y-130068046D01*
X100016222Y-130007614D01*
X100058368Y-129963589D01*
X100016222Y-129919564D01*
X100000500Y-129859132D01*
X100000500Y-127528046D01*
X100016222Y-127467614D01*
X100058368Y-127423589D01*
X100016222Y-127379564D01*
X100000500Y-127319132D01*
X100000500Y-124988046D01*
X100016222Y-124927614D01*
X100058368Y-124883589D01*
X100016222Y-124839564D01*
X100000500Y-124779132D01*
X100000500Y-122448046D01*
X100016222Y-122387614D01*
X100058368Y-122343588D01*
X100016222Y-122299564D01*
X100000500Y-122239132D01*
X100000500Y-119908046D01*
X100016222Y-119847614D01*
X100058368Y-119803589D01*
X100016222Y-119759564D01*
X100000500Y-119699132D01*
X100000500Y-117368046D01*
X100016222Y-117307614D01*
X100058368Y-117263589D01*
X100016222Y-117219564D01*
X100000500Y-117159132D01*
X100000500Y-115660713D01*
X100016023Y-115600639D01*
X100058707Y-115555607D01*
X100117864Y-115536891D01*
X100178682Y-115549177D01*
X100225934Y-115589389D01*
X100247789Y-115647459D01*
X100251403Y-115681072D01*
X100301698Y-115815920D01*
X100387948Y-115931135D01*
X100503163Y-116017385D01*
X100615401Y-116059247D01*
X100634576Y-116066399D01*
X100684956Y-116101378D01*
X100712409Y-116156223D01*
X100710220Y-116217515D01*
X100678925Y-116270262D01*
X100556997Y-116392190D01*
X100421459Y-116585759D01*
X100321591Y-116799925D01*
X100260430Y-117028181D01*
X100248028Y-117169939D01*
X100227098Y-117228771D01*
X100187395Y-117263589D01*
X100227098Y-117298407D01*
X100248028Y-117357239D01*
X100260430Y-117498996D01*
X100278411Y-117566100D01*
X100321591Y-117727252D01*
X100421459Y-117941419D01*
X100556999Y-118134990D01*
X100724093Y-118302084D01*
X100909654Y-118432015D01*
X100948518Y-118476332D01*
X100962529Y-118533589D01*
X100948518Y-118590846D01*
X100909653Y-118635164D01*
X100724089Y-118765097D01*
X100556999Y-118932187D01*
X100421459Y-119125759D01*
X100321591Y-119339925D01*
X100260430Y-119568181D01*
X100248028Y-119709939D01*
X100227098Y-119768771D01*
X100187395Y-119803589D01*
X100227098Y-119838407D01*
X100248028Y-119897239D01*
X100260430Y-120038996D01*
X100298867Y-120182445D01*
X100321591Y-120267252D01*
X100421459Y-120481419D01*
X100556999Y-120674990D01*
X100724093Y-120842084D01*
X100909654Y-120972015D01*
X100948518Y-121016332D01*
X100962529Y-121073589D01*
X100948518Y-121130846D01*
X100909653Y-121175164D01*
X100724089Y-121305097D01*
X100556999Y-121472187D01*
X100421459Y-121665759D01*
X100321591Y-121879925D01*
X100260430Y-122108181D01*
X100248028Y-122249939D01*
X100227098Y-122308771D01*
X100187395Y-122343589D01*
X100227098Y-122378407D01*
X100248028Y-122437239D01*
X100260430Y-122578996D01*
X100278411Y-122646100D01*
X100321591Y-122807252D01*
X100421459Y-123021419D01*
X100556999Y-123214990D01*
X100724093Y-123382084D01*
X100909654Y-123512015D01*
X100948518Y-123556332D01*
X100962529Y-123613589D01*
X100948518Y-123670846D01*
X100909653Y-123715164D01*
X100724089Y-123845097D01*
X100556999Y-124012187D01*
X100421459Y-124205759D01*
X100321591Y-124419925D01*
X100260430Y-124648181D01*
X100248028Y-124789939D01*
X100227098Y-124848771D01*
X100187395Y-124883589D01*
X100227098Y-124918407D01*
X100248028Y-124977239D01*
X100260430Y-125118996D01*
X100278411Y-125186100D01*
X100321591Y-125347252D01*
X100421459Y-125561419D01*
X100556999Y-125754990D01*
X100724093Y-125922084D01*
X100909654Y-126052015D01*
X100948518Y-126096332D01*
X100962529Y-126153589D01*
X100948518Y-126210846D01*
X100909654Y-126255163D01*
X100810097Y-126324874D01*
X100724089Y-126385097D01*
X100556999Y-126552187D01*
X100421459Y-126745759D01*
X100321591Y-126959925D01*
X100260430Y-127188181D01*
X100248028Y-127329939D01*
X100227098Y-127388771D01*
X100187395Y-127423589D01*
X100227098Y-127458407D01*
X100248028Y-127517239D01*
X100260430Y-127658996D01*
X100279964Y-127731897D01*
X100321591Y-127887252D01*
X100421459Y-128101419D01*
X100556999Y-128294990D01*
X100724093Y-128462084D01*
X100909654Y-128592015D01*
X100948518Y-128636332D01*
X100962529Y-128693589D01*
X100948518Y-128750846D01*
X100909653Y-128795164D01*
X100724089Y-128925097D01*
X100556999Y-129092187D01*
X100421459Y-129285759D01*
X100321591Y-129499925D01*
X100260430Y-129728181D01*
X100248028Y-129869939D01*
X100227098Y-129928771D01*
X100187395Y-129963589D01*
X100227098Y-129998407D01*
X100248028Y-130057239D01*
X100260430Y-130198996D01*
X100300123Y-130347132D01*
X100321591Y-130427252D01*
X100421459Y-130641419D01*
X100556999Y-130834990D01*
X100724093Y-131002084D01*
X100909654Y-131132015D01*
X100948518Y-131176332D01*
X100962529Y-131233589D01*
X100948518Y-131290846D01*
X100909653Y-131335164D01*
X100724089Y-131465097D01*
X100556999Y-131632187D01*
X100421459Y-131825759D01*
X100321591Y-132039925D01*
X100260430Y-132268181D01*
X100248028Y-132409939D01*
X100227098Y-132468771D01*
X100187395Y-132503589D01*
X100227098Y-132538407D01*
X100248028Y-132597239D01*
X100260430Y-132738996D01*
X100305203Y-132906091D01*
X100321591Y-132967252D01*
X100421459Y-133181419D01*
X100556999Y-133374990D01*
X100724093Y-133542084D01*
X100909654Y-133672015D01*
X100948518Y-133716332D01*
X100962529Y-133773589D01*
X100948518Y-133830846D01*
X100909653Y-133875164D01*
X100724089Y-134005097D01*
X100556999Y-134172187D01*
X100421459Y-134365759D01*
X100321591Y-134579925D01*
X100260430Y-134808181D01*
X100248028Y-134949939D01*
X100227098Y-135008771D01*
X100187395Y-135043589D01*
X100227098Y-135078407D01*
X100248028Y-135137239D01*
X100260430Y-135278996D01*
X100287342Y-135379431D01*
X100321591Y-135507252D01*
X100421459Y-135721419D01*
X100556999Y-135914990D01*
X100724093Y-136082084D01*
X100909654Y-136212015D01*
X100948518Y-136256332D01*
X100962529Y-136313589D01*
X100948518Y-136370846D01*
X100909653Y-136415164D01*
X100724089Y-136545097D01*
X100556999Y-136712187D01*
X100421459Y-136905759D01*
X100321591Y-137119925D01*
X100260430Y-137348181D01*
X100248028Y-137489939D01*
X100227098Y-137548771D01*
X100187395Y-137583589D01*
X100227098Y-137618407D01*
X100248028Y-137677239D01*
X100260430Y-137818996D01*
X100291250Y-137934018D01*
X100321591Y-138047252D01*
X100421459Y-138261419D01*
X100556999Y-138454990D01*
X100724093Y-138622084D01*
X100909654Y-138752015D01*
X100948518Y-138796332D01*
X100962529Y-138853589D01*
X100948518Y-138910846D01*
X100909653Y-138955164D01*
X100724089Y-139085097D01*
X100556999Y-139252187D01*
X100421459Y-139445759D01*
X100321591Y-139659925D01*
X100260430Y-139888181D01*
X100248028Y-140029939D01*
X100227098Y-140088771D01*
X100187395Y-140123589D01*
X100227098Y-140158407D01*
X100248028Y-140217239D01*
X100260430Y-140358996D01*
X100300196Y-140507404D01*
X100321591Y-140587252D01*
X100421459Y-140801419D01*
X100556999Y-140994990D01*
X100724093Y-141162084D01*
X100910091Y-141292321D01*
X100948954Y-141336637D01*
X100962965Y-141393894D01*
X100948955Y-141451150D01*
X100910089Y-141495469D01*
X100724413Y-141625481D01*
X100557384Y-141792510D01*
X100421894Y-141986010D01*
X100322063Y-142200096D01*
X100264858Y-142413588D01*
X100264858Y-142413589D01*
X102926130Y-142413589D01*
X102926129Y-142413588D01*
X102868924Y-142200096D01*
X102769093Y-141986010D01*
X102633603Y-141792510D01*
X102466575Y-141625482D01*
X102280898Y-141495469D01*
X102242033Y-141451151D01*
X102228022Y-141393894D01*
X102242033Y-141336637D01*
X102280896Y-141292321D01*
X102466895Y-141162084D01*
X102633989Y-140994990D01*
X102769529Y-140801419D01*
X102869397Y-140587252D01*
X102930557Y-140358997D01*
X102951153Y-140123589D01*
X102949445Y-140104072D01*
X102944287Y-140045119D01*
X102930557Y-139888181D01*
X102903637Y-139787715D01*
X102903637Y-139723528D01*
X102935729Y-139667942D01*
X104523788Y-138079883D01*
X104539885Y-138066989D01*
X104541873Y-138064870D01*
X104541877Y-138064869D01*
X104587948Y-138015806D01*
X104590566Y-138013106D01*
X104610120Y-137993554D01*
X104612581Y-137990381D01*
X104620156Y-137981510D01*
X104650062Y-137949665D01*
X104659712Y-137932110D01*
X104670400Y-137915840D01*
X104682673Y-137900019D01*
X104700026Y-137859915D01*
X104705157Y-137849445D01*
X104726197Y-137811175D01*
X104731175Y-137791782D01*
X104737481Y-137773365D01*
X104742495Y-137761779D01*
X104745438Y-137754979D01*
X104752272Y-137711828D01*
X104754635Y-137700414D01*
X104765500Y-137658102D01*
X104765500Y-137638067D01*
X104767027Y-137618668D01*
X104767068Y-137618407D01*
X104770160Y-137598887D01*
X104766050Y-137555408D01*
X104765500Y-137543739D01*
X104765500Y-136228030D01*
X105373577Y-136228030D01*
X105376552Y-136256332D01*
X105393363Y-136416287D01*
X105451857Y-136596314D01*
X105546503Y-136760246D01*
X105673166Y-136900919D01*
X105826306Y-137012181D01*
X105999234Y-137089174D01*
X106184389Y-137128530D01*
X106184391Y-137128530D01*
X106243585Y-137128530D01*
X106291038Y-137137969D01*
X106331266Y-137164849D01*
X106376956Y-137210539D01*
X106403836Y-137250767D01*
X106413275Y-137298220D01*
X106413275Y-139516116D01*
X106399264Y-139573373D01*
X106360398Y-139617691D01*
X106199634Y-139730257D01*
X106038728Y-139891163D01*
X105908207Y-140077568D01*
X105812036Y-140283806D01*
X105753139Y-140503614D01*
X105733306Y-140730304D01*
X105753139Y-140956993D01*
X105812036Y-141176801D01*
X105908207Y-141383039D01*
X106038728Y-141569444D01*
X106199634Y-141730350D01*
X106360398Y-141842917D01*
X106399264Y-141887235D01*
X106413275Y-141944492D01*
X106413275Y-144340064D01*
X106405039Y-144384502D01*
X106381427Y-144423033D01*
X106345991Y-144462388D01*
X106301700Y-144511578D01*
X106207056Y-144675507D01*
X106148562Y-144855534D01*
X106128776Y-145043792D01*
X106148562Y-145232049D01*
X106207056Y-145412076D01*
X106301702Y-145576008D01*
X106428365Y-145716681D01*
X106581505Y-145827943D01*
X106754433Y-145904936D01*
X106939588Y-145944292D01*
X106939590Y-145944292D01*
X107128882Y-145944292D01*
X107128884Y-145944292D01*
X107252319Y-145918054D01*
X107314039Y-145904936D01*
X107486966Y-145827943D01*
X107640107Y-145716680D01*
X107766769Y-145576008D01*
X107861415Y-145412076D01*
X107919910Y-145232048D01*
X107939696Y-145043792D01*
X107919910Y-144855536D01*
X107879961Y-144732587D01*
X107861415Y-144675507D01*
X107766771Y-144511578D01*
X107729882Y-144470609D01*
X107696123Y-144433115D01*
X107672511Y-144394584D01*
X107664275Y-144350146D01*
X107664275Y-142852021D01*
X113977926Y-142852021D01*
X113983640Y-142906390D01*
X113997712Y-143040278D01*
X114056206Y-143220305D01*
X114150852Y-143384237D01*
X114277515Y-143524910D01*
X114430655Y-143636172D01*
X114603583Y-143713165D01*
X114788738Y-143752521D01*
X114788740Y-143752521D01*
X114847934Y-143752521D01*
X114895387Y-143761960D01*
X114935615Y-143788840D01*
X116820578Y-145673803D01*
X116852093Y-145727305D01*
X116853719Y-145789377D01*
X116825047Y-145844456D01*
X116773754Y-145901422D01*
X116679108Y-146065354D01*
X116620614Y-146245381D01*
X116600828Y-146433639D01*
X116620614Y-146621896D01*
X116679108Y-146801923D01*
X116773754Y-146965855D01*
X116900417Y-147106528D01*
X117053557Y-147217790D01*
X117226485Y-147294783D01*
X117411640Y-147334139D01*
X117411642Y-147334139D01*
X117600934Y-147334139D01*
X117600936Y-147334139D01*
X117734302Y-147305791D01*
X117786091Y-147294783D01*
X117959018Y-147217790D01*
X118112159Y-147106527D01*
X118238821Y-146965855D01*
X118333467Y-146801923D01*
X118391962Y-146621895D01*
X118411748Y-146433639D01*
X118391962Y-146245383D01*
X118333467Y-146065355D01*
X118333467Y-146065354D01*
X118238823Y-145901425D01*
X118219997Y-145880517D01*
X118163635Y-145817921D01*
X118140024Y-145779390D01*
X118131788Y-145734952D01*
X118131788Y-145557667D01*
X118134052Y-145537159D01*
X118131849Y-145467036D01*
X118131788Y-145463142D01*
X118131788Y-145435577D01*
X118131788Y-145435573D01*
X118131285Y-145431593D01*
X118130369Y-145419951D01*
X118129169Y-145381753D01*
X118128998Y-145376296D01*
X118123406Y-145357049D01*
X118119462Y-145338008D01*
X118116952Y-145318131D01*
X118100867Y-145277506D01*
X118097096Y-145266491D01*
X118084906Y-145224533D01*
X118074702Y-145207278D01*
X118066149Y-145189818D01*
X118058774Y-145171192D01*
X118058774Y-145171191D01*
X118033096Y-145135848D01*
X118026689Y-145126094D01*
X118025205Y-145123584D01*
X118004458Y-145088503D01*
X117990293Y-145074338D01*
X117977708Y-145059602D01*
X119968625Y-145059602D01*
X119988458Y-145286292D01*
X120047355Y-145506100D01*
X120143526Y-145712338D01*
X120274047Y-145898743D01*
X120434953Y-146059649D01*
X120621358Y-146190170D01*
X120621359Y-146190170D01*
X120621360Y-146190171D01*
X120827598Y-146286342D01*
X121047402Y-146345238D01*
X121274094Y-146365071D01*
X121500786Y-146345238D01*
X121720590Y-146286342D01*
X121926828Y-146190171D01*
X122113233Y-146059650D01*
X122274141Y-145898742D01*
X122404662Y-145712337D01*
X122500833Y-145506099D01*
X122559729Y-145286295D01*
X122579562Y-145059603D01*
X122579556Y-145059540D01*
X122569990Y-144950196D01*
X122559729Y-144832911D01*
X122500833Y-144613107D01*
X122404662Y-144406869D01*
X122398273Y-144397745D01*
X122274140Y-144220462D01*
X122113234Y-144059556D01*
X121926827Y-143929034D01*
X121868819Y-143901985D01*
X121816643Y-143856228D01*
X121797223Y-143789603D01*
X121816643Y-143722978D01*
X121868819Y-143677221D01*
X121926828Y-143650171D01*
X122113233Y-143519650D01*
X122274141Y-143358742D01*
X122404662Y-143172337D01*
X122500833Y-142966099D01*
X122559729Y-142746295D01*
X122579562Y-142519603D01*
X122559729Y-142292911D01*
X122500833Y-142073107D01*
X122404662Y-141866869D01*
X122366474Y-141812331D01*
X122274140Y-141680462D01*
X122113234Y-141519556D01*
X121926827Y-141389034D01*
X121868819Y-141361985D01*
X121816643Y-141316228D01*
X121797223Y-141249603D01*
X121816643Y-141182978D01*
X121868819Y-141137221D01*
X121926828Y-141110171D01*
X122113233Y-140979650D01*
X122274141Y-140818742D01*
X122404662Y-140632337D01*
X122500833Y-140426099D01*
X122559729Y-140206295D01*
X122579562Y-139979603D01*
X122559729Y-139752911D01*
X122500833Y-139533107D01*
X122404662Y-139326869D01*
X122403220Y-139324810D01*
X122274140Y-139140462D01*
X122113234Y-138979556D01*
X121926827Y-138849034D01*
X121868819Y-138821985D01*
X121816643Y-138776228D01*
X121797223Y-138709603D01*
X121816643Y-138642978D01*
X121868819Y-138597221D01*
X121926828Y-138570171D01*
X122113233Y-138439650D01*
X122274141Y-138278742D01*
X122404662Y-138092337D01*
X122500833Y-137886099D01*
X122559729Y-137666295D01*
X122579562Y-137439603D01*
X122559729Y-137212911D01*
X122500833Y-136993107D01*
X122404662Y-136786869D01*
X122403304Y-136784930D01*
X122274140Y-136600462D01*
X122113234Y-136439556D01*
X121926827Y-136309034D01*
X121868819Y-136281985D01*
X121816643Y-136236228D01*
X121797223Y-136169603D01*
X121816643Y-136102978D01*
X121868819Y-136057221D01*
X121869411Y-136056945D01*
X121926828Y-136030171D01*
X122113233Y-135899650D01*
X122274141Y-135738742D01*
X122404662Y-135552337D01*
X122500833Y-135346099D01*
X122559729Y-135126295D01*
X122579562Y-134899603D01*
X122559729Y-134672911D01*
X122500833Y-134453107D01*
X122404662Y-134246869D01*
X122400462Y-134240871D01*
X122274140Y-134060462D01*
X122113234Y-133899556D01*
X121926826Y-133769033D01*
X121868818Y-133741983D01*
X121816643Y-133696226D01*
X121797224Y-133629600D01*
X121816644Y-133562976D01*
X121868815Y-133517222D01*
X121926828Y-133490171D01*
X122113233Y-133359650D01*
X122274141Y-133198742D01*
X122404662Y-133012337D01*
X122500833Y-132806099D01*
X122559729Y-132586295D01*
X122579562Y-132359603D01*
X127588625Y-132359603D01*
X127608458Y-132586292D01*
X127667355Y-132806100D01*
X127763526Y-133012338D01*
X127894047Y-133198743D01*
X128054953Y-133359649D01*
X128241358Y-133490170D01*
X128241359Y-133490170D01*
X128241360Y-133490171D01*
X128299959Y-133517496D01*
X128352134Y-133563253D01*
X128371554Y-133629877D01*
X128352135Y-133696502D01*
X128299960Y-133742259D01*
X128241616Y-133769466D01*
X128055274Y-133899944D01*
X127894435Y-134060783D01*
X127763959Y-134247122D01*
X127667827Y-134453276D01*
X127615222Y-134649602D01*
X127615222Y-134649603D01*
X130172966Y-134649603D01*
X130172965Y-134649602D01*
X130120360Y-134453276D01*
X130049074Y-134300405D01*
X131325346Y-134300405D01*
X131345171Y-134527007D01*
X131404046Y-134746731D01*
X131500179Y-134952889D01*
X131551285Y-135025876D01*
X131551287Y-135025877D01*
X132276759Y-134300406D01*
X132983866Y-134300406D01*
X133709338Y-135025877D01*
X133760447Y-134952885D01*
X133856579Y-134746731D01*
X133915454Y-134527007D01*
X133935279Y-134300404D01*
X133915454Y-134073802D01*
X133856579Y-133854078D01*
X133760446Y-133647920D01*
X133709338Y-133574931D01*
X132983866Y-134300405D01*
X132983866Y-134300406D01*
X132276759Y-134300406D01*
X132276759Y-134300405D01*
X131551286Y-133574931D01*
X131551286Y-133574932D01*
X131500178Y-133647921D01*
X131404046Y-133854077D01*
X131345171Y-134073802D01*
X131325346Y-134300405D01*
X130049074Y-134300405D01*
X130024228Y-134247122D01*
X129893752Y-134060783D01*
X129732913Y-133899944D01*
X129546576Y-133769469D01*
X129488227Y-133742260D01*
X129436052Y-133696502D01*
X129416633Y-133629877D01*
X129436053Y-133563252D01*
X129488228Y-133517496D01*
X129546828Y-133490171D01*
X129733233Y-133359650D01*
X129871505Y-133221378D01*
X131904839Y-133221378D01*
X132630313Y-133946851D01*
X132630314Y-133946851D01*
X133355785Y-133221379D01*
X133355784Y-133221377D01*
X133282797Y-133170271D01*
X133076639Y-133074138D01*
X132856915Y-133015263D01*
X132630313Y-132995438D01*
X132403710Y-133015263D01*
X132183985Y-133074138D01*
X131977829Y-133170270D01*
X131904840Y-133221378D01*
X131904839Y-133221378D01*
X129871505Y-133221378D01*
X129894141Y-133198742D01*
X130024662Y-133012337D01*
X130120833Y-132806099D01*
X130179729Y-132586295D01*
X130199562Y-132359603D01*
X130179729Y-132132911D01*
X130120833Y-131913107D01*
X130024662Y-131706869D01*
X130013581Y-131691044D01*
X129894140Y-131520462D01*
X129733234Y-131359556D01*
X129546827Y-131229034D01*
X129488819Y-131201985D01*
X129436643Y-131156228D01*
X129417223Y-131089603D01*
X129436643Y-131022978D01*
X129488819Y-130977221D01*
X129489411Y-130976945D01*
X129546828Y-130950171D01*
X129733233Y-130819650D01*
X129894141Y-130658742D01*
X130024662Y-130472337D01*
X130120833Y-130266099D01*
X130179729Y-130046295D01*
X130199562Y-129819603D01*
X130179729Y-129592911D01*
X130120833Y-129373107D01*
X130024662Y-129166869D01*
X129984130Y-129108983D01*
X129894140Y-128980462D01*
X129733234Y-128819556D01*
X129546830Y-128689036D01*
X129488817Y-128661984D01*
X129436642Y-128616226D01*
X129417223Y-128549600D01*
X129436643Y-128482975D01*
X129488815Y-128437222D01*
X129546828Y-128410171D01*
X129733233Y-128279650D01*
X129894141Y-128118742D01*
X130024662Y-127932337D01*
X130120833Y-127726099D01*
X130179729Y-127506295D01*
X130199562Y-127279603D01*
X130179729Y-127052911D01*
X130120833Y-126833107D01*
X130031929Y-126642453D01*
X134093606Y-126642453D01*
X134166595Y-126693560D01*
X134372753Y-126789693D01*
X134592477Y-126848568D01*
X134819080Y-126868393D01*
X135045682Y-126848568D01*
X135265406Y-126789693D01*
X135471560Y-126693561D01*
X135544552Y-126642452D01*
X134819081Y-125916980D01*
X134819080Y-125916980D01*
X134093606Y-126642452D01*
X134093606Y-126642453D01*
X130031929Y-126642453D01*
X130024662Y-126626869D01*
X129972370Y-126552188D01*
X129894140Y-126440462D01*
X129733234Y-126279556D01*
X129546826Y-126149033D01*
X129488818Y-126121983D01*
X129436643Y-126076226D01*
X129417224Y-126009600D01*
X129436644Y-125942976D01*
X129488815Y-125897222D01*
X129546828Y-125870171D01*
X129733233Y-125739650D01*
X129894141Y-125578742D01*
X129904865Y-125563426D01*
X133514113Y-125563426D01*
X133533938Y-125790029D01*
X133592813Y-126009753D01*
X133688946Y-126215911D01*
X133740052Y-126288898D01*
X133740054Y-126288899D01*
X134465526Y-125563428D01*
X135172633Y-125563428D01*
X135898105Y-126288899D01*
X135949214Y-126215907D01*
X136045346Y-126009753D01*
X136104221Y-125790029D01*
X136124046Y-125563426D01*
X136104221Y-125336824D01*
X136045346Y-125117100D01*
X135949213Y-124910942D01*
X135898105Y-124837953D01*
X135172633Y-125563427D01*
X135172633Y-125563428D01*
X134465526Y-125563428D01*
X134465526Y-125563427D01*
X133740053Y-124837953D01*
X133740053Y-124837954D01*
X133688945Y-124910943D01*
X133592813Y-125117099D01*
X133533938Y-125336824D01*
X133514113Y-125563426D01*
X129904865Y-125563426D01*
X130024662Y-125392337D01*
X130120833Y-125186099D01*
X130179729Y-124966295D01*
X130199562Y-124739603D01*
X130179729Y-124512911D01*
X130172090Y-124484400D01*
X134093606Y-124484400D01*
X134819080Y-125209873D01*
X134819081Y-125209873D01*
X135544552Y-124484401D01*
X135544551Y-124484399D01*
X135471564Y-124433293D01*
X135265406Y-124337160D01*
X135045682Y-124278285D01*
X134819080Y-124258460D01*
X134592477Y-124278285D01*
X134372752Y-124337160D01*
X134166596Y-124433292D01*
X134093607Y-124484400D01*
X134093606Y-124484400D01*
X130172090Y-124484400D01*
X130120833Y-124293107D01*
X130024662Y-124086869D01*
X129972370Y-124012188D01*
X129894140Y-123900462D01*
X129733234Y-123739556D01*
X129546830Y-123609036D01*
X129488817Y-123581984D01*
X129436642Y-123536226D01*
X129417223Y-123469600D01*
X129436643Y-123402975D01*
X129488815Y-123357222D01*
X129546828Y-123330171D01*
X129733233Y-123199650D01*
X129894141Y-123038742D01*
X130024662Y-122852337D01*
X130120833Y-122646099D01*
X130179729Y-122426295D01*
X130199562Y-122199603D01*
X130179729Y-121972911D01*
X130120833Y-121753107D01*
X130024662Y-121546869D01*
X129988194Y-121494787D01*
X129894140Y-121360462D01*
X129733234Y-121199556D01*
X129546827Y-121069034D01*
X129488819Y-121041985D01*
X129480705Y-121034869D01*
X134111695Y-121034869D01*
X134184684Y-121085976D01*
X134390842Y-121182109D01*
X134610566Y-121240984D01*
X134837169Y-121260809D01*
X135063771Y-121240984D01*
X135283495Y-121182109D01*
X135489649Y-121085977D01*
X135562641Y-121034868D01*
X134837170Y-120309396D01*
X134837169Y-120309396D01*
X134111695Y-121034868D01*
X134111695Y-121034869D01*
X129480705Y-121034869D01*
X129436643Y-120996228D01*
X129417223Y-120929603D01*
X129436643Y-120862978D01*
X129488819Y-120817221D01*
X129546828Y-120790171D01*
X129733233Y-120659650D01*
X129894141Y-120498742D01*
X130024662Y-120312337D01*
X130120833Y-120106099D01*
X130161094Y-119955842D01*
X133532202Y-119955842D01*
X133552027Y-120182445D01*
X133610902Y-120402169D01*
X133707035Y-120608327D01*
X133758141Y-120681314D01*
X133758143Y-120681315D01*
X134483615Y-119955844D01*
X135190722Y-119955844D01*
X135916194Y-120681315D01*
X135967303Y-120608323D01*
X136063435Y-120402169D01*
X136122310Y-120182445D01*
X136142135Y-119955842D01*
X136122310Y-119729240D01*
X136063435Y-119509516D01*
X135967302Y-119303358D01*
X135916194Y-119230369D01*
X135190722Y-119955843D01*
X135190722Y-119955844D01*
X134483615Y-119955844D01*
X134483615Y-119955843D01*
X133758142Y-119230369D01*
X133758142Y-119230370D01*
X133707034Y-119303359D01*
X133610902Y-119509515D01*
X133552027Y-119729240D01*
X133532202Y-119955842D01*
X130161094Y-119955842D01*
X130179729Y-119886295D01*
X130199562Y-119659603D01*
X130179729Y-119432911D01*
X130120833Y-119213107D01*
X130024662Y-119006869D01*
X129972370Y-118932188D01*
X129933599Y-118876816D01*
X134111695Y-118876816D01*
X134837169Y-119602289D01*
X134837170Y-119602289D01*
X135562641Y-118876817D01*
X135562640Y-118876815D01*
X135489653Y-118825709D01*
X135283495Y-118729576D01*
X135063771Y-118670701D01*
X134837169Y-118650876D01*
X134610566Y-118670701D01*
X134390841Y-118729576D01*
X134184685Y-118825708D01*
X134111696Y-118876816D01*
X134111695Y-118876816D01*
X129933599Y-118876816D01*
X129894140Y-118820462D01*
X129733234Y-118659556D01*
X129546826Y-118529033D01*
X129488818Y-118501983D01*
X129436643Y-118456226D01*
X129417224Y-118389600D01*
X129436644Y-118322976D01*
X129488815Y-118277222D01*
X129546828Y-118250171D01*
X129733233Y-118119650D01*
X129894141Y-117958742D01*
X130024662Y-117772337D01*
X130120833Y-117566099D01*
X130179729Y-117346295D01*
X130199562Y-117119603D01*
X130179729Y-116892911D01*
X130120833Y-116673107D01*
X130024662Y-116466869D01*
X129972370Y-116392188D01*
X129894140Y-116280462D01*
X129733234Y-116119556D01*
X129546830Y-115989036D01*
X129488819Y-115961985D01*
X129488226Y-115961708D01*
X129436052Y-115915951D01*
X129416633Y-115849326D01*
X129436053Y-115782701D01*
X129488229Y-115736945D01*
X129546573Y-115709738D01*
X129732913Y-115579261D01*
X129893752Y-115418422D01*
X130024228Y-115232083D01*
X130120360Y-115025929D01*
X130172966Y-114829603D01*
X127615222Y-114829603D01*
X127667827Y-115025929D01*
X127763959Y-115232083D01*
X127894435Y-115418422D01*
X128055274Y-115579261D01*
X128241613Y-115709737D01*
X128299959Y-115736945D01*
X128352134Y-115782702D01*
X128371554Y-115849326D01*
X128352135Y-115915951D01*
X128299960Y-115961708D01*
X128241361Y-115989033D01*
X128054953Y-116119556D01*
X127894047Y-116280462D01*
X127763526Y-116466867D01*
X127667355Y-116673105D01*
X127608458Y-116892913D01*
X127588625Y-117119603D01*
X127608458Y-117346292D01*
X127667355Y-117566100D01*
X127763526Y-117772338D01*
X127894047Y-117958743D01*
X128054953Y-118119649D01*
X128241356Y-118250168D01*
X128241360Y-118250171D01*
X128299369Y-118277221D01*
X128351544Y-118322978D01*
X128370963Y-118389603D01*
X128351544Y-118456228D01*
X128299369Y-118501985D01*
X128241357Y-118529036D01*
X128054953Y-118659556D01*
X127894047Y-118820462D01*
X127763526Y-119006867D01*
X127667355Y-119213105D01*
X127608458Y-119432913D01*
X127588625Y-119659603D01*
X127608458Y-119886292D01*
X127667355Y-120106100D01*
X127763526Y-120312338D01*
X127894047Y-120498743D01*
X128054953Y-120659649D01*
X128241357Y-120790169D01*
X128241360Y-120790171D01*
X128299369Y-120817221D01*
X128351544Y-120862978D01*
X128370963Y-120929603D01*
X128351544Y-120996228D01*
X128299369Y-121041985D01*
X128241357Y-121069036D01*
X128054953Y-121199556D01*
X127894047Y-121360462D01*
X127763526Y-121546867D01*
X127667355Y-121753105D01*
X127608458Y-121972913D01*
X127588625Y-122199603D01*
X127608458Y-122426292D01*
X127667355Y-122646100D01*
X127763526Y-122852338D01*
X127894047Y-123038743D01*
X128054953Y-123199649D01*
X128241357Y-123330169D01*
X128241360Y-123330171D01*
X128299369Y-123357221D01*
X128351544Y-123402978D01*
X128370963Y-123469603D01*
X128351544Y-123536228D01*
X128299369Y-123581985D01*
X128241357Y-123609036D01*
X128054953Y-123739556D01*
X127894047Y-123900462D01*
X127763526Y-124086867D01*
X127667355Y-124293105D01*
X127608458Y-124512913D01*
X127588625Y-124739603D01*
X127608458Y-124966292D01*
X127667355Y-125186100D01*
X127763526Y-125392338D01*
X127894047Y-125578743D01*
X128054953Y-125739649D01*
X128241356Y-125870168D01*
X128241360Y-125870171D01*
X128299369Y-125897221D01*
X128351544Y-125942978D01*
X128370963Y-126009603D01*
X128351544Y-126076228D01*
X128299369Y-126121985D01*
X128241357Y-126149036D01*
X128054953Y-126279556D01*
X127894047Y-126440462D01*
X127763526Y-126626867D01*
X127667355Y-126833105D01*
X127608458Y-127052913D01*
X127588625Y-127279603D01*
X127608458Y-127506292D01*
X127667355Y-127726100D01*
X127763526Y-127932338D01*
X127894047Y-128118743D01*
X128054953Y-128279649D01*
X128241357Y-128410169D01*
X128241360Y-128410171D01*
X128299369Y-128437221D01*
X128351544Y-128482978D01*
X128370963Y-128549603D01*
X128351544Y-128616228D01*
X128299369Y-128661985D01*
X128241357Y-128689036D01*
X128054953Y-128819556D01*
X127894047Y-128980462D01*
X127763526Y-129166867D01*
X127667355Y-129373105D01*
X127608458Y-129592913D01*
X127588625Y-129819603D01*
X127608458Y-130046292D01*
X127667355Y-130266100D01*
X127763526Y-130472338D01*
X127894047Y-130658743D01*
X128054953Y-130819649D01*
X128241357Y-130950169D01*
X128241360Y-130950171D01*
X128298777Y-130976945D01*
X128299369Y-130977221D01*
X128351544Y-131022978D01*
X128370963Y-131089603D01*
X128351544Y-131156228D01*
X128299369Y-131201985D01*
X128241357Y-131229036D01*
X128054953Y-131359556D01*
X127894047Y-131520462D01*
X127763526Y-131706867D01*
X127667355Y-131913105D01*
X127608458Y-132132913D01*
X127588625Y-132359603D01*
X122579562Y-132359603D01*
X122559729Y-132132911D01*
X122500833Y-131913107D01*
X122404662Y-131706869D01*
X122393581Y-131691044D01*
X122274140Y-131520462D01*
X122113234Y-131359556D01*
X121926830Y-131229036D01*
X121868819Y-131201985D01*
X121868226Y-131201708D01*
X121816052Y-131155951D01*
X121796633Y-131089326D01*
X121816053Y-131022701D01*
X121868229Y-130976945D01*
X121926573Y-130949738D01*
X122112913Y-130819261D01*
X122273752Y-130658422D01*
X122404228Y-130472083D01*
X122500360Y-130265929D01*
X122552966Y-130069603D01*
X119995222Y-130069603D01*
X120047827Y-130265929D01*
X120143959Y-130472083D01*
X120274435Y-130658422D01*
X120435274Y-130819261D01*
X120621613Y-130949737D01*
X120679959Y-130976945D01*
X120732134Y-131022702D01*
X120751554Y-131089326D01*
X120732135Y-131155951D01*
X120679960Y-131201708D01*
X120621361Y-131229033D01*
X120434953Y-131359556D01*
X120274047Y-131520462D01*
X120143526Y-131706867D01*
X120047355Y-131913105D01*
X119988458Y-132132913D01*
X119968625Y-132359603D01*
X119988458Y-132586292D01*
X120047355Y-132806100D01*
X120143526Y-133012338D01*
X120274047Y-133198743D01*
X120434953Y-133359649D01*
X120456867Y-133374993D01*
X120621360Y-133490171D01*
X120679367Y-133517220D01*
X120731543Y-133562976D01*
X120750963Y-133629600D01*
X120731545Y-133696225D01*
X120679370Y-133741983D01*
X120621360Y-133769034D01*
X120434953Y-133899556D01*
X120274047Y-134060462D01*
X120143526Y-134246867D01*
X120047355Y-134453105D01*
X119988458Y-134672913D01*
X119968625Y-134899602D01*
X119988458Y-135126292D01*
X120047355Y-135346100D01*
X120143526Y-135552338D01*
X120274047Y-135738743D01*
X120434953Y-135899649D01*
X120621357Y-136030169D01*
X120621360Y-136030171D01*
X120678777Y-136056945D01*
X120679369Y-136057221D01*
X120731544Y-136102978D01*
X120750963Y-136169603D01*
X120731544Y-136236228D01*
X120679369Y-136281985D01*
X120621357Y-136309036D01*
X120434953Y-136439556D01*
X120274047Y-136600462D01*
X120143526Y-136786867D01*
X120047355Y-136993105D01*
X119988458Y-137212913D01*
X119968625Y-137439602D01*
X119988458Y-137666292D01*
X120047355Y-137886100D01*
X120143526Y-138092338D01*
X120274047Y-138278743D01*
X120434953Y-138439649D01*
X120597077Y-138553168D01*
X120621360Y-138570171D01*
X120679369Y-138597221D01*
X120731544Y-138642978D01*
X120750963Y-138709603D01*
X120731544Y-138776228D01*
X120679369Y-138821985D01*
X120621357Y-138849036D01*
X120434953Y-138979556D01*
X120274047Y-139140462D01*
X120143526Y-139326867D01*
X120047355Y-139533105D01*
X119988458Y-139752913D01*
X119968625Y-139979602D01*
X119988458Y-140206292D01*
X120047355Y-140426100D01*
X120143526Y-140632338D01*
X120274047Y-140818743D01*
X120434953Y-140979649D01*
X120603105Y-141097389D01*
X120621360Y-141110171D01*
X120679367Y-141137220D01*
X120731543Y-141182976D01*
X120750963Y-141249600D01*
X120731545Y-141316225D01*
X120679370Y-141361983D01*
X120621360Y-141389034D01*
X120434953Y-141519556D01*
X120274047Y-141680462D01*
X120143526Y-141866867D01*
X120047355Y-142073105D01*
X119988458Y-142292913D01*
X119968625Y-142519602D01*
X119988458Y-142746292D01*
X120047355Y-142966100D01*
X120143526Y-143172338D01*
X120274047Y-143358743D01*
X120434953Y-143519649D01*
X120507771Y-143570636D01*
X120621360Y-143650171D01*
X120679369Y-143677221D01*
X120731544Y-143722978D01*
X120750963Y-143789603D01*
X120731544Y-143856228D01*
X120679369Y-143901985D01*
X120621357Y-143929036D01*
X120434953Y-144059556D01*
X120274047Y-144220462D01*
X120143526Y-144406867D01*
X120047355Y-144613105D01*
X119988458Y-144832913D01*
X119968625Y-145059602D01*
X117977708Y-145059602D01*
X117977655Y-145059540D01*
X117965883Y-145043336D01*
X117932229Y-145015496D01*
X117923587Y-145007632D01*
X115822346Y-142906390D01*
X115798106Y-142872092D01*
X115786707Y-142831676D01*
X115769060Y-142663765D01*
X115722219Y-142519603D01*
X115710565Y-142483736D01*
X115615919Y-142319804D01*
X115489256Y-142179131D01*
X115336116Y-142067869D01*
X115163188Y-141990876D01*
X114978034Y-141951521D01*
X114978032Y-141951521D01*
X114788740Y-141951521D01*
X114788738Y-141951521D01*
X114603583Y-141990876D01*
X114430655Y-142067869D01*
X114277515Y-142179131D01*
X114150852Y-142319804D01*
X114056206Y-142483736D01*
X113997712Y-142663763D01*
X113990734Y-142730158D01*
X113977926Y-142852021D01*
X107664275Y-142852021D01*
X107664275Y-141944492D01*
X107678286Y-141887235D01*
X107717152Y-141842917D01*
X107877915Y-141730350D01*
X108038821Y-141569444D01*
X108090618Y-141495469D01*
X108169343Y-141383038D01*
X108265514Y-141176800D01*
X108286792Y-141097389D01*
X109202435Y-141097389D01*
X109222221Y-141285647D01*
X109280715Y-141465674D01*
X109375361Y-141629606D01*
X109502024Y-141770279D01*
X109655164Y-141881541D01*
X109828092Y-141958534D01*
X110013247Y-141997890D01*
X110013249Y-141997890D01*
X110202541Y-141997890D01*
X110202543Y-141997890D01*
X110359898Y-141964443D01*
X110387698Y-141958534D01*
X110560625Y-141881541D01*
X110683166Y-141792510D01*
X110713765Y-141770279D01*
X110749717Y-141730351D01*
X110840428Y-141629606D01*
X110935074Y-141465674D01*
X110993569Y-141285646D01*
X111013355Y-141097390D01*
X110993569Y-140909134D01*
X110938125Y-140738495D01*
X110935074Y-140729105D01*
X110852217Y-140585592D01*
X111756937Y-140585592D01*
X111776770Y-140812281D01*
X111835667Y-141032089D01*
X111931838Y-141238327D01*
X112062359Y-141424732D01*
X112223265Y-141585638D01*
X112409670Y-141716159D01*
X112409671Y-141716159D01*
X112409672Y-141716160D01*
X112615910Y-141812331D01*
X112835714Y-141871227D01*
X113062406Y-141891060D01*
X113289098Y-141871227D01*
X113508902Y-141812331D01*
X113715140Y-141716160D01*
X113901545Y-141585639D01*
X114062453Y-141424731D01*
X114192974Y-141238326D01*
X114289145Y-141032088D01*
X114348041Y-140812284D01*
X114367874Y-140585592D01*
X114348041Y-140358900D01*
X114289145Y-140139096D01*
X114192974Y-139932858D01*
X114168508Y-139897917D01*
X114062452Y-139746451D01*
X113901546Y-139585545D01*
X113715141Y-139455024D01*
X113508903Y-139358853D01*
X113289095Y-139299956D01*
X113062406Y-139280123D01*
X112835716Y-139299956D01*
X112615908Y-139358853D01*
X112409670Y-139455024D01*
X112223265Y-139585545D01*
X112062359Y-139746451D01*
X111931838Y-139932856D01*
X111835667Y-140139094D01*
X111776770Y-140358902D01*
X111756937Y-140585592D01*
X110852217Y-140585592D01*
X110840430Y-140565176D01*
X110802906Y-140523502D01*
X110765242Y-140481672D01*
X110741631Y-140443141D01*
X110733395Y-140398703D01*
X110733395Y-139684915D01*
X110741631Y-139640477D01*
X110765245Y-139601943D01*
X110864523Y-139491683D01*
X110959169Y-139327751D01*
X110969262Y-139296688D01*
X111017664Y-139147723D01*
X111037450Y-138959467D01*
X111017664Y-138771211D01*
X110971834Y-138630161D01*
X110959169Y-138591182D01*
X110864523Y-138427250D01*
X110737860Y-138286577D01*
X110584720Y-138175315D01*
X110411792Y-138098322D01*
X110226638Y-138058967D01*
X110226636Y-138058967D01*
X110037344Y-138058967D01*
X110037342Y-138058967D01*
X109852187Y-138098322D01*
X109679259Y-138175315D01*
X109526119Y-138286577D01*
X109399456Y-138427250D01*
X109304810Y-138591182D01*
X109246316Y-138771209D01*
X109226530Y-138959466D01*
X109246316Y-139147724D01*
X109304810Y-139327751D01*
X109399454Y-139491680D01*
X109399457Y-139491683D01*
X109450546Y-139548424D01*
X109474159Y-139586956D01*
X109482395Y-139631394D01*
X109482395Y-140398703D01*
X109474159Y-140443141D01*
X109450547Y-140481672D01*
X109417440Y-140518441D01*
X109375359Y-140565176D01*
X109280715Y-140729105D01*
X109222221Y-140909132D01*
X109202435Y-141097389D01*
X108286792Y-141097389D01*
X108324410Y-140956996D01*
X108344243Y-140730304D01*
X108324410Y-140503612D01*
X108265514Y-140283808D01*
X108169343Y-140077570D01*
X108110035Y-139992869D01*
X108038821Y-139891163D01*
X107877915Y-139730257D01*
X107717152Y-139617691D01*
X107678286Y-139573373D01*
X107664275Y-139516116D01*
X107664275Y-137070512D01*
X107666539Y-137050005D01*
X107666336Y-137043556D01*
X107664336Y-136979895D01*
X107664275Y-136976000D01*
X107664275Y-136948421D01*
X107663772Y-136944440D01*
X107662855Y-136932787D01*
X107661484Y-136889141D01*
X107655895Y-136869908D01*
X107651949Y-136850850D01*
X107649439Y-136830974D01*
X107633363Y-136790372D01*
X107629579Y-136779321D01*
X107623656Y-136758936D01*
X107617393Y-136737378D01*
X107607189Y-136720123D01*
X107598636Y-136702663D01*
X107591261Y-136684037D01*
X107591261Y-136684036D01*
X107565583Y-136648693D01*
X107559176Y-136638939D01*
X107536944Y-136601347D01*
X107522781Y-136587184D01*
X107510142Y-136572385D01*
X107498370Y-136556181D01*
X107464716Y-136528341D01*
X107456074Y-136520477D01*
X107217997Y-136282399D01*
X107193757Y-136248101D01*
X107182358Y-136207685D01*
X107164711Y-136039774D01*
X107119182Y-135899650D01*
X107106216Y-135859745D01*
X107011570Y-135695813D01*
X106884907Y-135555140D01*
X106731767Y-135443878D01*
X106558839Y-135366885D01*
X106373685Y-135327530D01*
X106373683Y-135327530D01*
X106184391Y-135327530D01*
X106184389Y-135327530D01*
X105999234Y-135366885D01*
X105826306Y-135443878D01*
X105673166Y-135555140D01*
X105546503Y-135695813D01*
X105451857Y-135859745D01*
X105393363Y-136039772D01*
X105379747Y-136169326D01*
X105373577Y-136228030D01*
X104765500Y-136228030D01*
X104765500Y-127211819D01*
X104773736Y-127167381D01*
X104797347Y-127128849D01*
X104872533Y-127045348D01*
X104897698Y-127001762D01*
X104967179Y-126881416D01*
X104981341Y-126837831D01*
X105025674Y-126701388D01*
X105043089Y-126535693D01*
X105568661Y-126535693D01*
X105587827Y-126766992D01*
X105587827Y-126766994D01*
X105587828Y-126766998D01*
X105644805Y-126991993D01*
X105644806Y-126991996D01*
X105720351Y-127164220D01*
X105738038Y-127204542D01*
X105864983Y-127398846D01*
X105959765Y-127501807D01*
X105988537Y-127554558D01*
X105989130Y-127614644D01*
X105961403Y-127667954D01*
X105911868Y-127701969D01*
X105831633Y-127731895D01*
X105716416Y-127818147D01*
X105630166Y-127933361D01*
X105579871Y-128068209D01*
X105573462Y-128127823D01*
X105573462Y-130023562D01*
X105578412Y-130069603D01*
X105579871Y-130083176D01*
X105630166Y-130218024D01*
X105716416Y-130333239D01*
X105831631Y-130419489D01*
X105966479Y-130469784D01*
X106026089Y-130476193D01*
X106224462Y-130476193D01*
X106286462Y-130492806D01*
X106331849Y-130538193D01*
X106348462Y-130600193D01*
X106348462Y-131941498D01*
X106334451Y-131998755D01*
X106295585Y-132043073D01*
X106199634Y-132110257D01*
X106038728Y-132271163D01*
X105908207Y-132457568D01*
X105812036Y-132663806D01*
X105753139Y-132883614D01*
X105733306Y-133110304D01*
X105753139Y-133336993D01*
X105812036Y-133556801D01*
X105908207Y-133763039D01*
X106038728Y-133949444D01*
X106199634Y-134110350D01*
X106386039Y-134240871D01*
X106386040Y-134240871D01*
X106386041Y-134240872D01*
X106592279Y-134337043D01*
X106812083Y-134395939D01*
X107038775Y-134415772D01*
X107265467Y-134395939D01*
X107485271Y-134337043D01*
X107691509Y-134240872D01*
X107877914Y-134110351D01*
X108038822Y-133949443D01*
X108169343Y-133763038D01*
X108265514Y-133556800D01*
X108324410Y-133336996D01*
X108344243Y-133110304D01*
X108324410Y-132883612D01*
X108265514Y-132663808D01*
X108169343Y-132457570D01*
X108100746Y-132359603D01*
X108038821Y-132271163D01*
X107877915Y-132110257D01*
X107691511Y-131979737D01*
X107685661Y-131977009D01*
X107671054Y-131970197D01*
X107618881Y-131924442D01*
X107599462Y-131857817D01*
X107599462Y-130600192D01*
X107616075Y-130538192D01*
X107661462Y-130492805D01*
X107723462Y-130476192D01*
X107921832Y-130476192D01*
X107921834Y-130476192D01*
X107981445Y-130469784D01*
X108116293Y-130419489D01*
X108231508Y-130333239D01*
X108317758Y-130218024D01*
X108368053Y-130083176D01*
X108374462Y-130023566D01*
X108374461Y-128127821D01*
X108368053Y-128068210D01*
X108317758Y-127933362D01*
X108231508Y-127818147D01*
X108116293Y-127731897D01*
X108063319Y-127712139D01*
X108036055Y-127701970D01*
X107986520Y-127667954D01*
X107958793Y-127614644D01*
X107959386Y-127554557D01*
X107988158Y-127501807D01*
X108082941Y-127398846D01*
X108209886Y-127204542D01*
X108303119Y-126991993D01*
X108360096Y-126766998D01*
X108379262Y-126535693D01*
X108360096Y-126304388D01*
X108303119Y-126079393D01*
X108209886Y-125866844D01*
X108082941Y-125672540D01*
X107925746Y-125501780D01*
X107742588Y-125359223D01*
X107538465Y-125248757D01*
X107538461Y-125248755D01*
X107538460Y-125248755D01*
X107318946Y-125173395D01*
X107147243Y-125144743D01*
X107090011Y-125135193D01*
X106857913Y-125135193D01*
X106812126Y-125142833D01*
X106628977Y-125173395D01*
X106409463Y-125248755D01*
X106205334Y-125359224D01*
X106022177Y-125501780D01*
X105864982Y-125672541D01*
X105738038Y-125866843D01*
X105644806Y-126079389D01*
X105644804Y-126079393D01*
X105644805Y-126079393D01*
X105591751Y-126288899D01*
X105587827Y-126304393D01*
X105568661Y-126535693D01*
X105043089Y-126535693D01*
X105045460Y-126513132D01*
X105025674Y-126324876D01*
X104995332Y-126231495D01*
X104967179Y-126144847D01*
X104872535Y-125980918D01*
X104838373Y-125942978D01*
X104797347Y-125897414D01*
X104773736Y-125858883D01*
X104765500Y-125814445D01*
X104765500Y-121375562D01*
X104773736Y-121331124D01*
X104797348Y-121292591D01*
X104904194Y-121173928D01*
X104906720Y-121169554D01*
X104998840Y-121009996D01*
X104998839Y-121009996D01*
X105057335Y-120829968D01*
X105077121Y-120641712D01*
X105061674Y-120494741D01*
X105632315Y-120494741D01*
X105652148Y-120721430D01*
X105711045Y-120941238D01*
X105807216Y-121147476D01*
X105937737Y-121333881D01*
X106098643Y-121494787D01*
X106285048Y-121625308D01*
X106285049Y-121625308D01*
X106285050Y-121625309D01*
X106491288Y-121721480D01*
X106711092Y-121780376D01*
X106937784Y-121800209D01*
X107164476Y-121780376D01*
X107384280Y-121721480D01*
X107590518Y-121625309D01*
X107776923Y-121494788D01*
X107937831Y-121333880D01*
X108068352Y-121147475D01*
X108164523Y-120941237D01*
X108223419Y-120721433D01*
X108243252Y-120494741D01*
X108223419Y-120268049D01*
X108164523Y-120048245D01*
X108068352Y-119842007D01*
X108065831Y-119838407D01*
X107937830Y-119655600D01*
X107776924Y-119494694D01*
X107590519Y-119364173D01*
X107384281Y-119268002D01*
X107164473Y-119209105D01*
X106937784Y-119189272D01*
X106711094Y-119209105D01*
X106491286Y-119268002D01*
X106285048Y-119364173D01*
X106098643Y-119494694D01*
X105937737Y-119655600D01*
X105807216Y-119842005D01*
X105711045Y-120048243D01*
X105652148Y-120268051D01*
X105632315Y-120494741D01*
X105061674Y-120494741D01*
X105057335Y-120453456D01*
X105011483Y-120312338D01*
X104998840Y-120273427D01*
X104904194Y-120109495D01*
X104777531Y-119968822D01*
X104624391Y-119857560D01*
X104451463Y-119780567D01*
X104266309Y-119741212D01*
X104266307Y-119741212D01*
X104077015Y-119741212D01*
X104077013Y-119741212D01*
X103891858Y-119780567D01*
X103718930Y-119857560D01*
X103565790Y-119968822D01*
X103439127Y-120109495D01*
X103344481Y-120273427D01*
X103285987Y-120453454D01*
X103266201Y-120641712D01*
X103285987Y-120829969D01*
X103344481Y-121009996D01*
X103439127Y-121173928D01*
X103482649Y-121222263D01*
X103506264Y-121260798D01*
X103514500Y-121305236D01*
X103514500Y-125814445D01*
X103506264Y-125858883D01*
X103482652Y-125897414D01*
X103460440Y-125922084D01*
X103407464Y-125980918D01*
X103312820Y-126144847D01*
X103254326Y-126324874D01*
X103234540Y-126513132D01*
X103254326Y-126701389D01*
X103312820Y-126881416D01*
X103407464Y-127045345D01*
X103425548Y-127065429D01*
X103482652Y-127128849D01*
X103506264Y-127167381D01*
X103514500Y-127211819D01*
X103514500Y-137268631D01*
X103505061Y-137316084D01*
X103478183Y-137356309D01*
X103240175Y-137594317D01*
X103163301Y-137671191D01*
X103102458Y-137704570D01*
X103033209Y-137700031D01*
X102977244Y-137658995D01*
X102952092Y-137594317D01*
X102930557Y-137348181D01*
X102921957Y-137316084D01*
X102869397Y-137119926D01*
X102769529Y-136905760D01*
X102633989Y-136712188D01*
X102466895Y-136545094D01*
X102281333Y-136415162D01*
X102242469Y-136370846D01*
X102228458Y-136313589D01*
X102242469Y-136256332D01*
X102281333Y-136212015D01*
X102466895Y-136082084D01*
X102633989Y-135914990D01*
X102769529Y-135721419D01*
X102869397Y-135507252D01*
X102930557Y-135278997D01*
X102951153Y-135043589D01*
X102930557Y-134808181D01*
X102869397Y-134579926D01*
X102769529Y-134365760D01*
X102633989Y-134172188D01*
X102466895Y-134005094D01*
X102281333Y-133875162D01*
X102242468Y-133830844D01*
X102228458Y-133773588D01*
X102242469Y-133716331D01*
X102281331Y-133672017D01*
X102466895Y-133542084D01*
X102633989Y-133374990D01*
X102769529Y-133181419D01*
X102869397Y-132967252D01*
X102930557Y-132738997D01*
X102951153Y-132503589D01*
X102930557Y-132268181D01*
X102869397Y-132039926D01*
X102769529Y-131825760D01*
X102633989Y-131632188D01*
X102466895Y-131465094D01*
X102281333Y-131335162D01*
X102242470Y-131290846D01*
X102228459Y-131233589D01*
X102242470Y-131176332D01*
X102281333Y-131132015D01*
X102466895Y-131002084D01*
X102633989Y-130834990D01*
X102769529Y-130641419D01*
X102869397Y-130427252D01*
X102930557Y-130198997D01*
X102951153Y-129963589D01*
X102930557Y-129728181D01*
X102869397Y-129499926D01*
X102769529Y-129285760D01*
X102633989Y-129092188D01*
X102466895Y-128925094D01*
X102281333Y-128795162D01*
X102242470Y-128750846D01*
X102228459Y-128693589D01*
X102242470Y-128636332D01*
X102281333Y-128592015D01*
X102466895Y-128462084D01*
X102633989Y-128294990D01*
X102769529Y-128101419D01*
X102869397Y-127887252D01*
X102930557Y-127658997D01*
X102951153Y-127423589D01*
X102930557Y-127188181D01*
X102869397Y-126959926D01*
X102769529Y-126745760D01*
X102633989Y-126552188D01*
X102466895Y-126385094D01*
X102281333Y-126255162D01*
X102242468Y-126210844D01*
X102228458Y-126153588D01*
X102242469Y-126096331D01*
X102281331Y-126052017D01*
X102466895Y-125922084D01*
X102633989Y-125754990D01*
X102769529Y-125561419D01*
X102869397Y-125347252D01*
X102930557Y-125118997D01*
X102951153Y-124883589D01*
X102930557Y-124648181D01*
X102869397Y-124419926D01*
X102769529Y-124205760D01*
X102633989Y-124012188D01*
X102466895Y-123845094D01*
X102281333Y-123715162D01*
X102242469Y-123670846D01*
X102228458Y-123613589D01*
X102242469Y-123556332D01*
X102281333Y-123512015D01*
X102466895Y-123382084D01*
X102633989Y-123214990D01*
X102769529Y-123021419D01*
X102869397Y-122807252D01*
X102930557Y-122578997D01*
X102951153Y-122343589D01*
X102938555Y-122199602D01*
X102930557Y-122108181D01*
X102894312Y-121972911D01*
X102869397Y-121879926D01*
X102769529Y-121665760D01*
X102633989Y-121472188D01*
X102466895Y-121305094D01*
X102281333Y-121175162D01*
X102242469Y-121130846D01*
X102228458Y-121073589D01*
X102242469Y-121016332D01*
X102281333Y-120972015D01*
X102466895Y-120842084D01*
X102633989Y-120674990D01*
X102769529Y-120481419D01*
X102869397Y-120267252D01*
X102930557Y-120038997D01*
X102951153Y-119803589D01*
X102930557Y-119568181D01*
X102869397Y-119339926D01*
X102769529Y-119125760D01*
X102633989Y-118932188D01*
X102466895Y-118765094D01*
X102281333Y-118635162D01*
X102242469Y-118590846D01*
X102228458Y-118533589D01*
X102242469Y-118476332D01*
X102281333Y-118432015D01*
X102466895Y-118302084D01*
X102633989Y-118134990D01*
X102769529Y-117941419D01*
X102869397Y-117727252D01*
X102930557Y-117498997D01*
X102951153Y-117263589D01*
X102938555Y-117119602D01*
X102930557Y-117028181D01*
X102894312Y-116892911D01*
X102869397Y-116799926D01*
X102769529Y-116585760D01*
X102633989Y-116392188D01*
X102512062Y-116270261D01*
X102480767Y-116217516D01*
X102478578Y-116156223D01*
X102506031Y-116101378D01*
X102556410Y-116066399D01*
X102687825Y-116017385D01*
X102803040Y-115931135D01*
X102889290Y-115815920D01*
X102939585Y-115681072D01*
X102945994Y-115621462D01*
X102945993Y-113825717D01*
X102939585Y-113766106D01*
X102889290Y-113631258D01*
X102803040Y-113516043D01*
X102687825Y-113429793D01*
X102552977Y-113379498D01*
X102493367Y-113373089D01*
X102493363Y-113373089D01*
X100697624Y-113373089D01*
X100638009Y-113379498D01*
X100503163Y-113429793D01*
X100387948Y-113516043D01*
X100301698Y-113631257D01*
X100251403Y-113766105D01*
X100247790Y-113799713D01*
X100225934Y-113857783D01*
X100178681Y-113897995D01*
X100117863Y-113910280D01*
X100058707Y-113891564D01*
X100016023Y-113846531D01*
X100000500Y-113786458D01*
X100000500Y-106680000D01*
X102784340Y-106680000D01*
X102804936Y-106915407D01*
X102844860Y-107064406D01*
X102866097Y-107143663D01*
X102965965Y-107357830D01*
X103101505Y-107551401D01*
X103268599Y-107718495D01*
X103461625Y-107853653D01*
X103500489Y-107897970D01*
X103514500Y-107955227D01*
X103514500Y-112398890D01*
X103497887Y-112460890D01*
X103425892Y-112585587D01*
X103367398Y-112765614D01*
X103347612Y-112953872D01*
X103367398Y-113142129D01*
X103425892Y-113322156D01*
X103520538Y-113486088D01*
X103647201Y-113626761D01*
X103800341Y-113738023D01*
X103973269Y-113815016D01*
X104158424Y-113854372D01*
X104158426Y-113854372D01*
X104347718Y-113854372D01*
X104347720Y-113854372D01*
X104482535Y-113825716D01*
X104532875Y-113815016D01*
X104705802Y-113738023D01*
X104705802Y-113738022D01*
X104858942Y-113626761D01*
X104985605Y-113486088D01*
X105080251Y-113322156D01*
X105105888Y-113243253D01*
X105138746Y-113142128D01*
X105158532Y-112953872D01*
X105150215Y-112874741D01*
X105632315Y-112874741D01*
X105652148Y-113101430D01*
X105711045Y-113321238D01*
X105807216Y-113527476D01*
X105937737Y-113713881D01*
X106098643Y-113874787D01*
X106285048Y-114005308D01*
X106285049Y-114005308D01*
X106285050Y-114005309D01*
X106491288Y-114101480D01*
X106711092Y-114160376D01*
X106937784Y-114180209D01*
X107164476Y-114160376D01*
X107384280Y-114101480D01*
X107590518Y-114005309D01*
X107776923Y-113874788D01*
X107937831Y-113713880D01*
X108068352Y-113527475D01*
X108164523Y-113321237D01*
X108223419Y-113101433D01*
X108243252Y-112874741D01*
X108242684Y-112868254D01*
X108821031Y-112868254D01*
X108823051Y-112887472D01*
X108840817Y-113056511D01*
X108899311Y-113236538D01*
X108993957Y-113400470D01*
X109108314Y-113527475D01*
X109120620Y-113541142D01*
X109245853Y-113632129D01*
X109283451Y-113676150D01*
X109296966Y-113732445D01*
X109296966Y-129061384D01*
X109288730Y-129105822D01*
X109265118Y-129144353D01*
X109232011Y-129181122D01*
X109189930Y-129227857D01*
X109095286Y-129391786D01*
X109036792Y-129571813D01*
X109017006Y-129760070D01*
X109036792Y-129948328D01*
X109095286Y-130128355D01*
X109189932Y-130292287D01*
X109316595Y-130432960D01*
X109469735Y-130544222D01*
X109642663Y-130621215D01*
X109827818Y-130660571D01*
X109827820Y-130660571D01*
X110017112Y-130660571D01*
X110017114Y-130660571D01*
X110140550Y-130634333D01*
X110202269Y-130621215D01*
X110375196Y-130544222D01*
X110383496Y-130538192D01*
X110528336Y-130432960D01*
X110533477Y-130427251D01*
X110654999Y-130292287D01*
X110749645Y-130128355D01*
X110808140Y-129948327D01*
X110827926Y-129760071D01*
X110808140Y-129571815D01*
X110749645Y-129391787D01*
X110749645Y-129391786D01*
X110655001Y-129227857D01*
X110641893Y-129213300D01*
X110579813Y-129144353D01*
X110556202Y-129105822D01*
X110547966Y-129061384D01*
X110547966Y-126463337D01*
X111682737Y-126463337D01*
X111701903Y-126694636D01*
X111701903Y-126694638D01*
X111701904Y-126694642D01*
X111740884Y-126848568D01*
X111758882Y-126919640D01*
X111850649Y-127128846D01*
X111852114Y-127132186D01*
X111979059Y-127326490D01*
X112073841Y-127429451D01*
X112102613Y-127482202D01*
X112103206Y-127542288D01*
X112075479Y-127595598D01*
X112025944Y-127629613D01*
X111945709Y-127659539D01*
X111830492Y-127745791D01*
X111744242Y-127861005D01*
X111693947Y-127995852D01*
X111693947Y-127995854D01*
X111689363Y-128038495D01*
X111687538Y-128055467D01*
X111687538Y-129951206D01*
X111693947Y-130010821D01*
X111698701Y-130023566D01*
X111744242Y-130145668D01*
X111830492Y-130260883D01*
X111945707Y-130347133D01*
X112080555Y-130397428D01*
X112140165Y-130403837D01*
X112338538Y-130403837D01*
X112400538Y-130420450D01*
X112445925Y-130465837D01*
X112462538Y-130527837D01*
X112462538Y-131733457D01*
X112448527Y-131790714D01*
X112409661Y-131835031D01*
X112377120Y-131857817D01*
X112223265Y-131965545D01*
X112062359Y-132126451D01*
X111931838Y-132312856D01*
X111835667Y-132519094D01*
X111776770Y-132738902D01*
X111756937Y-132965592D01*
X111776770Y-133192281D01*
X111835667Y-133412089D01*
X111931838Y-133618327D01*
X112062359Y-133804732D01*
X112223265Y-133965638D01*
X112409670Y-134096159D01*
X112409671Y-134096159D01*
X112409672Y-134096160D01*
X112615910Y-134192331D01*
X112835714Y-134251227D01*
X113062406Y-134271060D01*
X113289098Y-134251227D01*
X113508902Y-134192331D01*
X113715140Y-134096160D01*
X113901545Y-133965639D01*
X114062453Y-133804731D01*
X114192974Y-133618326D01*
X114289145Y-133412088D01*
X114348041Y-133192284D01*
X114367874Y-132965592D01*
X114348041Y-132738900D01*
X114289145Y-132519096D01*
X114192974Y-132312858D01*
X114177049Y-132290115D01*
X114062452Y-132126451D01*
X113901546Y-131965545D01*
X113766415Y-131870926D01*
X113727549Y-131826608D01*
X113713538Y-131769351D01*
X113713538Y-131080567D01*
X114787391Y-131080567D01*
X114807177Y-131268824D01*
X114865671Y-131448851D01*
X114960317Y-131612783D01*
X115043043Y-131704658D01*
X115066658Y-131743193D01*
X115074894Y-131787631D01*
X115074894Y-139066126D01*
X115066658Y-139110564D01*
X115043046Y-139149095D01*
X115031892Y-139161484D01*
X114967858Y-139232599D01*
X114873214Y-139396528D01*
X114814720Y-139576555D01*
X114800259Y-139714143D01*
X114794934Y-139764813D01*
X114801302Y-139825405D01*
X114814720Y-139953070D01*
X114873214Y-140133097D01*
X114967860Y-140297029D01*
X115094523Y-140437702D01*
X115247663Y-140548964D01*
X115420591Y-140625957D01*
X115605746Y-140665313D01*
X115605748Y-140665313D01*
X115795040Y-140665313D01*
X115795042Y-140665313D01*
X115943364Y-140633786D01*
X115980197Y-140625957D01*
X116153124Y-140548964D01*
X116210327Y-140507404D01*
X116306264Y-140437702D01*
X116316712Y-140426099D01*
X116432927Y-140297029D01*
X116527573Y-140133097D01*
X116586068Y-139953069D01*
X116605854Y-139764813D01*
X116586068Y-139576557D01*
X116527573Y-139396529D01*
X116527573Y-139396528D01*
X116432929Y-139232599D01*
X116384854Y-139179207D01*
X116357741Y-139149095D01*
X116334130Y-139110564D01*
X116325894Y-139066126D01*
X116325894Y-131770877D01*
X116334130Y-131726439D01*
X116357744Y-131687905D01*
X116425384Y-131612783D01*
X116520030Y-131448851D01*
X116535197Y-131402171D01*
X116578525Y-131268823D01*
X116598311Y-131080567D01*
X116578525Y-130892311D01*
X116548183Y-130798930D01*
X116520030Y-130712282D01*
X116425384Y-130548350D01*
X116298721Y-130407677D01*
X116145581Y-130296415D01*
X115972653Y-130219422D01*
X115787499Y-130180067D01*
X115787497Y-130180067D01*
X115598205Y-130180067D01*
X115598203Y-130180067D01*
X115413048Y-130219422D01*
X115240120Y-130296415D01*
X115086980Y-130407677D01*
X114960317Y-130548350D01*
X114865671Y-130712282D01*
X114807177Y-130892309D01*
X114787391Y-131080567D01*
X113713538Y-131080567D01*
X113713538Y-130527836D01*
X113730151Y-130465836D01*
X113775538Y-130420449D01*
X113837538Y-130403836D01*
X114035908Y-130403836D01*
X114035910Y-130403836D01*
X114095521Y-130397428D01*
X114230369Y-130347133D01*
X114345584Y-130260883D01*
X114431834Y-130145668D01*
X114482129Y-130010820D01*
X114488538Y-129951210D01*
X114488537Y-128055465D01*
X114482129Y-127995854D01*
X114431834Y-127861006D01*
X114345584Y-127745791D01*
X114230369Y-127659541D01*
X114177395Y-127639783D01*
X114150131Y-127629614D01*
X114100596Y-127595598D01*
X114072869Y-127542288D01*
X114073462Y-127482201D01*
X114102234Y-127429451D01*
X114156920Y-127370047D01*
X115828299Y-127370047D01*
X115848085Y-127558304D01*
X115906579Y-127738331D01*
X116001225Y-127902263D01*
X116127888Y-128042936D01*
X116281028Y-128154198D01*
X116453956Y-128231191D01*
X116639111Y-128270547D01*
X116639113Y-128270547D01*
X116828405Y-128270547D01*
X116828407Y-128270547D01*
X116951843Y-128244309D01*
X117013562Y-128231191D01*
X117186489Y-128154198D01*
X117235290Y-128118742D01*
X117339629Y-128042936D01*
X117466292Y-127902263D01*
X117560938Y-127738331D01*
X117580597Y-127677827D01*
X117619433Y-127558303D01*
X117639219Y-127370047D01*
X117619433Y-127181791D01*
X117560938Y-127001763D01*
X117560938Y-127001762D01*
X117466294Y-126837833D01*
X117412073Y-126777615D01*
X117391106Y-126754329D01*
X117367495Y-126715798D01*
X117359259Y-126671360D01*
X117359259Y-109567373D01*
X117368698Y-109519920D01*
X117395578Y-109479692D01*
X119734612Y-107140658D01*
X122092728Y-104782541D01*
X122108824Y-104769647D01*
X122110812Y-104767528D01*
X122110816Y-104767527D01*
X122156887Y-104718464D01*
X122159505Y-104715764D01*
X122179059Y-104696212D01*
X122181520Y-104693039D01*
X122189095Y-104684168D01*
X122219001Y-104652323D01*
X122228651Y-104634768D01*
X122239339Y-104618498D01*
X122251610Y-104602679D01*
X122251612Y-104602677D01*
X122268965Y-104562573D01*
X122274096Y-104552103D01*
X122295136Y-104513833D01*
X122300114Y-104494440D01*
X122306420Y-104476023D01*
X122307957Y-104472469D01*
X122314377Y-104457637D01*
X122321211Y-104414486D01*
X122323574Y-104403072D01*
X122334439Y-104360760D01*
X122334439Y-104340725D01*
X122335966Y-104321326D01*
X122336715Y-104316597D01*
X122339099Y-104301545D01*
X122334989Y-104258066D01*
X122334439Y-104246397D01*
X122334439Y-103212910D01*
X122348450Y-103155653D01*
X122387313Y-103111336D01*
X122580340Y-102976178D01*
X122747434Y-102809084D01*
X122877367Y-102623520D01*
X122921681Y-102584658D01*
X122978938Y-102570647D01*
X123036194Y-102584657D01*
X123080512Y-102623522D01*
X123210444Y-102809084D01*
X123377538Y-102976178D01*
X123570564Y-103111336D01*
X123609428Y-103155653D01*
X123623439Y-103212910D01*
X123623439Y-103986341D01*
X123614000Y-104033794D01*
X123587120Y-104074022D01*
X118198790Y-109462349D01*
X118182692Y-109475246D01*
X118134678Y-109526375D01*
X118131973Y-109529167D01*
X118112456Y-109548684D01*
X118109997Y-109551855D01*
X118102424Y-109560722D01*
X118072517Y-109592570D01*
X118062867Y-109610124D01*
X118052191Y-109626378D01*
X118039908Y-109642213D01*
X118022557Y-109682308D01*
X118017420Y-109692794D01*
X117996384Y-109731057D01*
X117991403Y-109750459D01*
X117985102Y-109768861D01*
X117977143Y-109787252D01*
X117970310Y-109830392D01*
X117967942Y-109841824D01*
X117957082Y-109884128D01*
X117957082Y-109904166D01*
X117955555Y-109923565D01*
X117952422Y-109943344D01*
X117956532Y-109986825D01*
X117957082Y-109998494D01*
X117957082Y-131646606D01*
X117948846Y-131691044D01*
X117925234Y-131729575D01*
X117899732Y-131757899D01*
X117850046Y-131813079D01*
X117755402Y-131977008D01*
X117696908Y-132157035D01*
X117677122Y-132345293D01*
X117696908Y-132533550D01*
X117755402Y-132713577D01*
X117850048Y-132877509D01*
X117976711Y-133018182D01*
X118129851Y-133129444D01*
X118302779Y-133206437D01*
X118487934Y-133245793D01*
X118487936Y-133245793D01*
X118677228Y-133245793D01*
X118677230Y-133245793D01*
X118800665Y-133219555D01*
X118862385Y-133206437D01*
X119035312Y-133129444D01*
X119061656Y-133110304D01*
X119188452Y-133018182D01*
X119315115Y-132877509D01*
X119409761Y-132713577D01*
X119425932Y-132663808D01*
X119468256Y-132533549D01*
X119488042Y-132345293D01*
X119468256Y-132157037D01*
X119416827Y-131998755D01*
X119409761Y-131977008D01*
X119315117Y-131813079D01*
X119277118Y-131770877D01*
X119239929Y-131729575D01*
X119216318Y-131691044D01*
X119208082Y-131646606D01*
X119208082Y-127279603D01*
X119968625Y-127279603D01*
X119988458Y-127506292D01*
X120047355Y-127726100D01*
X120143526Y-127932338D01*
X120274047Y-128118743D01*
X120434953Y-128279649D01*
X120621358Y-128410170D01*
X120621359Y-128410170D01*
X120621360Y-128410171D01*
X120679959Y-128437496D01*
X120732134Y-128483253D01*
X120751554Y-128549877D01*
X120732135Y-128616502D01*
X120679960Y-128662259D01*
X120621616Y-128689466D01*
X120435274Y-128819944D01*
X120274435Y-128980783D01*
X120143959Y-129167122D01*
X120047827Y-129373276D01*
X119995222Y-129569602D01*
X119995222Y-129569603D01*
X122552966Y-129569603D01*
X122552965Y-129569602D01*
X122500360Y-129373276D01*
X122404228Y-129167122D01*
X122273752Y-128980783D01*
X122112913Y-128819944D01*
X121926576Y-128689469D01*
X121868227Y-128662260D01*
X121816052Y-128616502D01*
X121796633Y-128549877D01*
X121816053Y-128483252D01*
X121868228Y-128437496D01*
X121926828Y-128410171D01*
X122113233Y-128279650D01*
X122274141Y-128118742D01*
X122404662Y-127932337D01*
X122500833Y-127726099D01*
X122559729Y-127506295D01*
X122579562Y-127279603D01*
X122559729Y-127052911D01*
X122500833Y-126833107D01*
X122404662Y-126626869D01*
X122352370Y-126552188D01*
X122274140Y-126440462D01*
X122113234Y-126279556D01*
X121926826Y-126149033D01*
X121868818Y-126121983D01*
X121816643Y-126076226D01*
X121797224Y-126009600D01*
X121816644Y-125942976D01*
X121868815Y-125897222D01*
X121926828Y-125870171D01*
X122113233Y-125739650D01*
X122274141Y-125578742D01*
X122404662Y-125392337D01*
X122500833Y-125186099D01*
X122559729Y-124966295D01*
X122579562Y-124739603D01*
X122559729Y-124512911D01*
X122500833Y-124293107D01*
X122404662Y-124086869D01*
X122352370Y-124012188D01*
X122274140Y-123900462D01*
X122113234Y-123739556D01*
X121926830Y-123609036D01*
X121868817Y-123581984D01*
X121816642Y-123536226D01*
X121797223Y-123469600D01*
X121816643Y-123402975D01*
X121868815Y-123357222D01*
X121926828Y-123330171D01*
X122113233Y-123199650D01*
X122274141Y-123038742D01*
X122404662Y-122852337D01*
X122500833Y-122646099D01*
X122559729Y-122426295D01*
X122579562Y-122199603D01*
X122559729Y-121972911D01*
X122500833Y-121753107D01*
X122404662Y-121546869D01*
X122368194Y-121494787D01*
X122274140Y-121360462D01*
X122113234Y-121199556D01*
X121926827Y-121069034D01*
X121868819Y-121041985D01*
X121816643Y-120996228D01*
X121797223Y-120929603D01*
X121816643Y-120862978D01*
X121868819Y-120817221D01*
X121926828Y-120790171D01*
X122113233Y-120659650D01*
X122274141Y-120498742D01*
X122404662Y-120312337D01*
X122500833Y-120106099D01*
X122559729Y-119886295D01*
X122579562Y-119659603D01*
X122559729Y-119432911D01*
X122500833Y-119213107D01*
X122404662Y-119006869D01*
X122352370Y-118932188D01*
X122274140Y-118820462D01*
X122113234Y-118659556D01*
X121926826Y-118529033D01*
X121868818Y-118501983D01*
X121816643Y-118456226D01*
X121797224Y-118389600D01*
X121816644Y-118322976D01*
X121868815Y-118277222D01*
X121926828Y-118250171D01*
X122113233Y-118119650D01*
X122274141Y-117958742D01*
X122404662Y-117772337D01*
X122500833Y-117566099D01*
X122559729Y-117346295D01*
X122579562Y-117119603D01*
X122559729Y-116892911D01*
X122500833Y-116673107D01*
X122404662Y-116466869D01*
X122352370Y-116392188D01*
X122274140Y-116280462D01*
X122113234Y-116119556D01*
X121926827Y-115989034D01*
X121868819Y-115961985D01*
X121816643Y-115916228D01*
X121797223Y-115849603D01*
X121816643Y-115782978D01*
X121868819Y-115737221D01*
X121878656Y-115732634D01*
X121926828Y-115710171D01*
X122113233Y-115579650D01*
X122274141Y-115418742D01*
X122404662Y-115232337D01*
X122500833Y-115026099D01*
X122559729Y-114806295D01*
X122571605Y-114670552D01*
X131626679Y-114670552D01*
X131699668Y-114721659D01*
X131905826Y-114817792D01*
X132125550Y-114876667D01*
X132352153Y-114896492D01*
X132578755Y-114876667D01*
X132798479Y-114817792D01*
X133004633Y-114721660D01*
X133077625Y-114670551D01*
X132352154Y-113945079D01*
X132352153Y-113945079D01*
X131626679Y-114670551D01*
X131626679Y-114670552D01*
X122571605Y-114670552D01*
X122579562Y-114579603D01*
X122559729Y-114352911D01*
X122500833Y-114133107D01*
X122404662Y-113926869D01*
X122393046Y-113910280D01*
X122274140Y-113740462D01*
X122113234Y-113579556D01*
X122088631Y-113562329D01*
X122049493Y-113517487D01*
X122035760Y-113459573D01*
X122050594Y-113401931D01*
X122090579Y-113357842D01*
X122146500Y-113337464D01*
X122181577Y-113333694D01*
X122316425Y-113283399D01*
X122431640Y-113197149D01*
X122517890Y-113081934D01*
X122568185Y-112947086D01*
X122574594Y-112887476D01*
X122574593Y-112039603D01*
X127588625Y-112039603D01*
X127608458Y-112266292D01*
X127667355Y-112486100D01*
X127763526Y-112692338D01*
X127894047Y-112878743D01*
X128054953Y-113039649D01*
X128241358Y-113170170D01*
X128241359Y-113170170D01*
X128241360Y-113170171D01*
X128299959Y-113197496D01*
X128352134Y-113243253D01*
X128371554Y-113309877D01*
X128352135Y-113376502D01*
X128299960Y-113422259D01*
X128241616Y-113449466D01*
X128055274Y-113579944D01*
X127894435Y-113740783D01*
X127763959Y-113927122D01*
X127667827Y-114133276D01*
X127615222Y-114329602D01*
X127615222Y-114329603D01*
X130172966Y-114329603D01*
X130172965Y-114329602D01*
X130120360Y-114133276D01*
X130024228Y-113927122D01*
X129893752Y-113740783D01*
X129744495Y-113591526D01*
X131047186Y-113591526D01*
X131067011Y-113818128D01*
X131125886Y-114037852D01*
X131222019Y-114244010D01*
X131273125Y-114316997D01*
X131273127Y-114316998D01*
X131998599Y-113591527D01*
X132705706Y-113591527D01*
X133431178Y-114316998D01*
X133482284Y-114244010D01*
X133489493Y-114228552D01*
X133535250Y-114176375D01*
X133601875Y-114156954D01*
X133668501Y-114176373D01*
X133714259Y-114228549D01*
X133721585Y-114244261D01*
X133852106Y-114430666D01*
X134013012Y-114591572D01*
X134199417Y-114722093D01*
X134199418Y-114722093D01*
X134199419Y-114722094D01*
X134405657Y-114818265D01*
X134625461Y-114877161D01*
X134852153Y-114896994D01*
X135078845Y-114877161D01*
X135298649Y-114818265D01*
X135504887Y-114722094D01*
X135691292Y-114591573D01*
X135852200Y-114430665D01*
X135982721Y-114244260D01*
X136078892Y-114038022D01*
X136137788Y-113818218D01*
X136157621Y-113591526D01*
X136137788Y-113364834D01*
X136078892Y-113145030D01*
X135982721Y-112938792D01*
X135958927Y-112904811D01*
X135852199Y-112752385D01*
X135691293Y-112591479D01*
X135504888Y-112460958D01*
X135298650Y-112364787D01*
X135078842Y-112305890D01*
X134852153Y-112286057D01*
X134625463Y-112305890D01*
X134405655Y-112364787D01*
X134199417Y-112460958D01*
X134013012Y-112591479D01*
X133852106Y-112752385D01*
X133721582Y-112938794D01*
X133714257Y-112954504D01*
X133668500Y-113006678D01*
X133601875Y-113026096D01*
X133535251Y-113006676D01*
X133489495Y-112954501D01*
X133482286Y-112939041D01*
X133431178Y-112866052D01*
X132705706Y-113591526D01*
X132705706Y-113591527D01*
X131998599Y-113591527D01*
X131998599Y-113591526D01*
X131273126Y-112866052D01*
X131273126Y-112866053D01*
X131222018Y-112939042D01*
X131125886Y-113145198D01*
X131067011Y-113364923D01*
X131047186Y-113591526D01*
X129744495Y-113591526D01*
X129732913Y-113579944D01*
X129546576Y-113449469D01*
X129488227Y-113422260D01*
X129436052Y-113376502D01*
X129416633Y-113309877D01*
X129436053Y-113243252D01*
X129488228Y-113197496D01*
X129546828Y-113170171D01*
X129733233Y-113039650D01*
X129894141Y-112878742D01*
X130024662Y-112692337D01*
X130108522Y-112512499D01*
X131626679Y-112512499D01*
X132352153Y-113237972D01*
X132352154Y-113237972D01*
X133077625Y-112512500D01*
X133077624Y-112512498D01*
X133004637Y-112461392D01*
X132798479Y-112365259D01*
X132578755Y-112306384D01*
X132352153Y-112286559D01*
X132125550Y-112306384D01*
X131905825Y-112365259D01*
X131699669Y-112461391D01*
X131626680Y-112512499D01*
X131626679Y-112512499D01*
X130108522Y-112512499D01*
X130120833Y-112486099D01*
X130179729Y-112266295D01*
X130199562Y-112039603D01*
X130179729Y-111812911D01*
X130120833Y-111593107D01*
X130024662Y-111386869D01*
X129901850Y-111211474D01*
X129894140Y-111200462D01*
X129733234Y-111039556D01*
X129546829Y-110909035D01*
X129340591Y-110812864D01*
X129120783Y-110753967D01*
X128894094Y-110734134D01*
X128667404Y-110753967D01*
X128447596Y-110812864D01*
X128241358Y-110909035D01*
X128054953Y-111039556D01*
X127894047Y-111200462D01*
X127763526Y-111386867D01*
X127667355Y-111593105D01*
X127608458Y-111812913D01*
X127588625Y-112039603D01*
X122574593Y-112039603D01*
X122574593Y-111191731D01*
X122568185Y-111132120D01*
X122517890Y-110997272D01*
X122431640Y-110882057D01*
X122316425Y-110795807D01*
X122181577Y-110745512D01*
X122121967Y-110739103D01*
X122121963Y-110739103D01*
X120426224Y-110739103D01*
X120366609Y-110745512D01*
X120231763Y-110795807D01*
X120116548Y-110882057D01*
X120030298Y-110997271D01*
X119980003Y-111132118D01*
X119980003Y-111132120D01*
X119974547Y-111182871D01*
X119973594Y-111191733D01*
X119973594Y-112887472D01*
X119980003Y-112947087D01*
X120002053Y-113006204D01*
X120030298Y-113081934D01*
X120116548Y-113197149D01*
X120231763Y-113283399D01*
X120366611Y-113333694D01*
X120401688Y-113337465D01*
X120457607Y-113357842D01*
X120497591Y-113401930D01*
X120512426Y-113459571D01*
X120498694Y-113517484D01*
X120459558Y-113562327D01*
X120434954Y-113579555D01*
X120274047Y-113740462D01*
X120143526Y-113926867D01*
X120047355Y-114133105D01*
X119988458Y-114352913D01*
X119968625Y-114579603D01*
X119988458Y-114806292D01*
X120047355Y-115026100D01*
X120143526Y-115232338D01*
X120274047Y-115418743D01*
X120434953Y-115579649D01*
X120621357Y-115710169D01*
X120621360Y-115710171D01*
X120669532Y-115732634D01*
X120679369Y-115737221D01*
X120731544Y-115782978D01*
X120750963Y-115849603D01*
X120731544Y-115916228D01*
X120679369Y-115961985D01*
X120621357Y-115989036D01*
X120434953Y-116119556D01*
X120274047Y-116280462D01*
X120143526Y-116466867D01*
X120047355Y-116673105D01*
X119988458Y-116892913D01*
X119968625Y-117119603D01*
X119988458Y-117346292D01*
X120047355Y-117566100D01*
X120143526Y-117772338D01*
X120274047Y-117958743D01*
X120434953Y-118119649D01*
X120621356Y-118250168D01*
X120621360Y-118250171D01*
X120679369Y-118277221D01*
X120731544Y-118322978D01*
X120750963Y-118389603D01*
X120731544Y-118456228D01*
X120679369Y-118501985D01*
X120621357Y-118529036D01*
X120434953Y-118659556D01*
X120274047Y-118820462D01*
X120143526Y-119006867D01*
X120047355Y-119213105D01*
X119988458Y-119432913D01*
X119968625Y-119659603D01*
X119988458Y-119886292D01*
X120047355Y-120106100D01*
X120143526Y-120312338D01*
X120274047Y-120498743D01*
X120434953Y-120659649D01*
X120621357Y-120790169D01*
X120621360Y-120790171D01*
X120679369Y-120817221D01*
X120731544Y-120862978D01*
X120750963Y-120929603D01*
X120731544Y-120996228D01*
X120679369Y-121041985D01*
X120621357Y-121069036D01*
X120434953Y-121199556D01*
X120274047Y-121360462D01*
X120143526Y-121546867D01*
X120047355Y-121753105D01*
X119988458Y-121972913D01*
X119968625Y-122199603D01*
X119988458Y-122426292D01*
X120047355Y-122646100D01*
X120143526Y-122852338D01*
X120274047Y-123038743D01*
X120434953Y-123199649D01*
X120621357Y-123330169D01*
X120621360Y-123330171D01*
X120679369Y-123357221D01*
X120731544Y-123402978D01*
X120750963Y-123469603D01*
X120731544Y-123536228D01*
X120679369Y-123581985D01*
X120621357Y-123609036D01*
X120434953Y-123739556D01*
X120274047Y-123900462D01*
X120143526Y-124086867D01*
X120047355Y-124293105D01*
X119988458Y-124512913D01*
X119968625Y-124739603D01*
X119988458Y-124966292D01*
X120047355Y-125186100D01*
X120143526Y-125392338D01*
X120274047Y-125578743D01*
X120434953Y-125739649D01*
X120621356Y-125870168D01*
X120621360Y-125870171D01*
X120679369Y-125897221D01*
X120731544Y-125942978D01*
X120750963Y-126009603D01*
X120731544Y-126076228D01*
X120679369Y-126121985D01*
X120621357Y-126149036D01*
X120434953Y-126279556D01*
X120274047Y-126440462D01*
X120143526Y-126626867D01*
X120047355Y-126833105D01*
X119988458Y-127052913D01*
X119968625Y-127279603D01*
X119208082Y-127279603D01*
X119208082Y-110273602D01*
X119217521Y-110226149D01*
X119244401Y-110185921D01*
X121286889Y-108143433D01*
X135956771Y-108143433D01*
X136029760Y-108194540D01*
X136235918Y-108290673D01*
X136455642Y-108349548D01*
X136682245Y-108369373D01*
X136908847Y-108349548D01*
X137128571Y-108290673D01*
X137334725Y-108194541D01*
X137407717Y-108143432D01*
X136682246Y-107417960D01*
X136682245Y-107417960D01*
X135956771Y-108143432D01*
X135956771Y-108143433D01*
X121286889Y-108143433D01*
X121919589Y-107510733D01*
X122365915Y-107064407D01*
X135377278Y-107064407D01*
X135397103Y-107291009D01*
X135455978Y-107510733D01*
X135552111Y-107716891D01*
X135603217Y-107789878D01*
X135603219Y-107789879D01*
X136328691Y-107064408D01*
X137035798Y-107064408D01*
X137761270Y-107789879D01*
X137812379Y-107716887D01*
X137908511Y-107510733D01*
X137967386Y-107291009D01*
X137987211Y-107064407D01*
X137967386Y-106837804D01*
X137908511Y-106618080D01*
X137812378Y-106411922D01*
X137761270Y-106338933D01*
X137035798Y-107064407D01*
X137035798Y-107064408D01*
X136328691Y-107064408D01*
X136328691Y-107064407D01*
X135603218Y-106338933D01*
X135603218Y-106338934D01*
X135552110Y-106411923D01*
X135455978Y-106618079D01*
X135397103Y-106837804D01*
X135377278Y-107064407D01*
X122365915Y-107064407D01*
X123444942Y-105985380D01*
X135956771Y-105985380D01*
X136682245Y-106710853D01*
X136682246Y-106710853D01*
X137407717Y-105985381D01*
X137407716Y-105985379D01*
X137334729Y-105934273D01*
X137128571Y-105838140D01*
X136908847Y-105779265D01*
X136682245Y-105759440D01*
X136455642Y-105779265D01*
X136235917Y-105838140D01*
X136029761Y-105934272D01*
X135956772Y-105985380D01*
X135956771Y-105985380D01*
X123444942Y-105985380D01*
X124632728Y-104797593D01*
X124648824Y-104784699D01*
X124650812Y-104782580D01*
X124650816Y-104782579D01*
X124696887Y-104733516D01*
X124699505Y-104730816D01*
X124719059Y-104711264D01*
X124721520Y-104708091D01*
X124729095Y-104699220D01*
X124759001Y-104667375D01*
X124768651Y-104649820D01*
X124779339Y-104633550D01*
X124791610Y-104617731D01*
X124791612Y-104617729D01*
X124808965Y-104577625D01*
X124814096Y-104567155D01*
X124835136Y-104528885D01*
X124840114Y-104509492D01*
X124846420Y-104491075D01*
X124852934Y-104476023D01*
X124854377Y-104472689D01*
X124861211Y-104429538D01*
X124863574Y-104418124D01*
X124874439Y-104375812D01*
X124874439Y-104355777D01*
X124875966Y-104336378D01*
X124876823Y-104330968D01*
X124879099Y-104316597D01*
X124874989Y-104273118D01*
X124874439Y-104261449D01*
X124874439Y-103212910D01*
X124888450Y-103155653D01*
X124927313Y-103111336D01*
X125120340Y-102976178D01*
X125287434Y-102809084D01*
X125417367Y-102623520D01*
X125461681Y-102584658D01*
X125518938Y-102570647D01*
X125576194Y-102584657D01*
X125620512Y-102623522D01*
X125750444Y-102809084D01*
X125917538Y-102976178D01*
X126111109Y-103111718D01*
X126325276Y-103211586D01*
X126553531Y-103272746D01*
X126788939Y-103293342D01*
X127024347Y-103272746D01*
X127252602Y-103211586D01*
X127466769Y-103111718D01*
X127660340Y-102976178D01*
X127827434Y-102809084D01*
X127957367Y-102623520D01*
X128001681Y-102584658D01*
X128058938Y-102570647D01*
X128116194Y-102584657D01*
X128160512Y-102623522D01*
X128290444Y-102809084D01*
X128457538Y-102976178D01*
X128651109Y-103111718D01*
X128865276Y-103211586D01*
X129093531Y-103272746D01*
X129328939Y-103293342D01*
X129564347Y-103272746D01*
X129792602Y-103211586D01*
X130006769Y-103111718D01*
X130200340Y-102976178D01*
X130367434Y-102809084D01*
X130497671Y-102623085D01*
X130541987Y-102584222D01*
X130599244Y-102570211D01*
X130656501Y-102584222D01*
X130700819Y-102623087D01*
X130830832Y-102808764D01*
X130997857Y-102975789D01*
X131191362Y-103111283D01*
X131405446Y-103211113D01*
X131618938Y-103268318D01*
X131618939Y-103268319D01*
X131618939Y-102187683D01*
X132118939Y-102187683D01*
X132118939Y-103268318D01*
X132332431Y-103211113D01*
X132546515Y-103111283D01*
X132740020Y-102975789D01*
X132907045Y-102808764D01*
X133042539Y-102615259D01*
X133085060Y-102524073D01*
X137822864Y-102524073D01*
X137843460Y-102759480D01*
X137880737Y-102898600D01*
X137904621Y-102987736D01*
X138004489Y-103201903D01*
X138140029Y-103395474D01*
X138307123Y-103562568D01*
X138500694Y-103698108D01*
X138714861Y-103797976D01*
X138943116Y-103859136D01*
X139178524Y-103879732D01*
X139413932Y-103859136D01*
X139642187Y-103797976D01*
X139856354Y-103698108D01*
X140049925Y-103562568D01*
X140217019Y-103395474D01*
X140326950Y-103238475D01*
X140371267Y-103199611D01*
X140428524Y-103185600D01*
X140485781Y-103199611D01*
X140530097Y-103238475D01*
X140640029Y-103395474D01*
X140807123Y-103562568D01*
X141000149Y-103697726D01*
X141039013Y-103742043D01*
X141053024Y-103799300D01*
X141053024Y-105852824D01*
X141039013Y-105910081D01*
X141000147Y-105954399D01*
X140843104Y-106064360D01*
X140682198Y-106225266D01*
X140551677Y-106411671D01*
X140455506Y-106617909D01*
X140396609Y-106837717D01*
X140376776Y-107064407D01*
X140396609Y-107291096D01*
X140455506Y-107510904D01*
X140551677Y-107717142D01*
X140682198Y-107903547D01*
X140843104Y-108064453D01*
X141003868Y-108177020D01*
X141042734Y-108221338D01*
X141056745Y-108278595D01*
X141056745Y-109156017D01*
X141047306Y-109203470D01*
X141020426Y-109243698D01*
X139942041Y-110322083D01*
X139901813Y-110348963D01*
X139854360Y-110358402D01*
X139489433Y-110358402D01*
X139474596Y-110359863D01*
X139338781Y-110373239D01*
X139145469Y-110431880D01*
X138967320Y-110527103D01*
X138811165Y-110655254D01*
X138683014Y-110811409D01*
X138587791Y-110989558D01*
X138529150Y-111182870D01*
X138509351Y-111383901D01*
X138529150Y-111584933D01*
X138587791Y-111778245D01*
X138685464Y-111960979D01*
X138700106Y-112019432D01*
X138685464Y-112077885D01*
X138588255Y-112259749D01*
X138544528Y-112403902D01*
X139427498Y-112403902D01*
X139439651Y-112404498D01*
X139489433Y-112409402D01*
X140040193Y-112409402D01*
X140089974Y-112404499D01*
X140102128Y-112403902D01*
X140985098Y-112403902D01*
X140941371Y-112259752D01*
X140844161Y-112077886D01*
X140829519Y-112019432D01*
X140844161Y-111960979D01*
X140846611Y-111956396D01*
X140941836Y-111778243D01*
X141000475Y-111584935D01*
X141020275Y-111383902D01*
X141000475Y-111182869D01*
X140987127Y-111138869D01*
X140985505Y-111072747D01*
X141018106Y-111015197D01*
X142066033Y-109967271D01*
X142082130Y-109954376D01*
X142084118Y-109952257D01*
X142084122Y-109952256D01*
X142130193Y-109903193D01*
X142132811Y-109900493D01*
X142152365Y-109880941D01*
X142154826Y-109877768D01*
X142162401Y-109868897D01*
X142192307Y-109837052D01*
X142201962Y-109819488D01*
X142212639Y-109803234D01*
X142224918Y-109787406D01*
X142242263Y-109747322D01*
X142247405Y-109736826D01*
X142268442Y-109698562D01*
X142273424Y-109679154D01*
X142279726Y-109660750D01*
X142287682Y-109642366D01*
X142294514Y-109599222D01*
X142296878Y-109587808D01*
X142307745Y-109545489D01*
X142307745Y-109525454D01*
X142309272Y-109506055D01*
X142309313Y-109505791D01*
X142312405Y-109486274D01*
X142310867Y-109470000D01*
X145989364Y-109470000D01*
X146046569Y-109683492D01*
X146146399Y-109897576D01*
X146281893Y-110091081D01*
X146448918Y-110258106D01*
X146642423Y-110393600D01*
X146856507Y-110493430D01*
X147069999Y-110550635D01*
X147070000Y-110550636D01*
X147070000Y-109470000D01*
X147570000Y-109470000D01*
X147570000Y-110550635D01*
X147783492Y-110493430D01*
X147997576Y-110393600D01*
X148191081Y-110258106D01*
X148358106Y-110091081D01*
X148493600Y-109897576D01*
X148593430Y-109683492D01*
X148650636Y-109470000D01*
X147570000Y-109470000D01*
X147070000Y-109470000D01*
X145989364Y-109470000D01*
X142310867Y-109470000D01*
X142308295Y-109442795D01*
X142307745Y-109431126D01*
X142307745Y-108278595D01*
X142321756Y-108221338D01*
X142360622Y-108177020D01*
X142521385Y-108064453D01*
X142682291Y-107903547D01*
X142716959Y-107854035D01*
X142812813Y-107717141D01*
X142908984Y-107510903D01*
X142967880Y-107291099D01*
X142987713Y-107064407D01*
X142967880Y-106837715D01*
X142908984Y-106617911D01*
X142812813Y-106411673D01*
X142761880Y-106338933D01*
X142682291Y-106225266D01*
X142521385Y-106064360D01*
X142356901Y-105949189D01*
X142318035Y-105904871D01*
X142304024Y-105847614D01*
X142304024Y-103799300D01*
X142318035Y-103742043D01*
X142356898Y-103697726D01*
X142549925Y-103562568D01*
X142717019Y-103395474D01*
X142826950Y-103238475D01*
X142871267Y-103199611D01*
X142928524Y-103185600D01*
X142985781Y-103199611D01*
X143030097Y-103238475D01*
X143140029Y-103395474D01*
X143307123Y-103562568D01*
X143500694Y-103698108D01*
X143714861Y-103797976D01*
X143943116Y-103859136D01*
X144178524Y-103879732D01*
X144413932Y-103859136D01*
X144514398Y-103832216D01*
X144578583Y-103832216D01*
X144634171Y-103864310D01*
X146092072Y-105322212D01*
X146122503Y-105372137D01*
X146126674Y-105430456D01*
X146103658Y-105484204D01*
X146026204Y-105587668D01*
X145975909Y-105722516D01*
X145969500Y-105782130D01*
X145969500Y-107577869D01*
X145975909Y-107637483D01*
X146026204Y-107772331D01*
X146112454Y-107887546D01*
X146227669Y-107973796D01*
X146359598Y-108023002D01*
X146409978Y-108057981D01*
X146437431Y-108112825D01*
X146435242Y-108174118D01*
X146403947Y-108226865D01*
X146281888Y-108348924D01*
X146146400Y-108542421D01*
X146046569Y-108756507D01*
X145989364Y-108969999D01*
X145989364Y-108970000D01*
X148650636Y-108970000D01*
X148650635Y-108969999D01*
X148593430Y-108756507D01*
X148493599Y-108542421D01*
X148358109Y-108348921D01*
X148236053Y-108226865D01*
X148204757Y-108174119D01*
X148202568Y-108112826D01*
X148230021Y-108057981D01*
X148280398Y-108023003D01*
X148412331Y-107973796D01*
X148527546Y-107887546D01*
X148613796Y-107772331D01*
X148664091Y-107637483D01*
X148670500Y-107577873D01*
X148670499Y-105782128D01*
X148664091Y-105722517D01*
X148613796Y-105587669D01*
X148527546Y-105472454D01*
X148412331Y-105386204D01*
X148277483Y-105335909D01*
X148217873Y-105329500D01*
X148217869Y-105329500D01*
X147918687Y-105329500D01*
X147857245Y-105313207D01*
X147831547Y-105287905D01*
X147829247Y-105290206D01*
X147804006Y-105264965D01*
X147791367Y-105250166D01*
X147779595Y-105233962D01*
X147745941Y-105206122D01*
X147737299Y-105198258D01*
X145518761Y-102979719D01*
X145486667Y-102924131D01*
X145486667Y-102859945D01*
X145513587Y-102759481D01*
X145534183Y-102524073D01*
X145513587Y-102288665D01*
X145452427Y-102060410D01*
X145352559Y-101846244D01*
X145217019Y-101652672D01*
X145049925Y-101485578D01*
X144856354Y-101350038D01*
X144642187Y-101250170D01*
X144581025Y-101233782D01*
X144413931Y-101189009D01*
X144178524Y-101168413D01*
X143943116Y-101189009D01*
X143714860Y-101250170D01*
X143500694Y-101350038D01*
X143307122Y-101485578D01*
X143140029Y-101652671D01*
X143030099Y-101809669D01*
X142985781Y-101848535D01*
X142928524Y-101862546D01*
X142871267Y-101848535D01*
X142826949Y-101809669D01*
X142717018Y-101652671D01*
X142549928Y-101485581D01*
X142549925Y-101485578D01*
X142356354Y-101350038D01*
X142142187Y-101250170D01*
X142081025Y-101233782D01*
X141913931Y-101189009D01*
X141678524Y-101168413D01*
X141443116Y-101189009D01*
X141214860Y-101250170D01*
X141000694Y-101350038D01*
X140807122Y-101485578D01*
X140640029Y-101652671D01*
X140530099Y-101809669D01*
X140485781Y-101848535D01*
X140428524Y-101862546D01*
X140371267Y-101848535D01*
X140326949Y-101809669D01*
X140217018Y-101652671D01*
X140049928Y-101485581D01*
X140049925Y-101485578D01*
X139856354Y-101350038D01*
X139642187Y-101250170D01*
X139581025Y-101233782D01*
X139413931Y-101189009D01*
X139178524Y-101168413D01*
X138943116Y-101189009D01*
X138714860Y-101250170D01*
X138500694Y-101350038D01*
X138307122Y-101485578D01*
X138140029Y-101652671D01*
X138004489Y-101846243D01*
X137904621Y-102060409D01*
X137843460Y-102288665D01*
X137822864Y-102524073D01*
X133085060Y-102524073D01*
X133142369Y-102401175D01*
X133199575Y-102187683D01*
X132118939Y-102187683D01*
X131618939Y-102187683D01*
X131618939Y-100607047D01*
X132118939Y-100607047D01*
X132118939Y-101687683D01*
X133199575Y-101687683D01*
X133199574Y-101687682D01*
X133142369Y-101474190D01*
X133042538Y-101260104D01*
X132907048Y-101066604D01*
X132740020Y-100899576D01*
X132546515Y-100764082D01*
X132332431Y-100664252D01*
X132118939Y-100607047D01*
X131618939Y-100607047D01*
X131618938Y-100607047D01*
X131405446Y-100664252D01*
X131191360Y-100764083D01*
X130997860Y-100899573D01*
X130830832Y-101066601D01*
X130700819Y-101252279D01*
X130656501Y-101291144D01*
X130599244Y-101305155D01*
X130541987Y-101291144D01*
X130497669Y-101252278D01*
X130367434Y-101066282D01*
X130200340Y-100899188D01*
X130006769Y-100763648D01*
X129792602Y-100663780D01*
X129731440Y-100647392D01*
X129564346Y-100602619D01*
X129328939Y-100582023D01*
X129093531Y-100602619D01*
X128865275Y-100663780D01*
X128651109Y-100763648D01*
X128457537Y-100899188D01*
X128290447Y-101066278D01*
X128160513Y-101251843D01*
X128116194Y-101290709D01*
X128058938Y-101304719D01*
X128001681Y-101290708D01*
X127957365Y-101251844D01*
X127827434Y-101066282D01*
X127660340Y-100899188D01*
X127466769Y-100763648D01*
X127252602Y-100663780D01*
X127191440Y-100647392D01*
X127024346Y-100602619D01*
X126788939Y-100582023D01*
X126553531Y-100602619D01*
X126325275Y-100663780D01*
X126111109Y-100763648D01*
X125917537Y-100899188D01*
X125750447Y-101066278D01*
X125620513Y-101251843D01*
X125576194Y-101290709D01*
X125518938Y-101304719D01*
X125461681Y-101290708D01*
X125417365Y-101251844D01*
X125287434Y-101066282D01*
X125120340Y-100899188D01*
X124926769Y-100763648D01*
X124712602Y-100663780D01*
X124651440Y-100647392D01*
X124484346Y-100602619D01*
X124248939Y-100582023D01*
X124013531Y-100602619D01*
X123785275Y-100663780D01*
X123571109Y-100763648D01*
X123377537Y-100899188D01*
X123210447Y-101066278D01*
X123080513Y-101251843D01*
X123036194Y-101290709D01*
X122978938Y-101304719D01*
X122921681Y-101290708D01*
X122877365Y-101251844D01*
X122747434Y-101066282D01*
X122580340Y-100899188D01*
X122386769Y-100763648D01*
X122172602Y-100663780D01*
X122111440Y-100647392D01*
X121944346Y-100602619D01*
X121708939Y-100582023D01*
X121473531Y-100602619D01*
X121245275Y-100663780D01*
X121031109Y-100763648D01*
X120837540Y-100899186D01*
X120715612Y-101021114D01*
X120662865Y-101052409D01*
X120601573Y-101054598D01*
X120546728Y-101027145D01*
X120511749Y-100976765D01*
X120482958Y-100899573D01*
X120462735Y-100845352D01*
X120376485Y-100730137D01*
X120261270Y-100643887D01*
X120126422Y-100593592D01*
X120066812Y-100587183D01*
X120066808Y-100587183D01*
X118271069Y-100587183D01*
X118211454Y-100593592D01*
X118076608Y-100643887D01*
X117961393Y-100730137D01*
X117875143Y-100845351D01*
X117824848Y-100980199D01*
X117818439Y-101039813D01*
X117818439Y-102835552D01*
X117824848Y-102895167D01*
X117844179Y-102946996D01*
X117875143Y-103030014D01*
X117961393Y-103145229D01*
X118076608Y-103231479D01*
X118211456Y-103281774D01*
X118271066Y-103288183D01*
X120066811Y-103288182D01*
X120126422Y-103281774D01*
X120261270Y-103231479D01*
X120376485Y-103145229D01*
X120462735Y-103030014D01*
X120511749Y-102898599D01*
X120546728Y-102848220D01*
X120601573Y-102820767D01*
X120662866Y-102822956D01*
X120715611Y-102854251D01*
X120837538Y-102976178D01*
X121030564Y-103111336D01*
X121069428Y-103155653D01*
X121083439Y-103212910D01*
X121083439Y-103971289D01*
X121074000Y-104018742D01*
X121047120Y-104058970D01*
X116349967Y-108756120D01*
X116333869Y-108769017D01*
X116285855Y-108820146D01*
X116283150Y-108822938D01*
X116263633Y-108842455D01*
X116261174Y-108845626D01*
X116253601Y-108854493D01*
X116223694Y-108886341D01*
X116214044Y-108903895D01*
X116203368Y-108920149D01*
X116191085Y-108935984D01*
X116173734Y-108976079D01*
X116168597Y-108986565D01*
X116147561Y-109024828D01*
X116142580Y-109044230D01*
X116136279Y-109062632D01*
X116128320Y-109081023D01*
X116121487Y-109124163D01*
X116119119Y-109135595D01*
X116108259Y-109177899D01*
X116108259Y-109197937D01*
X116106732Y-109217336D01*
X116103599Y-109237115D01*
X116107709Y-109280596D01*
X116108259Y-109292265D01*
X116108259Y-126671360D01*
X116100023Y-126715798D01*
X116076411Y-126754329D01*
X116055445Y-126777615D01*
X116001223Y-126837833D01*
X115906579Y-127001762D01*
X115848085Y-127181789D01*
X115828299Y-127370047D01*
X114156920Y-127370047D01*
X114197017Y-127326490D01*
X114323962Y-127132186D01*
X114417195Y-126919637D01*
X114474172Y-126694642D01*
X114493338Y-126463337D01*
X114474172Y-126232032D01*
X114417195Y-126007037D01*
X114323962Y-125794488D01*
X114197017Y-125600184D01*
X114039822Y-125429424D01*
X113856664Y-125286867D01*
X113652541Y-125176401D01*
X113652537Y-125176399D01*
X113652536Y-125176399D01*
X113433022Y-125101039D01*
X113261319Y-125072387D01*
X113204087Y-125062837D01*
X112971989Y-125062837D01*
X112926202Y-125070477D01*
X112743053Y-125101039D01*
X112523539Y-125176399D01*
X112319410Y-125286868D01*
X112136253Y-125429424D01*
X111979058Y-125600185D01*
X111852114Y-125794487D01*
X111758882Y-126007033D01*
X111758880Y-126007037D01*
X111758881Y-126007037D01*
X111705987Y-126215911D01*
X111701903Y-126232037D01*
X111682737Y-126463337D01*
X110547966Y-126463337D01*
X110547966Y-120494741D01*
X111529323Y-120494741D01*
X111549156Y-120721430D01*
X111608053Y-120941238D01*
X111704224Y-121147476D01*
X111834745Y-121333881D01*
X111995651Y-121494787D01*
X112182056Y-121625308D01*
X112182057Y-121625308D01*
X112182058Y-121625309D01*
X112388296Y-121721480D01*
X112608100Y-121780376D01*
X112834792Y-121800209D01*
X113061484Y-121780376D01*
X113281288Y-121721480D01*
X113487526Y-121625309D01*
X113673931Y-121494788D01*
X113834839Y-121333880D01*
X113965360Y-121147475D01*
X114061531Y-120941237D01*
X114120427Y-120721433D01*
X114140260Y-120494741D01*
X114120427Y-120268049D01*
X114061531Y-120048245D01*
X113965360Y-119842007D01*
X113962839Y-119838407D01*
X113834838Y-119655600D01*
X113673932Y-119494694D01*
X113487527Y-119364173D01*
X113281289Y-119268002D01*
X113061481Y-119209105D01*
X112834792Y-119189272D01*
X112608102Y-119209105D01*
X112388294Y-119268002D01*
X112182056Y-119364173D01*
X111995651Y-119494694D01*
X111834745Y-119655600D01*
X111704224Y-119842005D01*
X111608053Y-120048243D01*
X111549156Y-120268051D01*
X111529323Y-120494741D01*
X110547966Y-120494741D01*
X110547966Y-113273733D01*
X110554035Y-113235415D01*
X110583403Y-113145030D01*
X110612165Y-113056510D01*
X110631269Y-112874741D01*
X111529323Y-112874741D01*
X111549156Y-113101430D01*
X111608053Y-113321238D01*
X111704224Y-113527476D01*
X111834745Y-113713881D01*
X111995651Y-113874787D01*
X112182056Y-114005308D01*
X112182057Y-114005308D01*
X112182058Y-114005309D01*
X112388296Y-114101480D01*
X112608100Y-114160376D01*
X112834792Y-114180209D01*
X113061484Y-114160376D01*
X113281288Y-114101480D01*
X113487526Y-114005309D01*
X113673931Y-113874788D01*
X113834839Y-113713880D01*
X113965360Y-113527475D01*
X114061531Y-113321237D01*
X114120427Y-113101433D01*
X114140260Y-112874741D01*
X114120427Y-112648049D01*
X114061531Y-112428245D01*
X113965360Y-112222007D01*
X113959119Y-112213094D01*
X113834838Y-112035600D01*
X113673932Y-111874694D01*
X113513169Y-111762128D01*
X113474303Y-111717810D01*
X113460292Y-111660553D01*
X113460292Y-107988170D01*
X113479711Y-107921545D01*
X113531887Y-107875788D01*
X113540627Y-107871711D01*
X113584978Y-107851031D01*
X113778549Y-107715491D01*
X113945643Y-107548397D01*
X114081183Y-107354826D01*
X114181051Y-107140659D01*
X114242211Y-106912404D01*
X114262807Y-106676996D01*
X114257637Y-106617909D01*
X114242211Y-106441588D01*
X114214705Y-106338933D01*
X114181051Y-106213333D01*
X114081183Y-105999167D01*
X113945643Y-105805595D01*
X113778549Y-105638501D01*
X113584978Y-105502961D01*
X113370811Y-105403093D01*
X113307780Y-105386204D01*
X113142555Y-105341932D01*
X112907148Y-105321336D01*
X112671740Y-105341932D01*
X112443484Y-105403093D01*
X112229318Y-105502961D01*
X112035746Y-105638501D01*
X111868653Y-105805594D01*
X111733113Y-105999166D01*
X111633245Y-106213332D01*
X111572084Y-106441588D01*
X111551488Y-106676995D01*
X111572084Y-106912403D01*
X111612813Y-107064406D01*
X111633245Y-107140659D01*
X111733113Y-107354826D01*
X111868653Y-107548397D01*
X112035747Y-107715491D01*
X112156417Y-107799985D01*
X112195281Y-107844302D01*
X112209292Y-107901559D01*
X112209292Y-111660553D01*
X112195281Y-111717810D01*
X112156415Y-111762128D01*
X111995651Y-111874694D01*
X111834745Y-112035600D01*
X111704224Y-112222005D01*
X111608053Y-112428243D01*
X111549156Y-112648051D01*
X111529323Y-112874741D01*
X110631269Y-112874741D01*
X110631951Y-112868254D01*
X110612165Y-112679998D01*
X110581489Y-112585587D01*
X110553670Y-112499969D01*
X110459024Y-112336037D01*
X110332361Y-112195364D01*
X110179221Y-112084102D01*
X110006293Y-112007109D01*
X109821139Y-111967754D01*
X109821137Y-111967754D01*
X109631845Y-111967754D01*
X109631843Y-111967754D01*
X109446688Y-112007109D01*
X109273760Y-112084102D01*
X109120620Y-112195364D01*
X108993957Y-112336037D01*
X108899311Y-112499969D01*
X108840817Y-112679996D01*
X108831818Y-112765616D01*
X108821031Y-112868254D01*
X108242684Y-112868254D01*
X108223419Y-112648049D01*
X108164523Y-112428245D01*
X108068352Y-112222007D01*
X108062111Y-112213094D01*
X107937830Y-112035600D01*
X107776924Y-111874694D01*
X107590519Y-111744173D01*
X107384281Y-111648002D01*
X107164473Y-111589105D01*
X106937784Y-111569272D01*
X106711094Y-111589105D01*
X106491286Y-111648002D01*
X106285048Y-111744173D01*
X106098643Y-111874694D01*
X105937737Y-112035600D01*
X105807216Y-112222005D01*
X105711045Y-112428243D01*
X105652148Y-112648051D01*
X105632315Y-112874741D01*
X105150215Y-112874741D01*
X105138746Y-112765616D01*
X105080251Y-112585588D01*
X105080251Y-112585587D01*
X104985605Y-112421655D01*
X104858943Y-112280984D01*
X104838721Y-112266292D01*
X104816615Y-112250231D01*
X104779015Y-112206208D01*
X104765500Y-112149913D01*
X104765500Y-107955227D01*
X104779511Y-107897970D01*
X104818374Y-107853653D01*
X105011401Y-107718495D01*
X105178495Y-107551401D01*
X105314035Y-107357830D01*
X105413903Y-107143663D01*
X105475063Y-106915408D01*
X105495659Y-106680000D01*
X105475063Y-106444592D01*
X105413903Y-106216337D01*
X105314035Y-106002171D01*
X105178495Y-105808599D01*
X105011401Y-105641505D01*
X104817830Y-105505965D01*
X104603663Y-105406097D01*
X104542501Y-105389709D01*
X104375407Y-105344936D01*
X104140000Y-105324340D01*
X103904592Y-105344936D01*
X103676336Y-105406097D01*
X103462170Y-105505965D01*
X103268598Y-105641505D01*
X103101505Y-105808598D01*
X102965965Y-106002170D01*
X102866097Y-106216336D01*
X102804936Y-106444592D01*
X102784340Y-106680000D01*
X100000500Y-106680000D01*
X100000500Y-101850000D01*
X102790000Y-101850000D01*
X102790000Y-102497824D01*
X102796402Y-102557375D01*
X102846647Y-102692089D01*
X102932811Y-102807188D01*
X103047910Y-102893352D01*
X103182624Y-102943597D01*
X103242176Y-102950000D01*
X103890000Y-102950000D01*
X103890000Y-101850000D01*
X104390000Y-101850000D01*
X104390000Y-102950000D01*
X105037824Y-102950000D01*
X105097375Y-102943597D01*
X105232089Y-102893352D01*
X105347188Y-102807188D01*
X105433352Y-102692089D01*
X105483597Y-102557375D01*
X105490000Y-102497824D01*
X105490000Y-101850000D01*
X104390000Y-101850000D01*
X103890000Y-101850000D01*
X102790000Y-101850000D01*
X100000500Y-101850000D01*
X100000500Y-101846996D01*
X111557148Y-101846996D01*
X111557148Y-102494820D01*
X111563550Y-102554371D01*
X111613795Y-102689085D01*
X111699959Y-102804184D01*
X111815058Y-102890348D01*
X111949772Y-102940593D01*
X112009324Y-102946996D01*
X112657148Y-102946996D01*
X112657148Y-101846996D01*
X113157148Y-101846996D01*
X113157148Y-102946996D01*
X113804972Y-102946996D01*
X113864523Y-102940593D01*
X113999237Y-102890348D01*
X114114336Y-102804184D01*
X114200500Y-102689085D01*
X114250745Y-102554371D01*
X114257148Y-102494820D01*
X114257148Y-101846996D01*
X113157148Y-101846996D01*
X112657148Y-101846996D01*
X111557148Y-101846996D01*
X100000500Y-101846996D01*
X100000500Y-101350000D01*
X102790000Y-101350000D01*
X103890000Y-101350000D01*
X103890000Y-100250000D01*
X104390000Y-100250000D01*
X104390000Y-101350000D01*
X105490000Y-101350000D01*
X105490000Y-100702176D01*
X105483597Y-100642624D01*
X105433352Y-100507910D01*
X105347188Y-100392811D01*
X105232089Y-100306647D01*
X105097375Y-100256402D01*
X105037824Y-100250000D01*
X104390000Y-100250000D01*
X103890000Y-100250000D01*
X103242176Y-100250000D01*
X103182624Y-100256402D01*
X103047910Y-100306647D01*
X102932811Y-100392811D01*
X102846647Y-100507910D01*
X102796402Y-100642624D01*
X102790000Y-100702176D01*
X102790000Y-101350000D01*
X100000500Y-101350000D01*
X100000500Y-100124500D01*
X100017113Y-100062500D01*
X100062500Y-100017113D01*
X100124500Y-100000500D01*
X111988684Y-100000500D01*
X112048757Y-100016023D01*
G37*
%TD.AperFunction*%
%TD*%
D22*
X150000000Y-100000000D02*
X100000000Y-100000000D01*
X150000000Y-150000000D02*
X150000000Y-100000000D01*
X100000000Y-150000000D02*
X150000000Y-150000000D01*
X100000000Y-100000000D02*
X100000000Y-150000000D01*
M02*
